<svg width="80" height="49" viewBox="0 0 80 49" fill="none" xmlns="http://www.w3.org/2000/svg">
<g clip-path="url(#clip0_1231_351)">
<g clip-path="url(#clip1_1231_351)">
<path d="M47.2205 19.4829H44.0554V32.8814H47.2205V19.4829Z" fill="white"/>
<path d="M36.1415 29.1042C34.6926 26.5046 33.8078 23.5566 33.1904 19.4844H29.8642C30.7769 25.032 32.6011 29.4539 34.8003 32.8829H37.4294C39.6567 29.4525 41.4528 25.0306 42.3656 19.4844H39.1191C38.5017 23.558 37.617 26.5059 36.1415 29.1042Z" fill="white"/>
<path d="M78.0441 29.0231V23.744C78.0441 20.4744 75.9782 19.2158 72.2232 19.2158C70.8823 19.2158 69.7554 19.3767 68.8159 19.564L67.7154 22.3777C68.8159 22.1092 70.5054 21.8421 71.8732 21.8421C73.9663 21.8421 75.0932 22.4854 75.0932 23.9859V24.9243C74.3959 24.79 73.51 24.6838 72.625 24.6838C68.9236 24.6838 67.1263 26.6136 67.1263 28.9448C67.1263 31.276 68.8973 33.1527 71.7668 33.1527C73.4568 33.1527 74.7445 32.4563 75.5232 31.3837C76.3282 32.75 78.0709 33.3667 79.8686 32.8045V30.4733C78.5273 30.6341 78.0441 30.1782 78.0441 29.0259V29.0231ZM75.0932 28.1924C75.0932 29.7741 73.7786 30.7376 72.3032 30.7376C70.9354 30.7376 70.1836 29.9335 70.1836 28.9155C70.1836 27.8163 71.0418 27.0122 73.0536 27.0122C73.6163 27.0122 74.315 27.0653 75.0918 27.1996V28.191L75.0932 28.1924Z" fill="white"/>
<path d="M45.6373 17.2594C46.7632 17.2594 47.6755 16.3716 47.6755 15.2765C47.6755 14.1813 46.7632 13.2935 45.6373 13.2935C44.5117 13.2935 43.5991 14.1813 43.5991 15.2765C43.5991 16.3716 44.5117 17.2594 45.6373 17.2594Z" fill="white"/>
<path d="M52.8268 21.2789V19.4833H49.6618V32.8818H52.8268V26.1819C52.8268 23.4479 54.0882 22.0285 56.5564 22.0285C57.1191 22.0285 57.6832 22.1082 58.3009 22.297V19.591C57.6832 19.4036 57.1473 19.2959 56.53 19.2959C54.8932 19.2959 53.66 20.0189 52.8282 21.2789H52.8268Z" fill="white"/>
<path d="M66.4823 22.1639L67.5282 19.4844H62.645V15.4653L59.4796 16.4037V28.7841C59.4796 31.7055 61.3573 33.1529 63.9064 33.1529C64.8191 33.1529 65.6227 32.9655 66.2668 32.697V30.0441C65.6759 30.2049 65.0332 30.3126 64.4427 30.3126C63.1282 30.3126 62.645 29.777 62.645 28.0346V22.1653H66.4809L66.4823 22.1639Z" fill="white"/>
<path d="M25.3144 24.4515C23.7759 23.9565 23.0423 23.123 22.7035 21.8588C22.3648 20.5932 22.5818 19.5052 23.6667 18.3096C23.7003 18.2732 23.6667 18.2159 23.6191 18.2257C22.04 18.5655 20.9872 18.2103 20.0605 17.2845C19.1337 16.3587 18.7781 15.3071 19.1183 13.7297C19.1281 13.6821 19.0721 13.6486 19.0343 13.6821C17.8374 14.7659 16.7468 14.9827 15.4813 14.6442C14.2143 14.3058 13.38 13.573 12.8858 12.0361C12.8704 11.9886 12.8046 11.9886 12.7892 12.0361C12.2937 13.573 11.4593 14.3058 10.1938 14.6442C8.92684 14.9827 7.83766 14.7659 6.64075 13.6821C6.60434 13.6486 6.54693 13.6821 6.55675 13.7297C6.89693 15.3071 6.54134 16.3587 5.61457 17.2845C4.68784 18.2103 3.63509 18.5655 2.05596 18.2257C2.00837 18.2159 1.97477 18.2718 2.00837 18.3096C3.09331 19.5052 3.3103 20.5946 2.97152 21.8588C2.63274 23.1244 1.89917 23.9579 0.360649 24.4515C0.313052 24.4669 0.313052 24.5326 0.360649 24.548C1.89917 25.0431 2.63274 25.8766 2.97152 27.1408C3.3103 28.4063 3.09331 29.4943 2.00837 30.69C1.97477 30.7263 2.00837 30.7837 2.05596 30.7739C3.63509 30.4341 4.68784 30.7893 5.61457 31.715C6.54134 32.6409 6.89693 33.6925 6.55675 35.2699C6.54693 35.3175 6.60293 35.351 6.64075 35.3175C7.83766 34.2337 8.9282 34.0169 10.1938 34.3553C11.4607 34.6938 12.2951 35.4265 12.7892 36.9634C12.8046 37.011 12.8704 37.011 12.8858 36.9634C13.3814 35.4265 14.2157 34.6938 15.4813 34.3553C16.7482 34.0169 17.8374 34.2337 19.0343 35.3175C19.0707 35.351 19.1281 35.3175 19.1183 35.2699C18.7781 33.6925 19.1337 32.6409 20.0605 31.715C20.9872 30.7893 22.04 30.4341 23.6191 30.7739C23.6667 30.7837 23.7003 30.7278 23.6667 30.69C22.5818 29.4943 22.3648 28.405 22.7035 27.1408C23.0423 25.8751 23.7759 25.0417 25.3144 24.548C25.362 24.5326 25.362 24.4669 25.3144 24.4515ZM14.9983 32.5499C10.5465 33.7414 5.97157 31.1025 4.77884 26.6555C3.58609 22.2084 6.22775 17.6383 10.6795 16.4468C15.1313 15.2554 19.7063 17.8942 20.899 22.3413C22.0917 26.7884 19.4501 31.3584 14.9983 32.5499Z" fill="white"/>
</g>
</g>
<defs>
<clipPath id="clip0_1231_351">
<rect width="80" height="49" fill="white"/>
</clipPath>
<clipPath id="clip1_1231_351">
<rect width="80" height="25" fill="white" transform="translate(0 12)"/>
</clipPath>
</defs>
</svg>
