<svg width="115" height="49" viewBox="0 0 115 49" fill="none" xmlns="http://www.w3.org/2000/svg">
<g clip-path="url(#clip0)">
<g clip-path="url(#clip1)">
<path d="M6.67627 28.7703C4.38019 28.7703 3.04845 26.9794 3.04845 24.9588C3.04845 22.6168 4.56387 21.0555 6.67627 21.0555C7.77839 21.0555 8.51314 21.5147 9.20197 21.928L10.3041 19.9533C9.52342 19.4482 8.19169 18.8512 6.81404 18.8512C3.18622 18.8512 0.56868 21.4228 0.56868 24.9588C0.56868 28.4489 3.23214 31.0664 6.81404 31.0664C8.32946 31.0664 9.43158 30.4235 10.3041 29.9184L9.20197 27.9437C8.51314 28.4029 7.50286 28.7703 6.67627 28.7703ZM14.437 13.4784H16.7791V30.745H14.437V13.4784ZM30.2801 19.2186L30.0045 20.2289C29.3616 19.54 28.0299 18.8512 26.6063 18.8512C23.7132 18.8512 21.0498 21.1473 21.0498 24.867C21.0498 28.7244 23.7132 31.0664 26.6063 31.0664C28.0299 31.0664 29.3157 30.3776 30.0045 29.6888L30.2801 30.745H32.2547V19.2645H30.2801V19.2186ZM30.0504 25.0507C30.0504 27.6682 28.4432 28.8622 26.9278 28.8622C25.3664 28.8622 23.5755 27.806 23.5755 24.9129C23.5755 23.076 24.5398 21.1014 26.7441 21.1014C28.3973 21.1014 30.0504 22.4331 30.0504 24.9129V25.0507ZM40.6124 25.9691C42.2197 26.3824 42.9085 26.7038 42.9085 27.5304C42.9085 28.1733 42.3575 28.8162 41.0717 28.8162C39.8777 28.8162 38.9133 28.4029 37.9949 27.8978L36.9387 29.8724C37.7653 30.3776 39.5562 31.0664 41.0717 31.0664C43.6433 31.0664 45.1587 29.3214 45.1587 27.5764C45.1587 24.5455 42.1738 24.0863 41.3931 23.8108C39.7399 23.3516 39.3266 23.0301 39.3266 22.3413C39.3266 21.6065 39.9695 21.1014 41.1635 21.1014C42.2197 21.1014 43.0004 21.4228 43.7351 21.7902L44.8372 19.8156C43.781 19.3564 42.5412 18.8971 41.1635 18.8971C38.6378 18.8971 37.1224 20.6881 37.1224 22.3413C37.0765 24.9588 39.3266 25.6476 40.6124 25.9691ZM53.1491 25.9691C54.7563 26.3824 55.4452 26.7038 55.4452 27.5304C55.4452 28.1733 54.8941 28.8162 53.6083 28.8162C52.4143 28.8162 51.45 28.4029 50.5315 27.8978L49.4753 29.8724C50.3019 30.3776 52.0929 31.0664 53.6083 31.0664C56.1799 31.0664 57.6953 29.3214 57.6953 27.5764C57.6953 24.5455 54.7104 24.0863 53.9298 23.8108C52.2766 23.3516 51.8633 23.0301 51.8633 22.3413C51.8633 21.6065 52.5062 21.1014 53.7001 21.1014C54.7563 21.1014 55.537 21.4228 56.2718 21.7902L57.3739 19.8156C56.3177 19.3564 55.0778 18.8971 53.7001 18.8971C51.1744 18.8971 49.659 20.6881 49.659 22.3413C49.6131 24.9588 51.8633 25.6476 53.1491 25.9691ZM67.844 18.8512C66.4205 18.8512 65.1347 19.54 64.4458 20.2289L64.1703 19.1727H62.1957V35.5208H64.3999V29.8265L64.4918 29.7806C65.1347 30.4694 66.4205 31.0205 67.6604 31.0205C70.6453 31.0205 73.4006 29.0918 73.4006 24.821C73.4465 20.9636 70.783 18.8512 67.844 18.8512ZM67.5685 28.8622C66.0531 28.8622 64.4458 27.6682 64.4458 25.0507V24.9129C64.4458 22.3872 66.099 21.1014 67.7522 21.1014C69.9564 21.1014 70.9208 23.076 70.9208 24.9129C70.9208 27.806 69.1299 28.8622 67.5685 28.8622ZM86.4883 19.2186L86.2127 20.2748C85.5698 19.586 84.2381 18.8971 82.8145 18.8971C79.9215 18.8971 77.258 21.1932 77.258 24.9129C77.258 28.7703 79.9215 31.1123 82.8145 31.1123C84.2381 31.1123 85.5239 30.4235 86.2127 29.7347L86.4883 30.7909H88.4629V19.3104H86.4883V19.2186ZM86.2587 25.0507C86.2587 27.6682 84.6514 28.8622 83.136 28.8622C81.5746 28.8622 79.7837 27.806 79.7837 24.9129C79.7837 23.076 80.7481 21.1014 82.9523 21.1014C84.6055 21.1014 86.2587 22.4331 86.2587 24.9129V25.0507ZM96.8207 25.9691C98.4279 26.3824 99.1168 26.7038 99.1168 27.5304C99.1168 28.1733 98.5657 28.8162 97.2799 28.8162C96.0859 28.8162 95.1216 28.4029 94.2031 27.8978L93.1469 29.8724C93.9735 30.3776 95.7645 31.0664 97.2799 31.0664C99.8515 31.0664 101.367 29.3214 101.367 27.5764C101.367 24.5455 98.382 24.0863 97.6013 23.8108C95.9482 23.3516 95.5349 23.0301 95.5349 22.3413C95.5349 21.6065 96.1778 21.1014 97.3717 21.1014C98.4279 21.1014 99.2086 21.4228 99.9434 21.7902L101.045 19.8156C99.9893 19.3564 98.7494 18.8971 97.3717 18.8971C94.846 18.8971 93.3306 20.6881 93.3306 22.3413C93.2847 24.9588 95.5349 25.6476 96.8207 25.9691ZM109.357 25.9691C110.965 26.3824 111.653 26.7038 111.653 27.5304C111.653 28.1733 111.102 28.8162 109.817 28.8162C108.623 28.8162 107.658 28.4029 106.74 27.8978L105.684 29.8724C106.51 30.3776 108.301 31.0664 109.817 31.0664C112.388 31.0664 113.904 29.3214 113.904 27.5764C113.904 24.5455 110.919 24.0863 110.138 23.8108C108.485 23.3516 108.071 23.0301 108.071 22.3413C108.071 21.6065 108.714 21.1014 109.908 21.1014C110.965 21.1014 111.745 21.4228 112.48 21.7902L113.582 19.8156C112.526 19.3564 111.286 18.8971 109.908 18.8971C107.383 18.8971 105.867 20.6881 105.867 22.3413C105.821 24.9588 108.071 25.6476 109.357 25.9691Z" fill="white"/>
</g>
</g>
<defs>
<clipPath id="clip0">
<rect width="113.886" height="48.8083" fill="white" transform="translate(0.15535 0.191696)"/>
</clipPath>
<clipPath id="clip1">
<rect width="113.886" height="22.0424" fill="white" transform="translate(0.155289 13.4784)"/>
</clipPath>
</defs>
</svg>
