<svg width="24" height="24" viewBox="0 0 24 24" fill="none" xmlns="http://www.w3.org/2000/svg">
<path d="M20.2801 5.73662C20.2731 5.72959 18.8481 7.13819 16.0121 9.96944L14.0223 7.97959L18.2621 3.73975C16.0309 2.39678 13.1645 2.74131 11.3059 4.59991C10.5954 5.30996 10.0842 6.19434 9.82335 7.16434C9.56254 8.13434 9.56137 9.15587 9.81994 10.1265L9.86213 10.2835L3.2176 16.9257C3.07228 17.071 3.07228 17.3101 3.2176 17.4554L6.53166 20.7694C6.67697 20.9147 6.91603 20.9147 7.06135 20.7694L13.7012 14.1296L13.8582 14.1718C15.8199 14.6944 17.927 14.1507 19.3895 12.6882C21.2504 10.8296 21.5949 7.96319 20.2801 5.73662V5.73662Z" fill="#6A7FDB"/>
</svg>
