<svg width="130" height="49" viewBox="0 0 130 49" fill="none" xmlns="http://www.w3.org/2000/svg">
<g clip-path="url(#clip0_409_105)">
<path fill-rule="evenodd" clip-rule="evenodd" d="M18.9679 16.4759V16.6515C19.4846 16.7706 19.9377 17.0692 20.2409 17.4902C20.5552 18.0213 20.7049 18.6283 20.672 19.2392C20.6716 20.0419 20.5444 20.84 20.2948 21.6058C20.0014 22.4996 19.6342 23.3693 19.1969 24.2065L18.685 25.2922L16.1658 19.3887C16.0426 19.1075 15.9391 18.8186 15.856 18.524C15.79 18.2991 15.7493 18.068 15.7347 17.8348C15.722 17.5399 15.8312 17.2521 16.0384 17.035C16.2457 16.8179 16.5338 16.6893 16.8394 16.6775V16.5019H9.24145V16.6775C9.49997 16.7231 9.7498 16.8064 9.98238 16.9245C10.2197 17.0786 10.4196 17.2805 10.5684 17.5162C10.8308 17.9145 11.0562 18.3344 11.242 18.771L12.4275 21.5017L10.2855 25.5913L7.09275 18.4394C7.01057 18.2965 6.94289 18.1463 6.89067 17.9908C6.86344 17.8777 6.84765 17.7623 6.84352 17.6462C6.8418 17.4285 6.92334 17.2179 7.07254 17.0546C7.25666 16.8627 7.48852 16.7195 7.74611 16.6385V16.4759H0V16.6515C0.629951 16.8371 1.20032 17.1751 1.65699 17.6332C2.25633 18.2987 2.74695 19.0485 3.11192 19.8568L8.01554 30.3766H8.21762L12.6363 21.9244L16.415 30.3766H16.6171L21.1098 21.0141C21.5859 19.9479 22.187 18.9378 22.9016 18.0038C23.3683 17.4184 23.9703 16.9464 24.6596 16.6255V16.4564H18.9679V16.4759Z" fill="white"/>
<path d="M31.3212 25.9424C30.8363 27.1452 29.7653 27.7369 28.0746 27.7369C27.1572 27.7836 26.2643 27.4417 25.6295 26.8006C24.9814 26.0452 24.652 25.0818 24.7067 24.1024H31.4425V23.9789C31.4534 23.1995 31.2185 22.4353 30.7689 21.7878C30.3087 21.1622 29.6861 20.6645 28.9637 20.3444C28.1712 19.9958 27.3087 19.8204 26.4378 19.8308C25.4687 19.8187 24.512 20.0423 23.6559 20.481C22.8213 20.9081 22.1228 21.5464 21.6352 22.3274C21.1153 23.1719 20.8537 24.1412 20.8808 25.1232C20.8606 26.0326 21.0932 26.9306 21.5544 27.7239C22.0087 28.4823 22.6705 29.1054 23.4673 29.5248C24.3199 29.9723 25.279 30.1965 26.2492 30.175C27.4848 30.2307 28.6997 29.8544 29.671 29.1152C30.6452 28.3115 31.2999 27.206 31.5233 25.9879L31.3212 25.9424ZM25.1445 21.0856C25.3028 20.5182 25.8357 20.1237 26.4445 20.1234C26.6294 20.1242 26.8116 20.1665 26.9767 20.2469C27.1498 20.3389 27.2922 20.4764 27.3876 20.6435C27.4927 20.8048 27.5786 20.9771 27.6435 21.1571C27.7297 21.4142 27.7818 21.6807 27.7984 21.9503C27.7984 22.2689 27.8456 22.711 27.8456 23.2507V23.7448H24.7067C24.7093 23.234 24.743 22.7239 24.8078 22.2169C24.8828 21.8219 24.9955 21.4345 25.1445 21.0596V21.0856Z" fill="white"/>
<path d="M43.3446 28.5756C43.2796 28.6304 43.195 28.6584 43.1088 28.6536H42.8798C42.6603 28.6575 42.4562 28.5453 42.3477 28.3611C42.1929 27.9947 42.1306 27.598 42.1658 27.2038V22.49C42.2259 21.7428 41.9846 21.002 41.4923 20.4225C40.9485 19.9327 40.211 19.6954 39.4715 19.7723C38.6539 19.7858 37.8405 19.8883 37.0467 20.0779C36.1451 20.2738 35.2703 20.5705 34.4399 20.9621C33.7629 21.2331 33.1524 21.6385 32.6482 22.1519C32.2956 22.5022 32.0873 22.9645 32.0622 23.4523C32.046 23.8329 32.2036 24.2013 32.4933 24.46C32.8145 24.7204 33.2263 24.8529 33.6451 24.8306C34.153 24.8171 34.6357 24.6144 34.9923 24.265C35.4231 23.8298 35.6454 23.2403 35.6052 22.6396V22.295C35.5722 21.7913 35.7275 21.293 36.043 20.8906C36.2953 20.5846 36.6821 20.4111 37.0871 20.4225C37.3763 20.4097 37.6621 20.4872 37.9021 20.6435C38.1597 20.8393 38.3345 21.119 38.3938 21.4302C38.5111 21.9489 38.5631 22.4794 38.5487 23.0102V24.0439C37.5047 24.3365 36.528 24.6551 35.7399 24.9542C34.9454 25.2456 34.1694 25.5821 33.4161 25.9619C32.5718 26.3205 32.0144 27.1137 31.9814 28.0035C31.9729 28.619 32.2774 29.1996 32.7964 29.5574C33.4095 29.9692 34.1449 30.1769 34.8912 30.149C35.6598 30.1621 36.4209 30.0018 37.114 29.6809C37.6914 29.3841 38.1966 28.9718 38.5959 28.4716C38.6429 28.9403 38.86 29.3778 39.2088 29.7069C39.5796 30.0231 40.0615 30.1905 40.556 30.175C41.111 30.1827 41.6578 30.0457 42.1389 29.7784C42.6563 29.5127 43.0963 29.126 43.4187 28.6536L43.3446 28.5756ZM37.343 28.7512C36.5549 28.7512 36.1441 28.231 36.1441 27.1712C36.1363 26.5356 36.3768 25.9205 36.8176 25.4483C37.3123 24.9763 37.9143 24.6223 38.5757 24.4145V27.3533C38.6032 27.7256 38.4854 28.0943 38.2456 28.3871C38.0358 28.6398 37.7116 28.778 37.3767 28.7577L37.343 28.7512Z" fill="white"/>
<path fill-rule="evenodd" clip-rule="evenodd" d="M43.3446 29.6615C43.7051 29.6652 44.0417 29.4879 44.2337 29.1933C44.4694 28.6651 44.5666 28.089 44.5166 27.5159V19.2652C44.5778 18.5674 44.4355 17.867 44.1057 17.2432C43.8714 16.8619 43.4398 16.6348 42.9808 16.6515V16.4305C43.8295 16.2289 44.7187 16.0339 45.5876 15.7803C46.4565 15.5267 47.3254 15.3187 48.0865 15.0521V27.9125C48.0508 28.3575 48.1295 28.8042 48.3156 29.2129C48.4922 29.4548 48.7769 29.6018 49.0834 29.6095V29.8305H43.3446V29.6615Z" fill="white"/>
<path fill-rule="evenodd" clip-rule="evenodd" d="M50.9223 29.6094C50.4451 29.0821 50.2137 28.3884 50.2824 27.6914V20.9101H48.7265L48.6793 20.7411C49.3004 20.4452 49.8893 20.0901 50.4374 19.6813C51.0719 19.1975 51.6768 18.6786 52.2493 18.1274C52.8108 17.5812 53.3308 16.9967 53.8052 16.3784L53.9871 16.4304V20.0519H56.3311L55.826 20.8906H53.9871V27.0217C53.9531 27.4715 54.0487 27.9215 54.2633 28.3221C54.4439 28.5731 54.7415 28.7216 55.0581 28.7187C55.2302 28.7097 55.4013 28.6879 55.57 28.6536C55.7349 28.6196 55.8908 28.5532 56.028 28.4586L56.156 28.6341C55.6184 29.0751 55.0362 29.4629 54.4182 29.7914C53.8884 30.0516 53.3017 30.1854 52.7073 30.1816C52.0595 30.2189 51.4212 30.0166 50.9223 29.6159V29.6094Z" fill="white"/>
<path fill-rule="evenodd" clip-rule="evenodd" d="M67.4114 29.2388C67.243 28.7557 67.1743 28.2454 67.2093 27.7369V22.5875C67.2093 20.741 66.4145 19.8048 64.8585 19.8048C64.4431 19.7964 64.029 19.8535 63.6326 19.9738C63.2004 20.1218 62.7886 20.3205 62.4067 20.5655C62.0025 20.8385 61.4906 21.2156 60.9046 21.6773V15.0975C60.0829 15.3446 59.2746 15.5917 58.4259 15.8127C57.5772 16.0338 56.715 16.2548 55.772 16.4629V16.684C56.2309 16.6672 56.6626 16.8943 56.8968 17.2756C57.2134 17.9013 57.3528 18.5966 57.301 19.2911V27.3533C57.3556 27.9749 57.2515 28.5999 56.9979 29.1737C56.7949 29.4866 56.4372 29.674 56.0549 29.6679V29.8889H61.8746V29.6679C61.568 29.662 61.2869 29.5016 61.1336 29.2453C60.9394 28.7681 60.8611 28.2543 60.9046 27.7434V22.0219C61.1563 21.8082 61.4402 21.6328 61.7466 21.5017C61.9824 21.3836 62.2423 21.317 62.5077 21.3067C62.8498 21.2992 63.1703 21.4675 63.3497 21.7488C63.5965 22.2116 63.7038 22.7319 63.6595 23.2507V27.7369C63.6678 28.1326 63.6431 28.5283 63.5854 28.9202C63.5621 29.1272 63.4616 29.319 63.3025 29.4598C63.1316 29.5805 62.928 29.6505 62.7165 29.6614V29.8824H68.1523V29.6614C67.8437 29.6622 67.5595 29.5 67.4114 29.2388V29.2388Z" fill="white"/>
<path fill-rule="evenodd" clip-rule="evenodd" d="M72.0322 30.032C71.5472 29.928 71.0892 29.8564 70.685 29.7849C70.3325 29.7134 69.9741 29.6721 69.614 29.6614C69.4515 29.6659 69.2895 29.6812 69.1291 29.7069C68.9974 29.7476 68.8691 29.7976 68.7451 29.8564V25.3052L68.9539 25.2532C69.5545 26.1892 70.2301 27.0784 70.9747 27.9124C71.4503 28.4685 72.0196 28.9432 72.6586 29.3168C73.1227 29.581 73.649 29.7264 74.1876 29.7394C74.5762 29.7737 74.9632 29.6593 75.2653 29.4208C75.4918 29.198 75.6115 28.8939 75.5954 28.5821C75.6129 28.1883 75.4445 27.8081 75.1373 27.5483C74.6348 27.1875 74.0784 26.9025 73.4871 26.7031L72.0052 26.1375C71.0881 25.8345 70.2397 25.3644 69.5063 24.7526C69.0297 24.2889 68.7715 23.6565 68.7923 23.0036C68.7739 22.4242 68.9434 21.8536 69.2772 21.3717C69.6257 20.8662 70.11 20.4617 70.6783 20.2014C71.3653 19.8931 72.1167 19.7419 72.8741 19.7593C73.3253 19.7541 73.776 19.7867 74.2213 19.8568C74.6524 19.9348 75.0633 19.9803 75.3933 20.0584C75.7234 20.1364 76.0063 20.1559 76.1881 20.1559C76.3067 20.1698 76.4266 20.1698 76.5451 20.1559L76.7741 20.0844L77.057 23.7773L76.8752 23.8294C76.247 22.8014 75.474 21.8627 74.5783 21.0401C74.0312 20.5322 73.3151 20.2281 72.5576 20.1819C72.1872 20.1618 71.8222 20.2754 71.5337 20.5005C71.2638 20.7105 71.1116 21.0307 71.1228 21.3652C71.1045 21.7271 71.2553 22.0779 71.5337 22.321C71.9304 22.637 72.3883 22.8736 72.8809 23.0166L74.6389 23.5823C75.5178 23.8125 76.3309 24.2327 77.0166 24.8111C77.4988 25.2819 77.7573 25.9246 77.7306 26.5861C77.7747 27.5879 77.3521 28.5562 76.5788 29.2258C75.7052 29.896 74.6084 30.2358 73.4938 30.1815C72.9966 30.1738 72.5009 30.126 72.012 30.0385L72.0322 30.032Z" fill="white"/>
<path fill-rule="evenodd" clip-rule="evenodd" d="M80.6606 19.1611C81.2426 19.1772 81.8061 18.9625 82.2197 18.5669C82.6333 18.1714 82.861 17.6295 82.8497 17.0676C82.8354 16.5392 82.6195 16.0344 82.2435 15.6502C81.8425 15.2167 81.2622 14.9783 80.6606 15C80.2882 14.996 79.9228 15.0977 79.6098 15.2926C79.2833 15.4833 79.0086 15.7463 78.8083 16.0598C78.6114 16.362 78.5042 16.7106 78.4984 17.0676C78.5033 17.6298 78.7468 18.1656 79.172 18.55C79.5584 18.9449 80.0979 19.1664 80.6606 19.1611V19.1611Z" fill="white"/>
<path fill-rule="evenodd" clip-rule="evenodd" d="M101.562 29.2648C101.371 28.846 101.292 28.3877 101.333 27.9319V22.5875C101.333 20.741 100.545 19.8048 98.9886 19.8048C98.5543 19.8072 98.1228 19.873 97.7088 19.9998C97.2555 20.1591 96.8272 20.3778 96.4358 20.65C95.9678 20.9454 95.518 21.2666 95.0886 21.6123C95.0283 21.1494 94.8019 20.7215 94.4487 20.403C93.9746 20.0097 93.3622 19.8072 92.7379 19.8373C92.0362 19.8434 91.3452 20.0035 90.7171 20.3054C90.0518 20.6065 89.4421 21.0106 88.912 21.5017V19.8048C88.427 19.9738 87.8881 20.1754 87.3021 20.3444C86.7161 20.5135 86.1301 20.715 85.5441 20.8906C84.9581 21.0661 84.4731 21.1832 84.0622 21.2807V21.5017C84.4601 21.5089 84.8263 21.7126 85.0322 22.0414C85.2613 22.6395 85.3577 23.2775 85.3151 23.9139V27.9319C85.3607 28.3965 85.2236 28.8607 84.9311 29.2323C84.6896 29.4734 84.3557 29.6075 84.0083 29.6029C83.6431 29.6307 83.285 29.4939 83.0384 29.2323C82.7786 28.8476 82.6622 28.389 82.7083 27.9319V19.7333C81.9202 20.0259 81.0985 20.2989 80.2363 20.546C79.3741 20.7931 78.4715 21.0336 77.5757 21.2352V21.4302C78.067 21.4312 78.5229 21.6771 78.7814 22.0804C79.0563 22.6948 79.1786 23.3628 79.1384 24.0309V27.2818C79.1758 27.8946 79.0794 28.5082 78.8555 29.0827C78.6642 29.4255 78.2887 29.6344 77.8855 29.6224V29.8434H89.8819V29.6224C89.5781 29.5915 89.3054 29.4288 89.141 29.1803C88.9538 28.7719 88.8751 28.325 88.912 27.8799V21.9244C89.1072 21.7392 89.3354 21.5895 89.5855 21.4822C89.832 21.363 90.1046 21.3028 90.3803 21.3067C90.734 21.2826 91.0737 21.444 91.2695 21.7293C91.4965 22.198 91.5939 22.7154 91.5524 23.2312V27.9124C91.5913 28.3576 91.5125 28.805 91.3234 29.2128C91.1646 29.4474 90.8993 29.5948 90.6094 29.6094V29.8304H96.1192V29.6094C95.8173 29.5922 95.5386 29.447 95.3581 29.2128C95.1853 28.7825 95.114 28.3206 95.1493 27.8604V21.8983C95.3722 21.7066 95.611 21.5326 95.8633 21.3782C96.104 21.2395 96.3778 21.1634 96.6581 21.1572C97.0019 21.1497 97.3233 21.321 97.5 21.6058C97.7438 22.095 97.8484 22.638 97.8031 23.1792V27.8604C97.8454 28.3202 97.7857 28.7835 97.628 29.2193C97.4578 29.4643 97.1651 29.6031 96.8601 29.5834V29.8044H102.383V29.5834C102.066 29.6689 101.729 29.5382 101.562 29.2648V29.2648Z" fill="white"/>
<path d="M113.585 22.6396C113.468 22.0676 113.204 21.5332 112.817 21.0857C112.168 20.2504 111.144 19.7666 110.062 19.7853C109.492 19.7746 108.927 19.8833 108.405 20.1039C107.896 20.3369 107.422 20.6366 106.997 20.9946V19.7788C106.512 19.9544 105.953 20.1234 105.367 20.325C104.781 20.5265 104.168 20.689 103.555 20.8646C102.942 21.0401 102.404 21.1832 101.898 21.3067V21.5018C102.219 21.5338 102.529 21.6242 102.815 21.7683C103.063 21.9468 103.228 22.2135 103.273 22.5095C103.388 22.969 103.44 23.4412 103.427 23.9139V30.7407C103.45 31.3032 103.389 31.866 103.246 32.4116C103.172 32.741 102.973 33.0314 102.687 33.2243C102.397 33.3856 102.076 33.4874 101.744 33.5234V33.7445H108.58V33.5234C108.122 33.5238 107.682 33.3457 107.361 33.0293C107.07 32.5457 106.943 31.9866 106.997 31.4299V29.5639C107.231 29.7351 107.493 29.8669 107.772 29.954C108.169 30.0711 108.583 30.1303 108.998 30.1295C109.635 30.1289 110.265 30.012 110.857 29.7849C111.436 29.5446 111.959 29.1929 112.393 28.7512C112.858 28.2486 113.213 27.6603 113.437 27.0217C113.708 26.2942 113.843 25.5258 113.834 24.7526C113.836 24.0324 113.75 23.3144 113.578 22.6136L113.585 22.6396ZM109.422 28.4911C109.19 29.082 108.621 29.4866 107.967 29.5249C107.75 29.5256 107.534 29.4836 107.334 29.4013C107.203 29.3372 107.082 29.2538 106.977 29.1543V21.3522C107.311 21.0663 107.731 20.8908 108.176 20.8516C108.708 20.8516 109.146 21.1962 109.523 21.8594C109.933 22.8794 110.107 23.9731 110.035 25.0647C110.035 26.6641 109.853 27.8019 109.442 28.4911H109.422Z" fill="white"/>
<path fill-rule="evenodd" clip-rule="evenodd" d="M113.713 29.6614C114.076 29.6661 114.415 29.4889 114.609 29.1933C114.838 28.6633 114.933 28.0882 114.885 27.5158V19.2651C114.944 18.5681 114.805 17.8688 114.481 17.2431C114.247 16.8618 113.815 16.6347 113.356 16.6515V16.4304C114.198 16.2288 115.094 16.0338 115.963 15.7802C116.832 15.5267 117.694 15.3121 118.462 15.0455V27.9124C118.423 28.3576 118.502 28.805 118.691 29.2128C118.867 29.4547 119.152 29.6017 119.459 29.6094V29.8304H113.713V29.6614Z" fill="white"/>
<path d="M129.771 25.9424C129.286 27.1453 128.188 27.7369 126.524 27.7369C125.608 27.7785 124.717 27.4374 124.079 26.8007C123.427 26.0489 123.105 25.0803 123.183 24.1025H129.919V23.9789C129.926 23.2 129.692 22.4369 129.246 21.7879C128.785 21.1646 128.169 20.6637 127.454 20.3315C125.754 19.5977 123.799 19.6528 122.146 20.481C121.311 20.9076 120.612 21.546 120.125 22.3275C119.603 23.1668 119.337 24.1314 119.358 25.1102C119.337 26.0196 119.57 26.9177 120.031 27.7109C120.488 28.4696 121.152 29.0926 121.951 29.5119C122.803 29.9602 123.762 30.1844 124.733 30.1621C125.974 30.2172 127.195 29.8413 128.175 29.1023C129.135 28.2971 129.78 27.1975 130 25.988L129.771 25.9424ZM123.594 21.0857C123.768 20.5283 124.292 20.1407 124.894 20.1234C125.079 20.1242 125.261 20.1665 125.426 20.2469C125.6 20.339 125.742 20.4765 125.837 20.6436C125.943 20.8049 126.028 20.9772 126.093 21.1572C126.179 21.4142 126.232 21.6807 126.248 21.9504C126.248 22.269 126.295 22.7111 126.295 23.2507V23.7449H123.157C123.159 23.2341 123.193 22.7239 123.258 22.217C123.333 21.822 123.445 21.4346 123.594 21.0597V21.0857Z" fill="white"/>
</g>
<defs>
<clipPath id="clip0_409_105">
<rect width="130" height="18.855" fill="white" transform="translate(0 15)"/>
</clipPath>
</defs>
</svg>
