<svg width="87" height="50" viewBox="0 0 87 50" fill="none" xmlns="http://www.w3.org/2000/svg">
<g clip-path="url(#clip0_1005_351)">
<g clip-path="url(#clip1_1005_351)">
<path fill-rule="evenodd" clip-rule="evenodd" d="M0.239746 44.4543V20.5363L86.4402 5.5V29.5063L0.239746 44.4543ZM77.5827 12.2413L75.579 17.1766L73.5984 12.9395L68.7411 13.7916L73.3849 21.2432V22.918L67.2837 23.9894V14.0453L62.9126 14.8138V28.3962L73.3849 26.559L77.0785 25.914L77.7761 25.7881V20.4733L82.437 11.3897L77.5827 12.2413ZM57.2465 23.3985C57.2465 23.3985 57.1492 21.938 57.1492 20.9537V20.9528V15.8341L61.4231 15.0859V28.6699L56.8586 29.4701L52.7786 22.6065C52.7786 22.6065 52.8747 24.0669 52.8747 25.0506V30.1693L48.6 30.919V17.334L53.3601 16.4991L57.2465 23.3985ZM43.1446 18.2958L42.72 18.3699V30.1115L38.6909 19.0757L33.8325 19.9282L29.7806 32.4407L27.8102 29.4113L27.8199 29.4037C28.4115 28.9409 30.0435 27.6641 30.0435 24.9242C30.0435 23.4474 29.3644 22.3852 28.3934 21.8658C27.4201 21.3462 26.1573 21.2752 24.5063 21.562L18.6772 22.5855V36.1705L23.0681 35.3998V30.8721L23.6324 30.7725L25.7702 34.927L29.1697 34.3276L30.8211 34.0383L33.7354 33.5294L34.2411 31.5303L38.0693 30.8607L38.5942 32.6787L42.7198 31.9552V31.957L47.1113 31.186V17.598L43.1444 18.2916V18.2936L43.1446 18.2958ZM25.1287 26.9256C24.9546 27.097 24.6431 27.2495 24.1581 27.3331L23.0501 27.5283V25.1647L24.1581 24.9728C24.6431 24.887 24.935 24.9327 25.1287 25.057L25.1372 25.0614C25.332 25.1642 25.6148 25.3134 25.6148 25.8989C25.6148 26.4865 25.3416 26.7332 25.1292 26.9251L25.1287 26.9256ZM35.174 27.9605L36.1639 24.1459L37.156 27.6136L35.1734 27.9609L35.174 27.9605ZM15.2767 29.6393C16.1519 29.1325 17.1618 27.872 17.1618 26.2969C17.1618 24.7205 16.1519 23.9149 15.1798 23.6917C14.209 23.4685 12.9459 23.5928 11.7799 23.7946L4.97377 24.9802V28.1895L6.24212 27.9756V35.1407L4.97377 35.3544V38.564L12.8489 37.1906C14.1121 36.9709 15.4715 36.4383 16.3445 35.6926C17.2196 34.9511 17.8439 33.9551 17.8439 32.3807C17.8439 30.8055 16.8305 29.801 15.2759 29.6405L15.2767 29.6393ZM10.6139 27.2089L11.4885 27.0552L11.4936 27.0543C11.9765 26.9702 12.17 26.9365 12.4599 27.0829C12.7514 27.2283 12.8489 27.4484 12.8489 27.8025C12.8489 28.1362 12.7514 28.3887 12.4599 28.6394C12.169 28.8858 11.9752 28.9397 11.4885 29.025L10.6139 29.177V27.2089ZM13.0435 33.6145C12.7516 33.8625 12.5577 33.9564 12.0722 34.0411L10.6142 34.2957V32.1309L12.0722 31.8772C12.5577 31.7904 12.7517 31.7956 13.0435 31.941C13.3338 32.0857 13.4319 32.3661 13.4319 32.7193C13.4319 33.0514 13.3337 33.3642 13.043 33.6141L13.0435 33.6145Z" fill="white"/>
</g>
</g>
<defs>
<clipPath id="clip0_1005_351">
<rect width="86" height="50" fill="white" transform="translate(0.239746)"/>
</clipPath>
<clipPath id="clip1_1005_351">
<rect width="86" height="39" fill="white" transform="translate(0.239746 5.5)"/>
</clipPath>
</defs>
</svg>
