<svg width="600" height="600" viewBox="0 0 600 600" fill="none" xmlns="http://www.w3.org/2000/svg">
<g clip-path="url(#clip0_3_248)">
<g opacity="0.5" clip-path="url(#clip1_3_248)">
<g clip-path="url(#clip2_3_248)">
<path d="M237.269 197.085H362.732C384.937 197.085 402.917 215.062 402.942 237.271V362.732C402.942 384.937 384.939 402.915 362.758 402.915H237.269C215.061 402.915 197.085 384.937 197.085 362.758V237.268C197.085 215.062 215.062 197.085 237.269 197.085Z" stroke="#262626" stroke-width="4.67797"/>
<path d="M297.069 244.262L299.083 247.822L301.131 244.282L305.394 236.914L305.4 236.903C307.38 233.438 311.811 232.247 315.312 234.248C318.775 236.227 319.966 240.655 317.969 244.155C317.969 244.157 317.968 244.158 317.967 244.159L276.897 315.249L274.869 318.76H278.923H308.631C312.434 318.76 315.469 320.971 317.167 324.158C318.665 326.968 319.006 330.339 317.958 333.236H232.375C228.352 333.236 225.136 330.021 225.136 325.998C225.136 321.975 228.352 318.76 232.375 318.76H256.794H258.145L258.82 317.589L290.081 263.41L290.755 262.241L290.082 261.072L280.323 244.133C280.323 244.132 280.322 244.131 280.322 244.13C278.332 240.645 279.499 236.256 282.987 234.217C286.471 232.232 290.854 233.398 292.893 236.882L297.069 244.262ZM359.859 353.001C361.85 356.486 360.683 360.876 357.194 362.915C353.709 364.901 349.322 363.732 347.284 360.243C338.53 345.062 330.994 332.014 324.679 321.081C319.639 312.356 315.377 304.977 311.895 298.937L311.892 298.931C305.474 287.862 308.669 276.894 312.782 271.532C317.992 280.489 325.035 292.688 333.94 308.11C335.702 311.161 337.536 314.339 339.444 317.643L340.12 318.812H341.471H366.389C370.412 318.812 373.628 322.027 373.628 326.05C373.628 330.073 370.412 333.289 366.389 333.289H352.549H348.499L350.521 336.797L359.858 352.999C359.859 352.999 359.859 353 359.859 353.001ZM250.925 360.247L250.92 360.255C248.94 363.72 244.509 364.911 241.009 362.91C237.545 360.931 236.354 356.503 238.351 353.003C238.352 353.002 238.352 353 238.353 352.999L244.718 341.982C247.883 341.132 250.635 341.125 253.05 341.821C255.266 342.459 257.345 343.732 259.289 345.74L250.925 360.247Z" stroke="#262626" stroke-width="4.68"/>
</g>
</g>
<rect opacity="0.3" x="164.424" y="164.424" width="271.152" height="271.152" rx="72.5085" stroke="black" stroke-width="4.67797"/>
<rect opacity="0.3" x="134.172" y="134.172" width="331.656" height="331.656" rx="100.576" stroke="black" stroke-width="4.67797"/>
<rect opacity="0.3" x="103.92" y="103.92" width="392.159" height="392.159" rx="128.644" stroke="black" stroke-width="4.67797"/>
<rect opacity="0.3" x="73.6686" y="73.6685" width="452.663" height="452.663" rx="156.712" stroke="black" stroke-width="4.67797"/>
<rect opacity="0.3" x="43.4166" y="43.4166" width="513.167" height="513.167" rx="184.78" stroke="black" stroke-width="4.67797"/>
<rect opacity="0.3" x="13.1647" y="13.1647" width="573.671" height="573.671" rx="212.847" stroke="black" stroke-width="4.67797"/>
<rect opacity="0.3" x="-17.087" y="-17.0871" width="634.174" height="634.174" rx="212.847" stroke="black" stroke-width="4.67797"/>
<rect opacity="0.3" x="-47.339" y="-47.339" width="694.678" height="694.678" rx="212.847" stroke="black" stroke-width="4.67797"/>
</g>
<defs>
<clipPath id="clip0_3_248">
<rect width="600" height="600" rx="36" fill="white"/>
</clipPath>
<clipPath id="clip1_3_248">
<rect width="210.508" height="210.508" fill="white" transform="translate(194.746 194.746)"/>
</clipPath>
<clipPath id="clip2_3_248">
<rect width="210.508" height="210.508" fill="white" transform="translate(194.746 194.746)"/>
</clipPath>
</defs>
</svg>
