<svg width="32" height="32" viewBox="0 0 32 32" fill="none" xmlns="http://www.w3.org/2000/svg">
<path d="M29 5.03122H21.85C20.3157 5.03122 18.8157 5.47185 17.525 6.3031L16 7.28122L14.475 6.3031C13.1857 5.47201 11.684 5.0304 10.15 5.03122H3.00003C2.44691 5.03122 2.00003 5.4781 2.00003 6.03122V23.7812C2.00003 24.3343 2.44691 24.7812 3.00003 24.7812H10.15C11.6844 24.7812 13.1844 25.2218 14.475 26.0531L15.8625 26.9468C15.9032 26.9718 15.95 26.9875 15.9969 26.9875C16.0438 26.9875 16.0907 26.975 16.1313 26.9468L17.5188 26.0531C18.8125 25.2218 20.3157 24.7812 21.85 24.7812H29C29.5532 24.7812 30 24.3343 30 23.7812V6.03122C30 5.4781 29.5532 5.03122 29 5.03122ZM10.15 22.5312H4.25003V7.28122H10.15C11.2563 7.28122 12.3313 7.59685 13.2594 8.19372L14.7844 9.17185L15 9.31247V23.75C13.5125 22.95 11.85 22.5312 10.15 22.5312ZM27.75 22.5312H21.85C20.15 22.5312 18.4875 22.95 17 23.75V9.31247L17.2157 9.17185L18.7407 8.19372C19.6688 7.59685 20.7438 7.28122 21.85 7.28122H27.75V22.5312ZM12.4032 11.2812H6.59691C6.47503 11.2812 6.37503 11.3875 6.37503 11.5156V12.9218C6.37503 13.05 6.47503 13.1562 6.59691 13.1562H12.4C12.5219 13.1562 12.6219 13.05 12.6219 12.9218V11.5156C12.625 11.3875 12.525 11.2812 12.4032 11.2812ZM19.375 11.5156V12.9218C19.375 13.05 19.475 13.1562 19.5969 13.1562H25.4C25.5219 13.1562 25.6219 13.05 25.6219 12.9218V11.5156C25.6219 11.3875 25.5219 11.2812 25.4 11.2812H19.5969C19.475 11.2812 19.375 11.3875 19.375 11.5156ZM12.4032 15.6562H6.59691C6.47503 15.6562 6.37503 15.7625 6.37503 15.8906V17.2968C6.37503 17.425 6.47503 17.5312 6.59691 17.5312H12.4C12.5219 17.5312 12.6219 17.425 12.6219 17.2968V15.8906C12.625 15.7625 12.525 15.6562 12.4032 15.6562ZM25.4032 15.6562H19.5969C19.475 15.6562 19.375 15.7625 19.375 15.8906V17.2968C19.375 17.425 19.475 17.5312 19.5969 17.5312H25.4C25.5219 17.5312 25.6219 17.425 25.6219 17.2968V15.8906C25.625 15.7625 25.525 15.6562 25.4032 15.6562Z" fill="#6A7FDB"/>
</svg>
