<svg width="32" height="32" viewBox="0 0 32 32" fill="none" xmlns="http://www.w3.org/2000/svg">
<path d="M27.5 3.5C27.3813 3.5 27.2594 3.52188 27.1375 3.57188L9.12503 10.8094H4.00003C3.72503 10.8094 3.50003 11.0406 3.50003 11.3281V20.6719C3.50003 20.9594 3.72503 21.1906 4.00003 21.1906H7.17816C7.06253 21.5531 7.00003 21.9375 7.00003 22.3281C7.00003 24.3875 8.68128 26.0625 10.75 26.0625C12.4813 26.0625 13.9407 24.8875 14.3719 23.3L27.1407 28.4312C27.2625 28.4781 27.3844 28.5031 27.5032 28.5031C28.0313 28.5031 28.5032 28.0594 28.5032 27.4656V4.5375C28.5 3.94375 28.0313 3.5 27.5 3.5ZM10.75 23.8219C9.92191 23.8219 9.25003 23.1531 9.25003 22.3281C9.25003 21.9781 9.37191 21.6437 9.59378 21.3781L12.2469 22.4437C12.1844 23.2125 11.5375 23.8219 10.75 23.8219V23.8219ZM26.25 25.6469L9.96253 19.1031L9.5594 18.9406H5.75003V13.0594H9.5594L9.96253 12.8969L26.25 6.35312V25.6469V25.6469Z" fill="#6A7FDB"/>
</svg>
