<svg width="24" height="24" viewBox="0 0 24 24" fill="none" xmlns="http://www.w3.org/2000/svg">
<path d="M8.15625 15.8462C5.85938 14.5173 4.3125 12.0329 4.3125 9.18762C4.3125 4.94309 7.75547 1.50012 12 1.50012C16.2445 1.50012 19.6875 4.94309 19.6875 9.18762C19.6875 12.0329 18.1406 14.5173 15.8438 15.8462V18.5626C15.8438 18.9775 15.5086 19.3126 15.0938 19.3126H8.90625C8.49141 19.3126 8.15625 18.9775 8.15625 18.5626V15.8462ZM9.1875 20.8126H14.8125C14.9156 20.8126 15 20.897 15 21.0001V21.7501C15 22.165 14.6648 22.5001 14.25 22.5001H9.75C9.33516 22.5001 9 22.165 9 21.7501V21.0001C9 20.897 9.08437 20.8126 9.1875 20.8126Z" fill="#6A7FDB"/>
</svg>
