<svg width="32" height="32" viewBox="0 0 32 32" fill="none" xmlns="http://www.w3.org/2000/svg">
<path d="M26 14.5H23.875V7.5C23.875 5.29063 22.0844 3.5 19.875 3.5H12.125C9.91566 3.5 8.12503 5.29063 8.12503 7.5V14.5H6.00003C5.44691 14.5 5.00003 14.9469 5.00003 15.5V27.5C5.00003 28.0531 5.44691 28.5 6.00003 28.5H26C26.5532 28.5 27 28.0531 27 27.5V15.5C27 14.9469 26.5532 14.5 26 14.5ZM10.375 7.5C10.375 6.53438 11.1594 5.75 12.125 5.75H19.875C20.8407 5.75 21.625 6.53438 21.625 7.5V14.5H10.375V7.5ZM24.75 26.25H7.25003V16.75H24.75V26.25ZM15.125 21.9062V23.5625C15.125 23.7 15.2375 23.8125 15.375 23.8125H16.625C16.7625 23.8125 16.875 23.7 16.875 23.5625V21.9062C17.133 21.721 17.3255 21.4588 17.4249 21.1572C17.5243 20.8556 17.5255 20.5302 17.4282 20.2279C17.3309 19.9256 17.1402 19.662 16.8836 19.475C16.627 19.288 16.3176 19.1872 16 19.1872C15.6825 19.1872 15.3731 19.288 15.1165 19.475C14.8598 19.662 14.6691 19.9256 14.5718 20.2279C14.4746 20.5302 14.4757 20.8556 14.5751 21.1572C14.6745 21.4588 14.8671 21.721 15.125 21.9062V21.9062Z" fill="#6A7FDB"/>
</svg>
