<svg width="131" height="50" viewBox="0 0 131 50" fill="none" xmlns="http://www.w3.org/2000/svg">
<g clip-path="url(#clip0)">
<g clip-path="url(#clip1)">
<path d="M12.2233 28.7612C12.2233 30.4278 10.8322 31.8243 9.09907 31.8018C8.14127 31.8018 7.1606 31.3514 6.56777 30.4955L5.92917 29.5945C5.63276 30.9009 4.49246 31.8018 3.03304 31.8018C1.34546 31.8018 0 30.4505 0 28.7837V21.2387C0 19.572 1.32268 18.2206 3.03304 18.2206C4.51535 18.2206 5.67835 19.1891 5.952 20.5179L6.68174 19.527C7.27468 18.7161 8.23247 18.2431 9.19026 18.2431C10.8322 18.2431 12.2233 19.527 12.2233 21.1936C12.2233 21.8242 12.0408 22.4549 11.6532 22.9729L10.1936 24.9774L11.6532 26.982C12.0408 27.5224 12.2233 28.1306 12.2233 28.7612V28.7612ZM16.4222 18.2206C18.252 18.2206 19.7157 19.7096 19.6928 21.4693V28.5533C19.6928 30.3131 18.252 31.802 16.3993 31.802C14.5924 31.802 13.1288 30.3356 13.1288 28.5533V21.4693C13.1288 19.7096 14.5924 18.2206 16.4222 18.2206ZM32.3691 28.0694C32.3691 30.2506 30.5462 31.802 27.6209 31.802C23.7054 31.802 20.8249 28.9014 20.8249 25.0113C20.8249 21.1213 23.7054 18.2206 27.6209 18.2206C30.5462 18.2206 32.3691 19.7722 32.3691 21.9533C32.3691 23.4148 31.649 24.4042 30.2088 25.0113C31.649 25.6185 32.3691 26.6303 32.3691 28.0694V28.0694ZM45.7241 28.7612C45.7241 30.4278 44.3305 31.8243 42.6169 31.8018C41.6573 31.8018 40.6749 31.3514 40.0808 30.4955L39.4411 29.5945C39.1441 30.9009 38.0017 31.8018 36.5395 31.8018C34.8488 31.8018 33.5009 30.4505 33.5009 28.7837V21.2387C33.5009 19.572 34.826 18.2206 36.5395 18.2206C38.0246 18.2206 39.1899 19.1891 39.4641 20.5179L40.1723 19.527C40.7663 18.7161 41.7259 18.2431 42.6854 18.2431C44.3305 18.2431 45.7241 19.527 45.7241 21.1936C45.7241 21.8242 45.5414 22.4549 45.1529 22.9729L43.6907 24.9774L45.1529 26.982C45.5414 27.5224 45.7241 28.1306 45.7241 28.7612ZM57.2684 27.6227C57.2684 30.3251 55.1815 32.0285 51.6657 32.0285C48.0818 32.0285 46.4032 30.802 46.4032 28.8035C46.4032 27.4183 47.4693 26.5326 48.989 26.5326H49.0118L48.1952 25.7831C47.1744 24.852 46.4713 23.9209 46.4713 22.5582C46.4713 19.9012 48.422 18.2206 51.7564 18.2206C55.1589 18.2206 56.7693 19.4243 56.7693 21.4455C56.7693 22.6491 55.9527 23.4667 54.7279 23.6484L55.5671 24.3978C56.5879 25.3062 57.2684 26.26 57.2684 27.6227ZM66.4984 28.9726C66.4984 30.6476 65.0697 32.0285 63.2329 32.0285C61.4638 32.0285 60.0351 30.6476 60.0351 28.9726V24.287C58.5157 24.1965 57.2684 22.9515 57.2684 21.367C57.2684 19.7145 58.5837 18.447 60.1939 18.447H66.3398C67.95 18.447 69.2653 19.7372 69.2653 21.367C69.2653 22.9515 68.018 24.2191 66.4984 24.287V28.9726V28.9726ZM74.4532 29.4411C73.6811 31.0376 72.5909 31.802 71.2735 31.802C68.8885 31.802 67.1623 29.621 68.2299 27.17L71.0236 20.694C71.7278 19.0975 72.7498 18.2206 74.476 18.2206C76.2249 18.2206 77.2471 19.0975 77.9285 20.694L80.7222 27.17C81.767 29.621 80.0634 31.802 77.6558 31.802C76.3159 31.802 75.2256 31.0376 74.4532 29.4411ZM81.9413 21.8197C81.9413 19.6014 83.1275 18.447 85.2489 18.447H89.1953C91.5905 18.447 93.461 20.2579 93.461 22.5893C93.461 23.8569 92.9362 24.8982 92.0694 25.5546L93.2556 27.4333C93.5749 27.9313 93.7118 28.4747 93.7118 29.0405C93.7118 30.7156 92.3887 32.0285 90.7236 32.0285C89.6971 32.0285 88.6934 31.5079 88.1232 30.557L87.8037 29.9912C87.416 31.1909 86.3438 32.0285 84.9752 32.0285C83.31 32.0285 81.9413 30.625 81.9413 28.9274V21.8197V21.8197ZM103.174 28.9726C103.174 30.6476 101.77 32.0285 99.8914 32.0285C98.1259 32.0285 96.6997 30.6476 96.6997 28.9726V24.287C95.1831 24.1965 93.9381 22.9515 93.9381 21.367C93.9381 19.7145 95.2511 18.447 96.8582 18.447H103.015C104.622 18.447 105.935 19.7372 105.935 21.367C105.935 22.9515 104.69 24.2191 103.174 24.287V28.9726ZM117.479 29.426C117.479 30.8869 116.31 32.051 114.893 32.0281H110.169C108.01 32.0281 106.841 30.8869 106.841 28.6499V21.8252C106.841 19.6111 108.01 18.447 110.169 18.447H114.893C116.31 18.447 117.479 19.6111 117.479 21.0719C117.479 22.3958 116.67 23.3544 115.5 23.5827C116.04 23.9251 116.332 24.4957 116.332 25.2489C116.332 26.0022 116.017 26.5728 115.5 26.9152C116.647 27.1435 117.479 28.125 117.479 29.426ZM118.385 21.8197C118.385 19.6014 119.548 18.447 121.692 18.447H125.639C128.034 18.447 129.904 20.2579 129.904 22.5893C129.904 23.8569 129.38 24.8982 128.513 25.5546L129.699 27.4333C130.018 27.9313 130.155 28.4747 130.155 29.0405C130.155 30.7156 128.832 32.0285 127.167 32.0285C126.141 32.0285 125.137 31.5079 124.567 30.557L124.247 29.9912C123.859 31.1909 122.787 32.0285 121.419 32.0285C119.753 32.0285 118.385 30.625 118.385 28.9274V21.8197" fill="white"/>
</g>
</g>
<defs>
<clipPath id="clip0">
<rect width="130.155" height="48.8083" fill="white" transform="translate(0 0.595886)"/>
</clipPath>
<clipPath id="clip1">
<rect width="130.155" height="13.8073" fill="white" transform="translate(0 18.2211)"/>
</clipPath>
</defs>
</svg>
