<svg width="81" height="50" viewBox="0 0 81 50" fill="none" xmlns="http://www.w3.org/2000/svg">
<g clip-path="url(#clip0_1225_112)">
<g clip-path="url(#clip1_1225_112)">
<g clip-path="url(#clip2_1225_112)">
<path d="M80.9416 33.702H77.9689V19.4166L73.4761 27.1915C72.9649 28.0928 72.0099 28.6577 70.9741 28.6443C69.9384 28.6443 68.9699 28.0928 68.4587 27.1915L63.966 19.3493V33.702H60.9932V19.2014C60.9932 17.6007 62.298 16.3093 63.8987 16.3093C64.9345 16.3093 65.8895 16.8608 66.4007 17.7621L70.9741 25.806L75.5476 17.7621C76.3412 16.3766 78.1168 15.8923 79.5023 16.686C80.4036 17.1971 80.9551 18.1522 80.9551 19.2014L80.9416 33.702ZM13.8326 33.702C12.7969 33.702 11.8418 33.137 11.3441 32.2358L3.97276 19.3493V33.702H1V19.2014C1 17.6007 2.29133 16.3093 3.8786 16.2959C4.92781 16.2959 5.88286 16.8474 6.40746 17.7621L13.7788 30.6485V16.2959H16.7516V30.8099C16.765 32.1282 15.8772 33.285 14.5994 33.6078C14.3438 33.6751 14.0882 33.702 13.8326 33.702ZM28.7233 33.9441C23.7732 33.9441 19.7647 29.9356 19.7647 24.9855C19.7647 20.0354 23.7732 16.0269 28.7233 16.0269C33.6734 16.0269 37.6819 20.0354 37.6819 24.9855C37.6954 29.9221 33.7138 33.9307 28.7771 33.9441H28.7233ZM28.7233 18.9862C25.4412 18.9862 22.8585 21.6226 22.8585 24.9855C22.8316 26.5862 23.4504 28.1331 24.5668 29.2765C26.8536 31.5632 30.5662 31.5632 32.8529 29.2765C33.9694 28.1331 34.5747 26.5862 34.5612 24.9855C34.5747 21.6226 32.0055 18.9862 28.7233 18.9862ZM49.0349 33.9441C44.0848 33.9441 40.0763 29.9356 40.0763 24.9855C40.0763 20.0354 44.0848 16.0269 49.0349 16.0269C53.985 16.0269 57.9935 20.0354 57.9935 24.9855C58.007 29.9221 54.0254 33.9307 49.0887 33.9441H49.0349ZM49.0349 18.9862C45.7528 18.9862 43.1701 21.6226 43.1701 24.9855C43.1567 26.5862 43.762 28.1331 44.8784 29.2765C47.1652 31.5632 50.8778 31.5632 53.1645 29.2765C54.281 28.1331 54.8863 26.5862 54.8728 24.9855C54.8728 21.6226 52.3036 18.9862 49.0349 18.9862Z" fill="white"/>
</g>
</g>
</g>
<defs>
<clipPath id="clip0_1225_112">
<rect width="80" height="50" fill="white" transform="translate(0.839844)"/>
</clipPath>
<clipPath id="clip1_1225_112">
<rect width="80" height="18" fill="white" transform="translate(0.839844 16)"/>
</clipPath>
<clipPath id="clip2_1225_112">
<rect width="80" height="17.9442" fill="white" transform="translate(1 16)"/>
</clipPath>
</defs>
</svg>
