<svg width="123" height="50" viewBox="0 0 123 50" fill="none" xmlns="http://www.w3.org/2000/svg">
<g clip-path="url(#clip0_1211_107)">
<g clip-path="url(#clip1_1211_107)">
<path d="M24.2377 21.2951C23.1213 19.2321 20.9492 17.9502 18.5742 17.9502H0.67002C0.324929 17.9502 0.0610352 18.2306 0.0610352 18.5711C0.0610352 18.7313 0.121934 18.8916 0.243731 18.9917L4.14124 22.8574C4.48633 23.1979 4.95321 23.3982 5.4404 23.3982H18.0667C18.9599 23.3982 19.711 24.0992 19.711 24.9805C19.711 25.8618 19.0005 26.6029 18.1073 26.6029H9.39881C9.05371 26.6029 8.78982 26.8833 8.78982 27.2238C8.78982 27.384 8.85072 27.5443 8.97252 27.6444L12.8497 31.5101C13.1948 31.8506 13.6617 32.0509 14.1489 32.0509H18.087C23.2228 32.0509 27.1 26.6429 24.2377 21.2951Z" fill="white"/>
<path d="M32.7836 21.916V28.085H34.3873C36.0924 28.065 37.4525 26.683 37.4322 25.0005C37.4728 23.3581 36.1533 21.9761 34.4888 21.916C34.4482 21.916 34.4279 21.916 34.3873 21.916H32.7836ZM34.3873 19.9932C37.3713 19.9932 39.6245 22.2164 39.6245 25.0005C39.6245 27.7846 37.3713 30.0279 34.3873 30.0279H30.8552C30.7131 30.0279 30.6116 29.9077 30.6116 29.7875V20.2535C30.6116 20.1133 30.7334 20.0132 30.8552 20.0132L34.3873 19.9932Z" fill="white"/>
<path d="M47.2775 28.3055C49.1248 28.3055 50.6269 26.8433 50.6269 25.0206C50.6269 23.198 49.1451 21.7158 47.2978 21.7158C45.4506 21.7158 43.9484 23.1779 43.9484 25.0006C43.9484 26.8233 45.4506 28.2854 47.2775 28.3055ZM47.2775 19.7729C50.4037 19.7729 52.799 22.1564 52.799 25.0006C52.799 27.8648 50.4037 30.2283 47.2775 30.2283C44.1514 30.2283 41.7764 27.8648 41.7764 25.0006C41.7764 22.1364 44.1717 19.7729 47.2775 19.7729Z" fill="white"/>
<path d="M60.4316 28.3055C62.2789 28.3055 63.7607 26.8233 63.7607 25.0006C63.7607 23.1779 62.2586 21.7158 60.4113 21.7158C58.5641 21.7158 57.0822 23.198 57.0822 25.0006C57.0822 26.8233 58.5844 28.3055 60.4316 28.3055ZM60.4316 19.7729C63.5577 19.7729 65.9531 22.1364 65.9531 25.0006C65.9531 27.8648 63.5374 30.2283 60.4316 30.2283C57.3258 30.2283 54.9102 27.8648 54.9102 25.0006C54.9102 22.1364 57.3055 19.7729 60.4316 19.7729Z" fill="white"/>
<path d="M73.261 21.916H71.0077V24.5598H73.261C73.9918 24.5999 74.6008 24.0391 74.6414 23.318C74.6414 23.298 74.6414 23.278 74.6414 23.278C74.6617 22.5569 74.0933 21.936 73.3625 21.916C73.3219 21.916 73.2813 21.916 73.261 21.916ZM68.8357 20.2535C68.8357 20.1133 68.9575 20.0132 69.0793 20.0132H73.3219C75.3518 20.0132 76.8134 21.4753 76.8134 23.318C76.8337 24.5599 76.1232 25.7015 75.0067 26.2623L76.9555 29.6673C77.0367 29.7875 76.9961 29.9277 76.8946 30.0078C76.854 30.0479 76.7931 30.0479 76.7322 30.0479H75.0067C74.9052 30.0479 74.824 29.9878 74.7834 29.9077L72.8956 26.5227H71.0077V29.7675C71.0077 29.9077 70.8859 30.0078 70.7641 30.0078H69.1199C68.9778 30.0078 68.8763 29.8877 68.8763 29.7675L68.8357 20.2535Z" fill="white"/>
<path d="M82.4972 21.976V28.1451H84.1009C85.8061 28.1251 87.1661 26.743 87.1458 25.0606C87.1864 23.4182 85.8873 22.0361 84.2024 21.976C84.1618 21.976 84.1212 21.976 84.1009 21.976H82.4972ZM84.0806 20.0332C87.0646 20.0332 89.3179 22.2565 89.3179 25.0606C89.3179 27.8647 87.0646 30.0879 84.0806 30.0879H80.5688C80.4267 30.0879 80.3252 29.9678 80.3252 29.8476V20.2936C80.3252 20.1534 80.447 20.0532 80.5688 20.0532L84.0806 20.0332Z" fill="white"/>
<path d="M95.9557 22.4967L94.7174 25.8016H97.1939L95.9557 22.4967ZM94.0069 27.6443L93.1949 29.8475C93.1543 29.9477 93.0528 30.0278 92.9513 30.0278H91.2056C91.0635 30.0478 90.9417 29.9477 90.9214 29.8075C90.9214 29.7674 90.9214 29.7273 90.9417 29.6873L94.7377 20.1733C94.7783 20.0732 94.8798 19.9931 94.9813 20.0131H96.9503C97.0721 20.0131 97.1736 20.0732 97.1939 20.1733L100.99 29.6873C101.051 29.8075 100.99 29.9677 100.868 30.0278C100.828 30.0478 100.787 30.0478 100.746 30.0478H99.0006C98.8788 30.0478 98.7773 29.9877 98.757 29.8675L97.945 27.6643H94.0069V27.6443Z" fill="white"/>
<path d="M103.02 22.6972C103.02 21.1149 104.4 19.7529 106.572 19.7529C107.75 19.7329 108.866 20.1535 109.739 20.9346C109.841 21.0348 109.841 21.195 109.759 21.2951C109.759 21.2951 109.759 21.2951 109.739 21.3152L108.765 22.2766C108.663 22.3767 108.501 22.3767 108.399 22.2766C107.932 21.856 107.344 21.6356 106.714 21.6156C105.842 21.6156 105.192 22.1164 105.192 22.6972C105.192 24.5599 110.348 23.4783 110.348 27.0636C110.348 28.8863 108.947 30.2483 106.491 30.2483C105.111 30.2683 103.791 29.7475 102.817 28.7861C102.715 28.686 102.715 28.5258 102.797 28.4256C102.797 28.4256 102.797 28.4256 102.817 28.4056L103.751 27.4842C103.852 27.3841 104.015 27.3841 104.116 27.4842C104.705 28.045 105.517 28.3655 106.329 28.3855C107.425 28.3855 108.135 27.8047 108.135 27.0836C108.156 25.2209 103.02 26.3025 103.02 22.6972Z" fill="white"/>
<path d="M119.706 20.2335V23.999H115.342V20.2335C115.342 20.0933 115.22 19.9932 115.098 19.9932H113.454C113.312 19.9932 113.21 20.1133 113.21 20.2335V29.7475C113.21 29.8877 113.332 29.9878 113.454 29.9878H115.098C115.24 29.9878 115.342 29.8676 115.342 29.7475V25.9219H119.706V29.7475C119.706 29.8877 119.828 29.9878 119.95 29.9878H121.594C121.736 29.9878 121.837 29.8676 121.837 29.7475V20.2335C121.837 20.0933 121.716 19.9932 121.594 19.9932H119.95C119.808 19.9932 119.706 20.0933 119.706 20.2335Z" fill="white"/>
</g>
</g>
<defs>
<clipPath id="clip0_1211_107">
<rect width="122" height="50" fill="white" transform="translate(0.52002)"/>
</clipPath>
<clipPath id="clip1_1211_107">
<rect width="122" height="14.2209" fill="white" transform="translate(0 17.8901)"/>
</clipPath>
</defs>
</svg>
