<svg width="120" height="49" viewBox="0 0 120 49" fill="none" xmlns="http://www.w3.org/2000/svg">
<path fill-rule="evenodd" clip-rule="evenodd" d="M12.9854 20.7193L12.7802 20.8215C12.2195 20.1267 11.6861 19.5341 11.1801 19.0436C10.6741 18.5531 10.1818 18.1921 9.70312 17.9605C9.47062 17.8515 9.05009 17.7595 8.44151 17.6846C7.83292 17.6097 7.1252 17.5722 6.31831 17.5722C6.18155 17.5722 6.02428 17.5756 5.84649 17.5824C5.6687 17.5892 5.49775 17.596 5.33364 17.6029C5.16952 17.6097 5.01567 17.6165 4.87207 17.6233C4.72847 17.6301 4.62249 17.6335 4.55411 17.6335C4.54043 17.7153 4.52333 17.797 4.50282 17.8787C4.48231 17.9605 4.46521 18.0559 4.45154 18.1649C4.43786 18.2738 4.42418 18.4135 4.41051 18.5838C4.39683 18.7541 4.38316 18.9619 4.36948 19.2071C4.3558 19.6839 4.34555 20.205 4.33871 20.7704C4.33187 21.3358 4.32845 21.8706 4.32845 22.3747V24.3161H4.6977C4.91652 24.3161 5.15927 24.3093 5.42595 24.2956C5.69263 24.282 5.96957 24.265 6.25677 24.2446C6.54396 24.2241 6.78329 24.1935 6.97476 24.1526C7.46709 24.0436 7.85686 23.9005 8.14405 23.7234C8.43125 23.5463 8.6569 23.3352 8.82102 23.0899C8.98513 22.8447 9.10137 22.5756 9.16975 22.2827C9.23813 21.9898 9.29967 21.673 9.35438 21.3324H9.60055V27.9128H9.35438C9.24497 27.4768 9.0877 27.017 8.88256 26.5334C8.67742 26.0497 8.43125 25.6785 8.14405 25.4196C7.88421 25.188 7.60727 25.0143 7.31324 24.8985C7.0192 24.7827 6.67389 24.7112 6.27728 24.6839C6.07214 24.6703 5.89435 24.6601 5.74392 24.6533C5.59348 24.6465 5.44988 24.6431 5.31312 24.6431H4.32845V27.1771C4.32845 27.5586 4.33187 27.9094 4.33871 28.2296C4.34555 28.5497 4.34897 28.8256 4.34897 29.0572C4.36264 29.4932 4.38657 29.9053 4.42076 30.2936C4.45495 30.6819 4.53359 30.9714 4.65668 31.1621C4.77976 31.3529 4.98832 31.4993 5.28235 31.6015C5.57639 31.7037 6.00376 31.7684 6.56448 31.7956V32H0V31.7956C0.341902 31.7411 0.659865 31.6526 0.953901 31.53C1.24794 31.4074 1.49068 31.2371 1.68215 31.0191C1.75053 30.9373 1.80523 30.8181 1.84626 30.6614C1.88729 30.5048 1.9249 30.3243 1.95909 30.1199C1.99328 29.9155 2.01721 29.701 2.03088 29.4762C2.04456 29.2514 2.0514 29.03 2.0514 28.812C2.0514 28.6213 2.05482 28.3624 2.06166 28.0354C2.06849 27.7084 2.07533 27.3508 2.08217 26.9625C2.08901 26.5742 2.09243 26.1758 2.09243 25.767V20.5967C2.09243 20.3515 2.08901 20.0995 2.08217 19.8406C2.07533 19.5817 2.06166 19.3365 2.04114 19.1049C2.02063 18.8733 1.98644 18.6655 1.93857 18.4816C1.89071 18.2977 1.82575 18.1649 1.74369 18.0831C1.53855 17.8651 1.31973 17.7255 1.08724 17.6642C0.854748 17.6029 0.55388 17.545 0.184626 17.4905V17.2861H11.5904L12.9854 20.7193ZM35.4003 32V31.7956C35.4413 31.7956 35.5405 31.782 35.6978 31.7548C35.855 31.7275 36.0191 31.6798 36.1901 31.6117C36.361 31.5436 36.5115 31.4482 36.6414 31.3256C36.7713 31.203 36.8363 31.0463 36.8363 30.8556C36.8363 30.733 36.7987 30.532 36.7235 30.2527C36.6482 29.9734 36.5423 29.6328 36.4055 29.2309C36.2687 28.829 36.1115 28.3828 35.9337 27.8924C35.7559 27.4019 35.5644 26.891 35.3593 26.3597H29.9026C29.6974 26.8774 29.4991 27.3713 29.3077 27.8413C29.1162 28.3113 28.9247 28.7847 28.7333 29.2616C28.4461 29.9973 28.3025 30.515 28.3025 30.8147C28.3025 30.9918 28.3572 31.1383 28.4666 31.2541C28.576 31.3699 28.7162 31.4653 28.8871 31.5402C29.0581 31.6151 29.2427 31.6696 29.441 31.7037C29.6393 31.7377 29.8273 31.7684 30.0051 31.7956V32H25.6356V31.7752C25.9912 31.7343 26.2955 31.639 26.5485 31.4891C26.8015 31.3392 26.9485 31.2371 26.9896 31.1826C27.0853 31.0872 27.2426 30.8624 27.4614 30.5082C27.6802 30.1539 27.9469 29.6294 28.2614 28.9346C28.5486 28.2943 28.87 27.5654 29.2256 26.748C29.5812 25.9305 29.947 25.0892 30.3231 24.2241C30.6992 23.359 31.0719 22.4871 31.4411 21.6083C31.8104 20.7296 32.1591 19.9087 32.4873 19.1458L32.2822 18.6962C32.5283 18.5872 32.7506 18.4578 32.9489 18.3079C33.1472 18.158 33.3216 18.0014 33.472 17.8379C33.6224 17.6744 33.7489 17.5177 33.8515 17.3678C33.9541 17.218 34.0327 17.0954 34.0874 17H34.2515C34.6755 18.1308 35.0789 19.2037 35.4618 20.2187C35.8448 21.2337 36.2106 22.2112 36.5593 23.1512C36.9081 24.0913 37.2466 25.0007 37.5748 25.8794C37.903 26.7582 38.2312 27.6267 38.5595 28.485C38.7099 28.9074 38.8501 29.2582 38.98 29.5375C39.1099 29.8168 39.2569 30.1335 39.421 30.4877C39.4484 30.5422 39.5099 30.6376 39.6057 30.7738C39.7014 30.9101 39.8279 31.0497 39.9852 31.1928C40.1425 31.3358 40.3373 31.4619 40.5698 31.5708C40.8023 31.6798 41.0758 31.7411 41.3904 31.7548V32H35.4003ZM32.713 19.6158C32.6309 19.7929 32.5113 20.0722 32.354 20.4537C32.1967 20.8352 32.0018 21.2984 31.7693 21.8433C31.5368 22.3883 31.2804 23.0048 31.0001 23.6928C30.7197 24.3808 30.4154 25.1267 30.0872 25.9305H35.1952C34.9627 25.3174 34.7268 24.7044 34.4874 24.0913C34.2481 23.4782 34.0156 22.889 33.79 22.3236C33.5643 21.7582 33.3592 21.2405 33.1745 20.7704C32.9899 20.3004 32.8361 19.9155 32.713 19.6158ZM61.5693 32H55.3536V31.7956C55.6955 31.7411 56.0134 31.6526 56.3075 31.53C56.6015 31.4074 56.8511 31.2302 57.0562 30.9986C57.1246 30.9169 57.1759 30.8011 57.2101 30.6512C57.2443 30.5014 57.2716 30.3243 57.2922 30.1199C57.3127 29.9155 57.3263 29.701 57.3332 29.4762C57.34 29.2514 57.3434 29.03 57.3434 28.812C57.3434 28.6213 57.3469 28.3624 57.3537 28.0354C57.3605 27.7084 57.3674 27.3508 57.3742 26.9625C57.381 26.5742 57.3845 26.1758 57.3845 25.767V19.861C57.3845 19.6158 57.3742 19.3876 57.3537 19.1764C57.3332 18.9653 57.3024 18.7745 57.2614 18.6042C57.2204 18.4339 57.1588 18.3011 57.0768 18.2057C56.8853 17.9741 56.6494 17.8072 56.369 17.705C56.0887 17.6029 55.7707 17.5313 55.4151 17.4905V17.2861H61.5488V17.4905C61.2616 17.5313 60.9539 17.6063 60.6257 17.7153C60.2974 17.8243 60.0444 18.0422 59.8667 18.3692C59.7436 18.6008 59.6786 18.8937 59.6718 19.248C59.6649 19.6022 59.6547 19.936 59.641 20.2493C59.641 20.5899 59.6376 20.9271 59.6307 21.2609C59.6239 21.5947 59.6205 21.9319 59.6205 22.2725V29.1185C59.6205 29.5136 59.6273 29.8951 59.641 30.2629C59.6547 30.6308 59.7162 30.8896 59.8256 31.0395C59.9897 31.2711 60.2496 31.4482 60.6052 31.5708C60.9607 31.6935 61.2821 31.7684 61.5693 31.7956V32ZM92.6207 32H88.4153C88.2922 31.8774 88.2033 31.7854 88.1486 31.7241C88.0939 31.6628 88.0324 31.5913 87.964 31.5095C87.8956 31.4278 87.8101 31.3086 87.7076 31.1519C87.605 30.9952 87.4443 30.7602 87.2255 30.4469C86.9656 30.0654 86.7366 29.7214 86.5383 29.4148C86.34 29.1083 86.1382 28.8052 85.9331 28.5054C85.728 28.2057 85.5057 27.9026 85.2664 27.596C85.0271 27.2895 84.7433 26.9455 84.4151 26.564C84.1415 26.2507 83.8441 25.9578 83.5227 25.6853C83.2013 25.4128 82.8628 25.2425 82.5073 25.1744C82.2474 25.1199 82.0491 25.0926 81.9124 25.0926C81.7893 25.0926 81.632 25.0858 81.4405 25.0722V27.3815C81.4405 28.0354 81.4474 28.5872 81.4611 29.0368C81.4747 29.4728 81.4884 29.8474 81.5021 30.1608C81.5158 30.4741 81.591 30.733 81.7277 30.9373C81.8371 31.1144 82.0491 31.295 82.3637 31.4789C82.6782 31.6628 83.1158 31.7684 83.6766 31.7956V32H77.1121V31.7956C77.454 31.7411 77.7822 31.6594 78.0968 31.5504C78.4113 31.4414 78.6575 31.2779 78.8353 31.0599C78.9036 30.9782 78.9583 30.8556 78.9994 30.6921C79.0404 30.5286 79.0712 30.3447 79.0917 30.1403C79.1122 29.936 79.1293 29.718 79.143 29.4864C79.1566 29.2548 79.1635 29.03 79.1635 28.812C79.1635 28.6213 79.1669 28.3624 79.1737 28.0354C79.1806 27.7084 79.1874 27.3508 79.1943 26.9625C79.2011 26.5742 79.2045 26.1758 79.2045 25.767V20.5967C79.2045 20.3515 79.2011 20.1029 79.1943 19.8508C79.1874 19.5988 79.1737 19.3604 79.1532 19.1356C79.1327 18.9108 79.0985 18.7064 79.0507 18.5225C79.0028 18.3386 78.9378 18.2057 78.8558 18.124C78.6506 17.906 78.4216 17.7595 78.1686 17.6846C77.9156 17.6097 77.6044 17.545 77.2352 17.4905V17.2861H78.0762C78.5412 17.2861 79.0677 17.2827 79.6558 17.2759C80.2439 17.2691 80.8319 17.2657 81.42 17.2657H82.856C83.7723 17.2657 84.586 17.2929 85.2972 17.3474C86.0083 17.4019 86.6579 17.5858 87.246 17.8992C87.8477 18.2125 88.3332 18.6383 88.7025 19.1764C89.0717 19.7146 89.2564 20.3924 89.2564 21.2098C89.2564 21.7139 89.1641 22.1669 88.9794 22.5688C88.7948 22.9707 88.5486 23.3249 88.2409 23.6315C87.9332 23.938 87.5742 24.2003 87.1639 24.4183C86.7537 24.6362 86.3229 24.8202 85.8716 24.97V25.0313C86.1041 25.154 86.3297 25.3311 86.5485 25.5627C86.7673 25.7943 86.9793 26.0531 87.1845 26.3392C87.54 26.857 87.9264 27.4155 88.3435 28.015C88.7606 28.6144 89.1333 29.1458 89.4615 29.609C89.9675 30.3174 90.4598 30.8351 90.9385 31.1621C91.4172 31.4891 91.9779 31.7003 92.6207 31.7956V32ZM86.8973 21.0872C86.8973 20.406 86.7263 19.7997 86.3844 19.2684C86.0425 18.7371 85.5433 18.3147 84.8869 18.0014C84.5587 17.8515 84.2133 17.7425 83.8509 17.6744C83.4885 17.6063 83.109 17.5722 82.7124 17.5722C82.4252 17.5722 82.1927 17.579 82.0149 17.5926C81.8371 17.6063 81.7004 17.6199 81.6046 17.6335C81.591 17.7153 81.5773 17.7868 81.5636 17.8481C81.5499 17.9094 81.5397 17.9877 81.5329 18.0831C81.526 18.1785 81.5192 18.3113 81.5123 18.4816C81.5055 18.6519 81.4952 18.8937 81.4816 19.2071C81.4679 19.6839 81.4576 20.2221 81.4508 20.8215C81.444 21.421 81.4405 22 81.4405 22.5586V24.8065C82.0013 24.8065 82.5244 24.7827 83.0099 24.735C83.4954 24.6873 83.9638 24.5886 84.4151 24.4387C84.8527 24.3025 85.2288 24.1185 85.5433 23.8869C85.8579 23.6553 86.1143 23.3931 86.3126 23.1001C86.5109 22.8072 86.6579 22.4905 86.7537 22.1499C86.8494 21.8093 86.8973 21.455 86.8973 21.0872ZM120 28.0967L118.974 32H106.42V31.7956C106.762 31.7411 107.08 31.6526 107.374 31.53C107.668 31.4074 107.91 31.2371 108.102 31.0191C108.17 30.9373 108.225 30.8181 108.266 30.6614C108.307 30.5048 108.345 30.3243 108.379 30.1199C108.413 29.9155 108.437 29.701 108.451 29.4762C108.464 29.2514 108.471 29.03 108.471 28.812C108.471 28.6213 108.475 28.3624 108.481 28.0354C108.488 27.7084 108.495 27.3508 108.502 26.9625C108.509 26.5742 108.512 26.1758 108.512 25.767C108.512 25.3447 108.512 24.9496 108.512 24.5817V20.5967C108.512 20.3515 108.509 20.0995 108.502 19.8406C108.495 19.5817 108.481 19.3365 108.461 19.1049C108.44 18.8733 108.406 18.6655 108.358 18.4816C108.31 18.2977 108.245 18.1649 108.163 18.0831C107.958 17.8651 107.739 17.7255 107.507 17.6642C107.274 17.6029 106.974 17.545 106.604 17.4905V17.2861H117.928L119.323 20.658L119.118 20.7602C118.01 19.3842 116.971 18.4578 116 17.9809C115.767 17.8719 115.336 17.7766 114.707 17.6948C114.078 17.6131 113.312 17.5722 112.41 17.5722C112.123 17.5722 111.825 17.5824 111.517 17.6029C111.21 17.6233 110.988 17.6471 110.851 17.6744C110.823 17.8924 110.799 18.342 110.779 19.0232C110.758 19.7044 110.748 20.4945 110.748 21.3937C110.748 21.9114 110.748 22.3474 110.748 22.7016C110.748 23.0559 110.752 23.3454 110.758 23.5702C110.765 23.795 110.769 23.9687 110.769 24.0913C110.769 24.2003 110.769 24.2752 110.769 24.3161C110.837 24.3161 110.974 24.3161 111.179 24.3161C111.384 24.3161 111.62 24.3093 111.887 24.2956C112.153 24.282 112.42 24.265 112.687 24.2446C112.953 24.2241 113.176 24.1935 113.353 24.1526C113.764 24.0572 114.106 23.9278 114.379 23.7643C114.653 23.6008 114.875 23.4033 115.046 23.1717C115.217 22.9401 115.354 22.671 115.456 22.3644C115.559 22.0579 115.651 21.7139 115.733 21.3324H115.979V27.7698H115.733C115.624 27.3338 115.456 26.8842 115.23 26.421C115.005 25.9578 114.769 25.6104 114.523 25.3787C114.304 25.188 114.041 25.0313 113.733 24.9087C113.425 24.7861 113.066 24.7112 112.656 24.6839C112.451 24.6703 112.28 24.6601 112.143 24.6533C112.006 24.6465 111.87 24.6431 111.733 24.6431C111.61 24.6431 111.473 24.6431 111.323 24.6431C111.186 24.6431 111.008 24.6431 110.789 24.6431C110.762 24.8338 110.748 25.1131 110.748 25.4809C110.748 25.8488 110.748 26.2302 110.748 26.6253C110.748 26.8025 110.748 27.0068 110.748 27.2384C110.748 27.47 110.748 27.7016 110.748 27.9332C110.748 28.1512 110.752 28.359 110.758 28.5565C110.765 28.7541 110.769 28.921 110.769 29.0572C110.782 29.4932 110.806 29.9053 110.841 30.2936C110.875 30.6819 110.953 30.9714 111.076 31.1621C111.2 31.3529 111.494 31.4891 111.959 31.5708C112.424 31.6526 112.93 31.6935 113.477 31.6935C113.709 31.6935 114.006 31.6866 114.369 31.673C114.731 31.6594 115.111 31.6253 115.507 31.5708C115.945 31.5163 116.349 31.4108 116.718 31.2541C117.087 31.0974 117.443 30.876 117.784 30.5899C118.126 30.3038 118.458 29.953 118.779 29.5375C119.101 29.1219 119.432 28.6213 119.774 28.0354L120 28.0967Z" fill="white"/>
</svg>
