<svg width="59" height="49" viewBox="0 0 59 49" fill="none" xmlns="http://www.w3.org/2000/svg">
<g clip-path="url(#clip0_409_77)">
<g clip-path="url(#clip1_409_77)">
<path d="M52.2303 18.2677C48.5851 18.2677 45.6188 21.2356 45.6188 24.884C45.6188 28.5325 48.5851 31.5004 52.2303 31.5004C55.8746 31.5004 58.84 28.5325 58.84 24.884C58.84 21.2356 55.8746 18.2677 52.2303 18.2677V18.2677ZM52.2303 28.3647C50.3132 28.3647 48.7518 26.8016 48.7518 24.884C48.7518 22.9657 50.3132 21.4034 52.2303 21.4034C54.1456 21.4034 55.7078 22.9657 55.7078 24.884C55.7078 26.8024 54.1465 28.3647 52.2294 28.3647H52.2303ZM32.762 23.5441L31.6059 22.9665C31.104 22.7178 30.7893 22.5253 30.6628 22.383C30.5421 22.2569 30.4735 22.0903 30.4704 21.9162C30.4704 21.693 30.5713 21.5047 30.7696 21.3582C30.9663 21.2049 31.2459 21.135 31.6008 21.135C32.2498 21.135 32.9689 21.5252 33.7607 22.3114L35.712 20.3581C35.2325 19.7077 34.6055 19.1794 33.8821 18.8163C33.1682 18.4585 32.3794 18.274 31.5803 18.2779C30.3891 18.2779 29.4058 18.628 28.6397 19.3334C27.8744 20.0387 27.4896 20.8863 27.4896 21.8804C27.4896 23.4223 28.5028 24.7069 30.5362 25.7265L31.6008 26.2589C32.5183 26.7215 32.9749 27.1926 32.9749 27.6798C32.9749 27.9439 32.8475 28.1722 32.5944 28.3749C32.3413 28.5785 32.0061 28.6748 31.5905 28.6748C31.2057 28.6748 30.7645 28.5427 30.2677 28.2744C29.7727 28.0104 29.3323 27.6555 28.9697 27.2283L27.0287 29.3443C28.1232 30.7754 29.5828 31.4961 31.4178 31.4961C32.797 31.4961 33.8975 31.1204 34.7132 30.3742C35.5341 29.6289 35.9445 28.6952 35.9445 27.5784C35.9445 26.7411 35.7171 26.0059 35.2656 25.3815C34.8099 24.7571 33.9736 24.1489 32.762 23.5449V23.5441ZM13.1329 30.059V18.5309H9.99481V19.3027C8.93742 18.6256 7.70665 18.2663 6.44968 18.2677C2.80536 18.2677 -0.160034 21.2356 -0.160034 24.884C-0.160034 28.5325 2.80536 31.5004 6.45053 31.5004C7.69242 31.5022 8.90922 31.1521 9.95889 30.4909C9.95889 30.5923 9.95376 30.6834 9.95376 30.7448C9.95376 32.6623 8.3924 34.2254 6.47618 34.2254C5.82463 34.2239 5.18676 34.0391 4.63607 33.6922L3.08411 36.4121C4.10747 37.034 5.28259 37.3641 6.48131 37.3662C10.1265 37.3662 13.1329 34.3975 13.1329 30.749C13.1329 30.6076 13.1423 30.1911 13.1329 30.059V30.059ZM6.45053 28.3639C4.53517 28.3639 2.97295 26.8016 2.97295 24.884C2.97295 22.9657 4.53431 21.4034 6.45053 21.4034C8.36675 21.4034 9.92811 22.9657 9.92811 24.884C9.92811 26.8016 8.36675 28.3647 6.45053 28.3647V28.3639ZM25.6332 18.5267H22.4797V24.8167C22.4848 25.7103 22.4848 27.253 21.8264 27.9124C21.5118 28.2267 21.1672 28.5112 20.4421 28.5112C19.7118 28.5112 19.3673 28.2267 19.0534 27.9124C18.3942 27.2522 18.3993 25.7052 18.4036 24.8167V18.5267H15.2509V24.798C15.2407 26.0911 15.2253 28.4916 16.8072 30.0846C17.7349 31.0182 18.8405 31.4953 20.437 31.4953C22.0342 31.4953 23.139 31.0233 24.0667 30.0846C25.6486 28.4916 25.6332 26.086 25.623 24.798L25.6332 18.5258V18.5267ZM43.5034 27.8016C43.2503 27.9941 42.6363 28.4209 41.942 28.3247C41.3743 28.248 40.9134 27.8323 40.8424 26.4421V21.2262H44.5483V18.5164H40.8424V15H37.6992V15.69H37.694V26.0315C37.694 27.6756 38.1096 31.4953 41.9369 31.4953C43.8736 31.4654 45.0494 30.4151 45.5419 30.0045L45.6077 29.9534L43.7214 27.6296C43.7163 27.6338 43.5846 27.7403 43.5034 27.8016V27.8016Z" fill="white"/>
</g>
</g>
<defs>
<clipPath id="clip0_409_77">
<rect width="59" height="49" fill="white"/>
</clipPath>
<clipPath id="clip1_409_77">
<rect width="59" height="23" fill="white" transform="translate(-0.160034 15)"/>
</clipPath>
</defs>
</svg>
