<svg width="32" height="32" viewBox="0 0 32 32" fill="none" xmlns="http://www.w3.org/2000/svg">
<path d="M25.4039 9.82865C24.2962 9.82865 23.292 10.2691 22.5548 10.9835L17.8798 7.63587C17.909 7.51362 17.9261 7.38671 17.9261 7.25545C17.9261 6.35062 17.1926 5.617 16.2876 5.617C15.3828 5.617 14.6492 6.35062 14.6492 7.25545C14.6492 8.16039 15.3828 8.8939 16.2876 8.8939C16.6045 8.8939 16.8993 8.80239 17.15 8.6467L22.8728 12.8114C23.3189 11.8807 24.3029 11.1561 25.4039 11.1561C26.933 11.1561 28.1726 12.3956 28.1726 13.9247C28.1726 15.1466 27.381 16.1836 26.2827 16.5509L26.6583 17.825C28.3069 17.2952 29.5 15.7493 29.5 13.9247C29.5 11.6625 27.6662 9.82865 25.4039 9.82865Z" fill="#6A7FDB"/>
<path d="M12.2714 5.84976C11.937 6.90273 12.0524 7.99047 12.5088 8.9071L7.91478 12.3403C7.80733 12.2757 7.69181 12.2212 7.56707 12.1815C6.70685 11.9082 5.78794 12.3841 5.51477 13.2443C5.24149 14.1045 5.71735 15.0234 6.57746 15.2966C7.43768 15.5699 8.35658 15.0941 8.62987 14.2339C8.72551 13.9327 8.72759 13.6248 8.65523 13.3395L14.3426 9.15678C13.5926 8.45163 13.2009 7.29733 13.5333 6.25068C13.9951 4.79711 15.5478 3.993 17.0014 4.45479C18.1629 4.82372 18.9097 5.88941 18.9273 7.04444L20.252 7.07208C20.2462 5.34492 19.1368 3.74384 17.4022 3.19283C15.2518 2.50973 12.9545 3.69922 12.2714 5.84976Z" fill="#6A7FDB"/>
<path d="M4.6836 16.9217C5.57487 17.5721 6.63942 17.8101 7.6487 17.673L9.46106 23.0893C9.36644 23.1698 9.27887 23.2611 9.20237 23.3657C8.67548 24.0879 8.83862 25.104 9.56675 25.6352C10.2949 26.1666 11.3122 26.0118 11.8391 25.2897C12.3661 24.5676 12.203 23.5515 11.4749 23.0202C11.2199 22.8342 10.9294 22.7341 10.6371 22.7112L8.45716 16.0275C7.55626 16.5082 6.34254 16.5087 5.45655 15.8623C4.22627 14.9645 3.9506 13.2476 4.84094 12.0273C5.55251 11.0522 6.79325 10.6894 7.89083 11.041L8.33056 9.80372C6.69553 9.2585 4.83525 9.79182 3.77276 11.2479C2.45552 13.0532 2.86327 15.5935 4.6836 16.9217Z" fill="#6A7FDB"/>
<path d="M25.6543 23.287C25.3168 22.2425 24.5934 21.4304 23.6917 20.9539L25.4408 15.5203C25.5655 15.5104 25.6911 15.4876 25.8154 15.4475C26.6731 15.1704 27.1449 14.2539 26.8694 13.4008C26.5937 12.5474 25.6749 12.0803 24.8172 12.3574C23.9594 12.6344 23.4875 13.5508 23.7632 14.4041C23.8598 14.7029 24.0362 14.9529 24.2602 15.1416L22.0559 21.8136C23.074 21.9493 24.0606 22.6553 24.396 23.6935C24.8618 25.1354 24.0644 26.6839 22.6151 27.1521C21.4568 27.5263 20.2327 27.0974 19.55 26.1742L18.4565 26.9187C19.461 28.311 21.2899 28.9627 23.0194 28.4039C25.1637 27.7112 26.3434 25.4203 25.6543 23.287Z" fill="#6A7FDB"/>
<path d="M12.9658 27.6699C13.8544 27.0198 14.4016 26.077 14.5737 25.0712L20.289 25.0129C20.3375 25.128 20.3982 25.2399 20.4752 25.3452C21.0064 26.0711 22.0254 26.229 22.7514 25.698C23.4773 25.1668 23.6352 24.1478 23.1041 23.4219C22.573 22.6959 21.554 22.5379 20.828 23.0691C20.5739 23.2551 20.391 23.5014 20.2813 23.7735L13.2457 23.7914C13.434 24.7999 13.0699 25.9587 12.1866 26.605C10.96 27.5025 9.23799 27.2356 8.34051 26.0089C7.62335 25.0286 7.64975 23.7321 8.31515 22.7928L7.26591 21.9911C6.25436 23.3837 6.20467 25.3242 7.27554 26.788C8.60334 28.6029 11.151 28.9977 12.9658 27.6699Z" fill="#6A7FDB"/>
</svg>
