<svg width="24" height="24" viewBox="0 0 24 24" fill="none" xmlns="http://www.w3.org/2000/svg">
<path d="M12 1.49998C6.20159 1.49998 1.50003 6.20155 1.50003 12C1.50003 17.7984 6.20159 22.5 12 22.5C17.7985 22.5 22.5 17.7984 22.5 12C22.5 6.20155 17.7985 1.49998 12 1.49998ZM12 20.7187C7.18597 20.7187 3.28128 16.814 3.28128 12C3.28128 7.18592 7.18597 3.28123 12 3.28123C16.8141 3.28123 20.7188 7.18592 20.7188 12C20.7188 16.814 16.8141 20.7187 12 20.7187Z" fill="#6A7FDB"/>
<path d="M14.6156 7.42267C13.9125 6.80627 12.9843 6.46877 12 6.46877C11.0156 6.46877 10.0875 6.80861 9.38434 7.42267C8.65309 8.06252 8.24997 8.92267 8.24997 9.84376V10.0219C8.24997 10.125 8.33434 10.2094 8.43747 10.2094H9.56247C9.66559 10.2094 9.74997 10.125 9.74997 10.0219V9.84376C9.74997 8.81017 10.7601 7.96877 12 7.96877C13.2398 7.96877 14.25 8.81017 14.25 9.84376C14.25 10.5727 13.7343 11.2406 12.9351 11.5477C12.4383 11.7375 12.0164 12.0703 11.714 12.5063C11.407 12.9516 11.2476 13.486 11.2476 14.0274V14.5313C11.2476 14.6344 11.332 14.7188 11.4351 14.7188H12.5601C12.6633 14.7188 12.7476 14.6344 12.7476 14.5313V13.9992C12.7488 13.7717 12.8186 13.5498 12.9478 13.3625C13.077 13.1752 13.2596 13.0312 13.4718 12.9492C14.8547 12.4172 15.7476 11.1985 15.7476 9.84376C15.75 8.92267 15.3468 8.06252 14.6156 7.42267ZM11.0625 17.1563C11.0625 17.4049 11.1612 17.6434 11.3371 17.8192C11.5129 17.995 11.7513 18.0938 12 18.0938C12.2486 18.0938 12.4871 17.995 12.6629 17.8192C12.8387 17.6434 12.9375 17.4049 12.9375 17.1563C12.9375 16.9076 12.8387 16.6692 12.6629 16.4934C12.4871 16.3175 12.2486 16.2188 12 16.2188C11.7513 16.2188 11.5129 16.3175 11.3371 16.4934C11.1612 16.6692 11.0625 16.9076 11.0625 17.1563Z" fill="#6A7FDB"/>
</svg>
