<svg width="32" height="32" viewBox="0 0 32 32" fill="none" xmlns="http://www.w3.org/2000/svg">
<path d="M29.4439 15.1938C26.4814 8.95313 22.0033 5.8125 16.0001 5.8125C9.9939 5.8125 5.5189 8.95312 2.5564 15.1969C2.43757 15.4485 2.37595 15.7233 2.37595 16.0016C2.37595 16.2798 2.43757 16.5546 2.5564 16.8062C5.5189 23.0469 9.99702 26.1875 16.0001 26.1875C22.0064 26.1875 26.4814 23.0469 29.4439 16.8031C29.6845 16.2969 29.6845 15.7094 29.4439 15.1938V15.1938ZM16.0001 23.9375C10.9595 23.9375 7.2689 21.3812 4.66578 16C7.2689 10.6188 10.9595 8.0625 16.0001 8.0625C21.0408 8.0625 24.7314 10.6188 27.3345 16C24.7345 21.3812 21.0439 23.9375 16.0001 23.9375ZM15.8751 10.5C12.8376 10.5 10.3751 12.9625 10.3751 16C10.3751 19.0375 12.8376 21.5 15.8751 21.5C18.9126 21.5 21.3752 19.0375 21.3752 16C21.3752 12.9625 18.9126 10.5 15.8751 10.5ZM15.8751 19.5C13.9408 19.5 12.3751 17.9344 12.3751 16C12.3751 14.0656 13.9408 12.5 15.8751 12.5C17.8095 12.5 19.3752 14.0656 19.3752 16C19.3752 17.9344 17.8095 19.5 15.8751 19.5Z" fill="#6A7FDB"/>
</svg>
