<svg width="109" height="49" viewBox="0 0 109 49" fill="none" xmlns="http://www.w3.org/2000/svg">
<g clip-path="url(#clip0_409_121)">
<g clip-path="url(#clip1_409_121)">
<path fill-rule="evenodd" clip-rule="evenodd" d="M56.1611 30.0194C57.1467 30.6043 58.2725 30.9083 59.4172 30.8985C60.5559 30.9067 61.6753 30.6027 62.6548 30.0194C63.6401 29.4387 64.4572 28.6093 65.0249 27.6136C65.5927 26.6179 65.8915 25.4905 65.8916 24.343C65.8914 23.1893 65.5893 22.0558 65.0155 21.0563C64.4468 20.0711 63.6334 19.2508 62.6548 18.6755C61.6689 18.0996 60.5488 17.7963 59.4084 17.7963C58.2679 17.7963 57.1478 18.0996 56.1619 18.6755C55.1838 19.2488 54.3728 20.0701 53.8101 21.0572C53.234 22.0528 52.935 23.1858 52.9445 24.3373C52.9398 25.484 53.2342 26.612 53.7984 27.6089C54.3626 28.6058 55.1769 29.4369 56.1603 30.0194H56.1611ZM56.988 20.0987C57.7223 19.6591 58.5625 19.4301 59.4172 19.4365C60.2723 19.43 61.1127 19.6591 61.8472 20.0987C62.579 20.531 63.1857 21.1477 63.6075 21.8877C64.0327 22.6373 64.2564 23.4851 64.2564 24.3479C64.2564 25.2106 64.0327 26.0584 63.6075 26.808C63.1861 27.5484 62.5793 28.1651 61.8472 28.5971C61.1102 29.0308 60.2714 29.2594 59.4172 29.2594C58.563 29.2594 57.7242 29.0308 56.9872 28.5971C56.2551 28.1649 55.6481 27.5482 55.2262 26.808C54.8008 26.0583 54.577 25.2103 54.577 24.3475C54.577 23.4846 54.8008 22.6366 55.2262 21.8869C55.6484 21.1467 56.2557 20.53 56.988 20.0979V20.0987ZM48.9307 30.7795H46.8642L42.0042 23.8824H43.8539C44.2891 23.8887 44.7239 23.8557 45.1532 23.7836C45.4199 23.7399 45.6835 23.6743 45.9398 23.5861C46.3396 23.4185 46.6797 23.1328 46.9142 22.7661C47.127 22.4544 47.2463 22.0877 47.2576 21.7088C47.2562 21.3366 47.1392 20.9741 46.9231 20.6718C46.6755 20.3287 46.3433 20.0561 45.9591 19.8809C45.5034 19.6691 45.0056 19.5644 44.5036 19.5749H41.5319L41.5714 30.7803H39.899V17.9146H44.5027C45.093 17.9099 45.6794 18.0102 46.2348 18.2109C46.757 18.3995 47.2382 18.6885 47.6509 19.0609C48.0347 19.4033 48.3461 19.8199 48.5664 20.2857C48.7784 20.7301 48.8896 21.2166 48.8904 21.7088C48.897 22.4674 48.6476 23.2059 48.1828 23.8039C47.9762 24.0777 47.7351 24.3234 47.4655 24.5349C47.1947 24.751 46.9013 24.9372 46.5894 25.0878C46.1571 25.2616 45.6969 25.3551 45.2313 25.3638L48.9307 30.7795V30.7795ZM73.6128 30.5132C74.22 30.7695 74.8723 30.9005 75.531 30.8985C76.192 30.9035 76.847 30.7729 77.456 30.5147C78.0649 30.2565 78.615 29.8761 79.0724 29.3969C80.0004 28.4402 80.5164 27.1552 80.5087 25.8196V17.9146H78.8766V25.8204C78.8776 26.2743 78.7909 26.7241 78.6211 27.1448C78.4547 27.5591 78.2069 27.9354 77.8925 28.2514C77.5815 28.5648 77.2142 28.8161 76.8101 28.9921C76.4071 29.1694 75.971 29.2601 75.531 29.2592C74.6525 29.2592 73.865 28.9225 73.1703 28.2506C72.8555 27.9351 72.6079 27.5586 72.4425 27.144C72.2714 26.7237 72.1844 26.2736 72.1862 25.8196V17.9146H70.5533V25.8196C70.55 26.4869 70.677 27.1483 70.9273 27.7665C71.1755 28.3777 71.543 28.9322 72.0097 29.3969C72.4598 29.8782 73.0061 30.2587 73.6128 30.5132V30.5132ZM95.5223 17.9146V19.5741H91.1741V30.7803H89.5017V19.5749H85.1535V17.9154H95.5223V17.9146ZM100.166 17.9146V30.7803H108.351V29.1386H101.798V25.1663H106.816V23.5068H101.798V19.5749H108.351V17.9154H100.166V17.9146Z" fill="white"/>
<path fill-rule="evenodd" clip-rule="evenodd" d="M24.2938 24.5461C25.3303 25.5968 26.3772 26.6565 27.4451 27.7218C26.9841 28.1541 26.5295 28.5961 26.0734 29.0389C25.02 30.0622 23.9625 31.0887 22.814 32.0042C21.414 33.1198 19.765 33.1473 18.3747 31.8966C16.4565 30.1739 14.577 28.4027 12.7878 26.5529L12.6628 26.4234C10.8212 24.5178 8.99566 22.6275 5.92491 21.9208C6.52617 21.3784 7.09679 20.8458 7.65291 20.326C8.86509 19.1943 10.008 18.1282 11.2435 17.177C13.2681 15.6203 15.0267 15.5579 16.903 17.2879C19.4217 19.6112 21.8299 22.0511 24.2938 24.5461V24.5461ZM8.65393 26.4371C6.639 28.397 4.64826 30.3358 2.55193 32.3742C0.0236001 30.5204 0.632108 27.5138 2.21503 25.9611C3.93417 24.2741 7.42885 24.3267 8.65393 26.4371V26.4371Z" fill="white"/>
</g>
</g>
<defs>
<clipPath id="clip0_409_121">
<rect width="108" height="49" fill="white" transform="translate(0.840088)"/>
</clipPath>
<clipPath id="clip1_409_121">
<rect width="108" height="17" fill="white" transform="translate(0.840088 16)"/>
</clipPath>
</defs>
</svg>
