<svg width="78" height="51" viewBox="0 0 78 51" fill="none" xmlns="http://www.w3.org/2000/svg">
<g clip-path="url(#clip0_1231_336)">
<path fill-rule="evenodd" clip-rule="evenodd" d="M67.8664 13.7222L68.3307 14.305L77.3969 25.82L67.9024 37.8722C67.8959 37.8782 67.8928 37.8842 67.8897 37.8904C67.8869 37.8959 67.884 37.9014 67.8786 37.9072C67.7242 38.0936 67.5688 38.2686 67.3906 38.4322C66.4317 39.3231 65.1677 39.8155 63.8568 39.8086H0.379333V11.8086H63.8445C65.1778 11.8086 66.4391 12.2986 67.3783 13.185C67.5536 13.3523 67.7167 13.5318 67.8664 13.7222ZM51.3622 25.4534C51.3622 29.0584 54.2297 31.8698 57.8829 31.8698C61.4878 31.8698 64.4274 29.0698 64.4274 25.6284C64.431 24.7891 64.263 23.9579 63.9336 23.1855C63.6041 22.4131 63.1202 21.7158 62.5112 21.1362C61.2859 19.9698 59.6559 19.3162 57.9066 19.3162C54.3017 19.3162 51.3622 22.0698 51.3622 25.4534ZM54.7775 22.6534C55.5744 21.9062 56.6804 21.4862 57.8829 21.4862C59.0608 21.4862 60.1431 21.8834 60.9761 22.6184C61.8091 23.3648 62.2734 24.4034 62.2734 25.5348C62.2733 26.09 62.1592 26.6394 61.9382 27.149C61.7172 27.6587 61.394 28.1179 60.9884 28.4984C60.1677 29.2798 59.0845 29.6998 57.9189 29.6998C56.7884 29.6998 55.6701 29.2798 54.8486 28.5448C53.9919 27.7862 53.5284 26.7598 53.5284 25.6512C53.5284 24.4848 53.9682 23.4112 54.7775 22.6534ZM23.6518 29.8284C24.0679 30.4348 25.3406 31.8234 28.2565 31.8234C29.4827 31.8234 31.7069 31.5898 32.8725 30.0734C33.6941 29.0348 33.7529 28.1484 33.7529 27.0048V19.6548H31.5998V27.0048C31.5998 28.0198 31.3496 28.7084 30.8379 29.1162C30.3499 29.4898 29.624 29.6648 28.518 29.6648C27.161 29.6648 26.2455 29.4198 25.7101 28.8948C25.1747 28.3584 25.1264 27.7748 25.1264 27.0048V19.6548H22.9496V27.0048C22.9496 27.9962 23.0093 28.8948 23.6518 29.8284ZM43.7837 27.2734L46.2344 31.5898H48.7096L46.1273 27.1212C47.7222 26.6312 48.7096 25.2434 48.7096 23.4812C48.7096 21.2298 47.0911 19.6548 44.7826 19.6548H37.6202V31.5898H39.8093V27.2734H43.7837ZM46.5434 23.3998C46.5434 24.9634 45.318 25.1262 44.7949 25.1262H39.8216V21.7898H44.7949C45.8771 21.7898 46.5434 22.4084 46.5434 23.3998ZM13.2286 21.8012V31.5898H13.2295H15.3712V21.8012H19.5343V19.6548H9.0646V21.8012H13.2286Z" fill="white"/>
</g>
<defs>
<clipPath id="clip0_1231_336">
<rect width="78" height="29" fill="white" transform="translate(0 11.4043)"/>
</clipPath>
</defs>
</svg>
