<svg width="24" height="24" viewBox="0 0 24 24" fill="none" xmlns="http://www.w3.org/2000/svg">
<path d="M20.625 2.62512H3.375C2.96016 2.62512 2.625 2.96028 2.625 3.37512V20.6251C2.625 21.04 2.96016 21.3751 3.375 21.3751H20.625C21.0398 21.3751 21.375 21.04 21.375 20.6251V3.37512C21.375 2.96028 21.0398 2.62512 20.625 2.62512ZM9.46875 16.0079V17.8126C9.46875 17.9157 9.38438 18.0001 9.28125 18.0001H8.15625C8.05312 18.0001 7.96875 17.9157 7.96875 17.8126V16.0079C6.99141 15.6892 6.28125 14.7704 6.28125 13.6876C6.28125 12.6048 6.99141 11.6837 7.96875 11.3673V6.18762C7.96875 6.0845 8.05312 6.00012 8.15625 6.00012H9.28125C9.38438 6.00012 9.46875 6.0845 9.46875 6.18762V11.3673C10.4461 11.6861 11.1562 12.6048 11.1562 13.6876C11.1562 14.7704 10.4461 15.6915 9.46875 16.0079ZM16.0219 12.6353C16.0266 12.6353 16.0289 12.6329 16.0312 12.6329V17.8126C16.0312 17.9157 15.9469 18.0001 15.8438 18.0001H14.7188C14.6156 18.0001 14.5312 17.9157 14.5312 17.8126V12.6329C14.5359 12.6329 14.5383 12.6353 14.5406 12.6353C13.5563 12.3212 12.8438 11.4001 12.8438 10.3126C12.8438 9.22512 13.5563 8.30403 14.5406 7.98997C14.5359 7.98997 14.5336 7.99231 14.5312 7.99231V6.18762C14.5312 6.0845 14.6156 6.00012 14.7188 6.00012H15.8438C15.9469 6.00012 16.0312 6.0845 16.0312 6.18762V7.99231C16.0266 7.99231 16.0242 7.98997 16.0219 7.98997C17.0062 8.30403 17.7188 9.22512 17.7188 10.3126C17.7188 11.4001 17.0062 12.3212 16.0219 12.6353ZM14.4375 10.3126C14.4375 10.5364 14.5264 10.751 14.6846 10.9092C14.8429 11.0675 15.0575 11.1564 15.2812 11.1564C15.505 11.1564 15.7196 11.0675 15.8779 10.9092C16.0361 10.751 16.125 10.5364 16.125 10.3126C16.125 10.0888 16.0361 9.87423 15.8779 9.716C15.7196 9.55777 15.505 9.46887 15.2812 9.46887C15.0575 9.46887 14.8429 9.55777 14.6846 9.716C14.5264 9.87423 14.4375 10.0888 14.4375 10.3126ZM9.45469 13.2775L9.41953 13.2212C9.41953 13.2189 9.41719 13.2189 9.41719 13.2165L9.39609 13.1884C9.39375 13.1861 9.39141 13.1837 9.39141 13.1814C9.36797 13.1509 9.34453 13.1228 9.31641 13.097L9.31172 13.0923C9.30234 13.0829 9.29297 13.0736 9.28359 13.0665C9.26484 13.0478 9.24375 13.0314 9.22266 13.0173H9.22031L9.19219 12.9962C9.18984 12.9939 9.18516 12.9915 9.18281 12.9892C9.15469 12.9704 9.12422 12.9517 9.09141 12.9376C9.08672 12.9353 9.07969 12.9329 9.075 12.9282C9.06563 12.9236 9.05859 12.9212 9.04922 12.9165C9.04219 12.9142 9.03281 12.9095 9.02578 12.9072C9.01406 12.9025 9.00234 12.8978 8.99063 12.8954C8.98125 12.8931 8.96953 12.8884 8.96016 12.8861L8.93906 12.879L8.90625 12.872C8.90156 12.8697 8.89453 12.8697 8.88984 12.8673C8.87344 12.865 8.85703 12.8603 8.84063 12.8579C8.83594 12.8579 8.83125 12.8579 8.82656 12.8556C8.8125 12.8532 8.80078 12.8532 8.78672 12.8509C8.78203 12.8509 8.77734 12.8509 8.77031 12.8486C8.75156 12.8486 8.73516 12.8462 8.71641 12.8462C8.69766 12.8462 8.68125 12.8462 8.6625 12.8486C8.65781 12.8486 8.65312 12.8486 8.64609 12.8509C8.63203 12.8509 8.61797 12.8532 8.60625 12.8556C8.60156 12.8556 8.59688 12.8556 8.59219 12.8579C8.57578 12.8603 8.55937 12.8626 8.54297 12.8673C8.53828 12.8697 8.53125 12.8697 8.52656 12.872L8.49375 12.879L8.47266 12.8861C8.46328 12.8884 8.45156 12.8931 8.44219 12.8954C8.43047 12.9001 8.41875 12.9048 8.40703 12.9072C8.4 12.9095 8.39063 12.9142 8.38359 12.9165C8.37422 12.9212 8.36719 12.9236 8.35781 12.9282C8.35313 12.9306 8.34609 12.9329 8.34141 12.9376C8.31094 12.954 8.28047 12.9704 8.25 12.9892C8.24766 12.9915 8.24297 12.9939 8.24063 12.9962L8.2125 13.0173H8.21016C8.18906 13.0337 8.16797 13.0501 8.14922 13.0665C8.13984 13.0759 8.13047 13.0829 8.12109 13.0923L8.11641 13.097C8.09018 13.124 8.06516 13.1522 8.04141 13.1814C8.03906 13.1837 8.03672 13.1861 8.03672 13.1884L8.01562 13.2165C8.01562 13.2189 8.01328 13.2189 8.01328 13.2212L7.97812 13.2775C7.97578 13.2822 7.97344 13.2845 7.97109 13.2892C7.90781 13.4087 7.87031 13.5447 7.87031 13.6876C7.87031 13.8306 7.90781 13.9689 7.97109 14.0861C7.97344 14.0907 7.97578 14.0931 7.97812 14.0978L8.01328 14.154C8.01328 14.1564 8.01562 14.1564 8.01562 14.1587L8.03672 14.1868C8.03906 14.1892 8.04141 14.1915 8.04141 14.1939C8.06484 14.2243 8.08828 14.2525 8.11641 14.2782L8.12109 14.2829C8.13047 14.2923 8.13984 14.3017 8.14922 14.3087C8.16797 14.3275 8.18906 14.3439 8.21016 14.3579H8.2125L8.24063 14.379C8.24297 14.3814 8.24766 14.3837 8.25 14.3861C8.27813 14.4048 8.30859 14.4236 8.34141 14.4376C8.34609 14.44 8.35313 14.4423 8.35781 14.447C8.36719 14.4517 8.37422 14.454 8.38359 14.4587C8.39063 14.4611 8.4 14.4657 8.40703 14.4681C8.41875 14.4728 8.43047 14.4775 8.44219 14.4798C8.45156 14.4822 8.46328 14.4868 8.47266 14.4892L8.49375 14.4962L8.52656 14.5032C8.53125 14.5056 8.53828 14.5056 8.54297 14.5079C8.55937 14.5103 8.57578 14.515 8.59219 14.5173C8.59688 14.5173 8.60156 14.5173 8.60625 14.5197C8.62031 14.522 8.63203 14.522 8.64609 14.5243C8.65078 14.5243 8.65547 14.5243 8.6625 14.5267C8.68125 14.5267 8.69766 14.529 8.71641 14.529C8.73516 14.529 8.75156 14.529 8.77031 14.5267C8.775 14.5267 8.77969 14.5267 8.78672 14.5243C8.80078 14.5243 8.81484 14.522 8.82656 14.5197C8.83125 14.5197 8.83594 14.5197 8.84063 14.5173C8.85703 14.515 8.87344 14.5126 8.88984 14.5079C8.89453 14.5056 8.90156 14.5056 8.90625 14.5032L8.93906 14.4962L8.96016 14.4892C8.96953 14.4868 8.98125 14.4822 8.99063 14.4798C9.00234 14.4751 9.01406 14.4704 9.02578 14.4681C9.03281 14.4657 9.04219 14.4611 9.04922 14.4587C9.05859 14.454 9.06563 14.4517 9.075 14.447C9.07969 14.4447 9.08672 14.4423 9.09141 14.4376C9.12187 14.4212 9.15234 14.4048 9.18281 14.3861C9.18516 14.3837 9.18984 14.3814 9.19219 14.379L9.22031 14.3579H9.22266C9.24375 14.3415 9.26484 14.3251 9.28359 14.3087C9.29297 14.2993 9.30234 14.2923 9.31172 14.2829L9.31641 14.2782C9.34219 14.2525 9.36797 14.222 9.39141 14.1939C9.39375 14.1915 9.39609 14.1892 9.39609 14.1868L9.41719 14.1587C9.41719 14.1564 9.41953 14.1564 9.41953 14.154L9.45469 14.0978C9.45703 14.0931 9.45938 14.0907 9.46172 14.0861C9.525 13.9665 9.5625 13.8306 9.5625 13.6876C9.5625 13.5447 9.525 13.4064 9.46172 13.2892C9.45938 13.2845 9.45703 13.2798 9.45469 13.2775Z" fill="#6A7FDB"/>
</svg>
