<svg width="121" height="50" viewBox="0 0 121 50" fill="none" xmlns="http://www.w3.org/2000/svg">
<g clip-path="url(#clip0_1005_265)">
<g clip-path="url(#clip1_1005_265)">
<path d="M2.56773 32.3887C2.12562 32.3897 1.69117 32.2725 1.30878 32.0489C0.926385 31.8254 0.609746 31.5037 0.391212 31.1166C0.176023 30.7322 0.0687027 30.2961 0.0807469 29.8549C0.0927912 29.4138 0.223746 28.9843 0.459585 28.6124L4.94177 21.5227C5.17118 21.1416 5.49688 20.8287 5.88561 20.616C6.27434 20.4032 6.71217 20.2982 7.15438 20.3117C7.59624 20.3224 8.02737 20.4511 8.40362 20.6847C8.77988 20.9183 9.08776 21.2484 9.29576 21.6413C9.71359 22.4371 9.66136 23.3946 9.16091 24.1416L4.68158 31.2313C4.45442 31.5879 4.14159 31.8809 3.77207 32.0832C3.40256 32.2855 2.98831 32.3906 2.56773 32.3887Z" fill="white"/>
<path d="M10.2558 32.3884C9.3518 32.3884 8.51993 31.9016 8.08311 31.1191C7.8684 30.7358 7.76133 30.3008 7.77338 29.8608C7.78542 29.4209 7.91613 28.9925 8.15148 28.6216L12.6251 21.5482C12.8512 21.1618 13.1757 20.8433 13.5651 20.6259C13.9545 20.4084 14.3945 20.2998 14.8396 20.3114C15.7513 20.3315 16.5774 20.8451 16.9953 21.6486C17.4102 22.4521 17.3495 23.4153 16.8338 24.1604L12.3611 31.2339C12.1347 31.5889 11.8231 31.8808 11.4552 32.0826C11.0872 32.2843 10.6748 32.3895 10.2558 32.3884Z" fill="white"/>
<path d="M17.7722 32.4479C19.0466 32.4479 20.0797 31.4291 20.0797 30.1723C20.0797 28.9155 19.0466 27.8967 17.7722 27.8967C16.4977 27.8967 15.4646 28.9155 15.4646 30.1723C15.4646 31.4291 16.4977 32.4479 17.7722 32.4479Z" fill="white"/>
<path d="M118.019 28.0287C118.716 28.0287 119.133 28.528 119.133 29.3458V32.1484H120.08V29.2817C120.08 27.8909 119.429 27.0846 118.206 27.0846C117.728 27.0846 116.968 27.2166 116.515 28.1033C116.41 27.8417 116.236 27.6138 116.013 27.4437C115.789 27.2736 115.524 27.1677 115.245 27.1372C115.07 27.1049 114.892 27.0942 114.714 27.1056C114.324 27.1372 113.631 27.3811 113.372 27.934V27.1908H112.424V32.1484H113.372V29.473C113.372 28.4323 114.048 28.0287 114.725 28.0287C115.359 28.0287 115.776 28.5174 115.776 29.3353V32.1484H116.718V29.473C116.718 28.6447 117.212 28.0191 118.019 28.0287ZM108.946 31.3201C109.379 31.3296 109.797 31.1555 110.1 30.8399C110.403 30.5242 110.565 30.0948 110.549 29.6538C110.549 28.6552 109.819 28.0287 108.946 28.0287C108.071 28.0287 107.343 28.6552 107.343 29.6538C107.326 30.0938 107.487 30.5223 107.789 30.837C108.091 31.1527 108.507 31.3277 108.938 31.3201H108.946ZM108.946 32.2498C107.561 32.2498 106.406 31.2196 106.406 29.6481C106.406 28.0765 107.561 27.0788 108.946 27.0788C110.33 27.0788 111.495 28.0765 111.495 29.6481C111.495 31.2196 110.324 32.2546 108.939 32.2546L108.946 32.2498ZM101.529 29.6481L101.52 29.6538C101.52 28.0822 102.706 27.0846 104.1 27.0788C104.45 27.072 104.798 27.1393 105.121 27.2764C105.443 27.4135 105.734 27.6173 105.973 27.8747L105.256 28.4907C105.103 28.3398 104.922 28.2209 104.724 28.1408C104.526 28.0607 104.314 28.021 104.1 28.0239C103.226 28.0239 102.467 28.6504 102.467 29.6481C102.467 30.3224 102.864 30.9298 103.475 31.1881C104.086 31.4463 104.788 31.3028 105.256 30.8265L105.984 31.4425C105.744 31.7025 105.452 31.9087 105.127 32.0478C104.802 32.1869 104.453 32.2557 104.1 32.2498C102.716 32.2498 101.529 31.2196 101.529 29.6481ZM98.4971 31.1967C98.4961 31.11 98.5121 31.024 98.5441 30.9435C98.5761 30.863 98.6235 30.7897 98.6836 30.7277C98.7438 30.6657 98.8155 30.6163 98.8946 30.5822C98.9737 30.5481 99.0587 30.53 99.1448 30.529C99.2308 30.53 99.3158 30.5481 99.3949 30.5822C99.474 30.6163 99.5457 30.6657 99.6059 30.7277C99.666 30.7897 99.7134 30.863 99.7454 30.9435C99.7774 31.024 99.7934 31.11 99.7924 31.1967C99.7839 31.3645 99.7122 31.5228 99.5919 31.6392C99.4715 31.7557 99.3116 31.8215 99.1448 31.8232C98.9779 31.8215 98.818 31.7557 98.6976 31.6392C98.5773 31.5228 98.5056 31.3645 98.4971 31.1967Z" fill="white"/>
<path fill-rule="evenodd" clip-rule="evenodd" d="M101.088 20.8883H97.7155L95.3519 27.0263L93.0006 20.8883H89.6285L93.728 30.5875L91.1783 37H94.5257L101.088 20.8883ZM80.5797 26.2831C80.5797 27.8327 81.9243 28.8523 83.2452 28.8523C84.5434 28.8523 85.8187 27.9035 85.8187 26.2822C85.8187 24.6609 84.5434 23.711 83.2452 23.711C81.9243 23.711 80.5797 24.7326 80.5797 26.2831ZM85.8187 31.699V30.4717C85.135 31.5143 83.5396 31.9084 82.721 31.9084C80.0108 31.9084 77.2997 29.7563 77.2997 26.2822C77.2997 22.809 80.0099 20.6569 82.721 20.6569C83.4038 20.6569 84.9992 20.8864 85.8187 22.0917V20.8922H88.9619V31.7009L85.8187 31.699ZM76.4051 31.699H73.2619V30.356C72.7368 31.3508 71.4633 31.9304 70.1415 31.9304C67.4075 31.9304 64.9927 29.7314 64.9927 26.3262C64.9927 22.8569 67.4075 20.655 70.1415 20.655C71.4614 20.655 72.7387 21.2097 73.2619 22.2055V15H76.4051V31.699ZM73.1935 26.2583C73.1935 24.6379 72.0322 23.6881 70.734 23.6881C69.3894 23.6881 68.2726 24.7068 68.2726 26.2583C68.2726 27.8595 69.3894 28.8734 70.7331 28.8734C72.0559 28.8753 73.1935 27.8097 73.1935 26.2583ZM57.221 25.979C57.221 24.3357 58.0643 23.7799 59.1801 23.7799C60.2503 23.7799 61.0252 24.4973 61.0252 25.9321V31.697H64.1912V25.2386C64.1912 22.1605 62.687 20.655 60.2949 20.655C59.0424 20.655 57.7898 21.3723 57.2201 22.4609V20.8883H54.0559V31.697H57.221V25.979ZM47.627 31.8826C44.6206 31.8826 42.1126 29.6606 42.1126 26.2573C42.1126 22.8521 44.6177 20.6521 47.627 20.6521C50.6364 20.6521 53.1633 22.8521 53.1633 26.2573C53.1633 29.6625 50.6335 31.8826 47.627 31.8826ZM47.627 28.7357C48.947 28.7357 50.0419 27.7619 50.0419 26.2583C50.0419 24.7996 48.948 23.8038 47.627 23.8038C47.309 23.7988 46.9933 23.8591 46.6991 23.9809C46.4049 24.1028 46.1384 24.2837 45.9158 24.5126C45.692 24.7428 45.5164 25.0159 45.3994 25.3158C45.2824 25.6157 45.2265 25.9362 45.235 26.2583C45.2359 27.7638 46.3289 28.7357 47.627 28.7357ZM36.4368 23.7809C37.3702 23.7809 38.1907 24.5222 38.1907 25.933V31.699H41.3339V25.56C41.3339 22.2963 39.7585 20.653 37.2335 20.653C36.4833 20.653 35.0703 20.8826 34.0447 22.5737C33.4521 21.3236 32.3135 20.675 30.6308 20.675C30.0466 20.6721 29.4739 20.8386 28.9811 21.1548C28.4884 21.471 28.0965 21.9234 27.8522 22.458V20.8893H24.6843V31.698H27.8494V25.979C27.8494 24.3357 28.7382 23.7799 29.6945 23.7799C30.6061 23.7799 31.4247 24.4973 31.4484 25.8632V31.698H34.6145V25.979C34.6145 24.4074 35.4349 23.7809 36.4368 23.7809Z" fill="white"/>
</g>
</g>
<defs>
<clipPath id="clip0_1005_265">
<rect width="120" height="50" fill="white" transform="translate(0.0800781)"/>
</clipPath>
<clipPath id="clip1_1005_265">
<rect width="120" height="22" fill="white" transform="translate(0.0800781 15)"/>
</clipPath>
</defs>
</svg>
