<svg width="95" height="50" viewBox="0 0 95 50" fill="none" xmlns="http://www.w3.org/2000/svg">
<g clip-path="url(#clip0_410_237)">
<g clip-path="url(#clip1_410_237)">
<path d="M27.5033 32.6506C27.2061 32.3695 27.008 31.9679 26.9089 31.4859C26.3343 32.0281 25.7002 32.4498 24.9869 32.7309C24.0556 33.1125 23.0451 33.2932 21.9553 33.2932C21.2618 33.2932 20.5881 33.2129 19.9738 33.0723C19.3398 32.9116 18.7652 32.6506 18.2698 32.2892C17.7744 31.9076 17.3781 31.4257 17.1007 30.8434C16.8233 30.261 16.6648 29.5582 16.6648 28.7349C16.6648 27.8112 16.8233 27.0482 17.1404 26.4659C17.4574 25.8835 17.8735 25.3815 18.3887 25.0201C18.884 24.6586 19.4785 24.3775 20.1125 24.1968C20.7268 24.0161 21.3609 23.8755 21.9949 23.755C22.6686 23.6145 23.3225 23.5141 23.9367 23.4538C24.5114 23.3936 25.0464 23.2932 25.4823 23.1727C25.8786 23.0723 26.1956 22.9116 26.4334 22.7108C26.6117 22.5502 26.7108 22.2892 26.7108 21.9277C26.7108 21.4659 26.6315 21.0843 26.473 20.8233C26.3145 20.5422 26.0965 20.3414 25.8389 20.2008C25.5615 20.0402 25.2445 19.9398 24.9077 19.8996C24.5312 19.8394 24.1547 19.8193 23.798 19.8193C22.8271 19.8193 22.0345 20 21.4005 20.3614C20.8259 20.7028 20.5088 21.3253 20.4692 22.3092L20.4494 22.6707H17.2394L17.2593 22.2691C17.2989 21.2851 17.497 20.4217 17.8735 19.739C18.25 19.0562 18.7453 18.4739 19.3794 18.0522C19.9937 17.6305 20.707 17.3092 21.4996 17.1285C22.8866 16.8072 24.4717 16.7871 25.9974 17.008C26.6117 17.1084 27.1863 17.2892 27.7015 17.5301C25.1256 13.012 20.3503 10 14.8815 10C6.69812 10 0.0800781 16.7068 0.0800781 25C0.0800781 33.2932 6.69812 40 14.8815 40C20.2711 40 25.0067 37.0683 27.5826 32.6908C27.5628 32.6707 27.5232 32.6707 27.5033 32.6506Z" fill="white"/>
<path d="M35.1517 33.3133C34.1213 33.3133 33.2693 33.1727 32.5758 32.8916C31.8625 32.6105 31.2879 32.1888 30.852 31.6667C30.416 31.1446 30.099 30.502 29.9207 29.7791C29.7423 29.0763 29.6631 28.2932 29.6631 27.4699V17.1687H32.8532V27.751C32.8532 28.5944 33.0712 29.2169 33.5467 29.6988C34.0223 30.1807 34.6563 30.4016 35.4885 30.4016C36.1821 30.4016 36.7963 30.3012 37.2917 30.0803C37.787 29.8795 38.2031 29.5783 38.5202 29.1968C38.857 28.8153 39.0948 28.3534 39.2731 27.8314C39.4514 27.3093 39.5307 26.7069 39.5307 26.0643V17.1687H42.7208V32.992H39.6694V31.3655C39.2335 31.8876 38.7381 32.3093 38.1833 32.6105C37.3115 33.0924 36.3009 33.3133 35.1517 33.3133Z" fill="white"/>
<path d="M50.5675 39.0965C49.8541 39.0965 49.121 39.0161 48.3681 38.8555C47.6151 38.6949 46.9216 38.4137 46.3074 38.0523C45.6733 37.6708 45.1581 37.1688 44.742 36.5663C44.3259 35.9439 44.0881 35.1808 44.0485 34.2973L44.0287 33.8957H47.2188L47.2386 34.2571C47.2584 34.6186 47.3575 34.9198 47.5755 35.1607C47.7934 35.4218 48.0708 35.6627 48.4077 35.8234C48.7445 36.0041 49.121 36.1246 49.5371 36.2049C50.7656 36.4459 51.8554 36.3254 52.6084 35.9439C53.1037 35.6828 53.5198 35.3414 53.8567 34.8997C54.1935 34.4579 54.4313 33.8957 54.5898 33.2531C54.7285 32.6507 54.8078 31.988 54.8276 31.2852C54.4313 31.7672 53.9558 32.1487 53.4009 32.4298C52.4895 32.8916 51.5186 33.1326 50.508 33.1326C49.339 33.1326 48.3086 32.9117 47.4368 32.49C46.5649 32.0684 45.8318 31.4659 45.2374 30.7431C44.6429 30.0202 44.207 29.1567 43.9098 28.1929C43.6324 27.229 43.4739 26.225 43.4739 25.1607C43.4739 24.237 43.5928 23.2732 43.8305 22.3093C44.0683 21.3254 44.4844 20.4218 45.0392 19.6186C45.6138 18.8153 46.3668 18.1326 47.2981 17.6105C48.2294 17.0884 49.3786 16.8274 50.726 16.8274C51.7167 16.8274 52.648 17.0483 53.4802 17.49C53.9756 17.7511 54.4313 18.1125 54.8078 18.5342V17.1688H57.8592V31.3254C57.8592 33.8756 57.2648 35.8234 56.0957 37.1286C54.9068 38.4338 53.0443 39.0965 50.5675 39.0965ZM50.8449 19.7792C50.1316 19.7792 49.4975 19.9198 49.0021 20.1808C48.5068 20.4619 48.0907 20.8234 47.7736 21.2852C47.4566 21.7471 47.199 22.2892 47.0603 22.9117C46.9018 23.5342 46.8225 24.1969 46.8225 24.8796C46.8225 25.5423 46.882 26.2049 47.0207 26.8475C47.1396 27.49 47.3575 28.0724 47.6746 28.5744C47.9718 29.0764 48.3681 29.478 48.8436 29.7792C49.3192 30.0804 49.9334 30.241 50.6665 30.241C51.3997 30.241 52.0337 30.0804 52.5291 29.7792C53.0443 29.478 53.4604 29.0563 53.7774 28.5543C54.0945 28.0322 54.3322 27.4499 54.4907 26.7872C54.6493 26.1246 54.7285 25.4419 54.7285 24.7792C54.7285 24.1567 54.6493 23.5342 54.5106 22.9117C54.3719 22.3093 54.1341 21.7672 53.8369 21.3053C53.5396 20.8435 53.1434 20.4619 52.648 20.1808C52.1328 19.9198 51.5384 19.7792 50.8449 19.7792Z" fill="white"/>
<path d="M64.3582 33.3133C63.3279 33.3133 62.4561 33.1727 61.7824 32.8916C61.069 32.6105 60.4944 32.1888 60.0585 31.6667C59.6226 31.1446 59.3055 30.502 59.1272 29.7791C58.9489 29.0763 58.8696 28.2932 58.8696 27.4699V17.1687H62.0598V27.751C62.0598 28.5944 62.2777 29.2169 62.7533 29.6988C63.2288 30.1807 63.8629 30.4016 64.6951 30.4016C65.3886 30.4016 65.983 30.3012 66.4982 30.0803C66.9936 29.8795 67.4097 29.5783 67.7267 29.1968C68.0636 28.8153 68.3013 28.3534 68.4797 27.8314C68.658 27.2892 68.7372 26.7069 68.7372 26.0643V17.1687H71.9274V32.992H68.876V31.3655C68.44 31.8876 67.9447 32.3093 67.3899 32.6105C66.518 33.0924 65.5075 33.3133 64.3582 33.3133Z" fill="white"/>
<path d="M79.239 33.3133C78.387 33.3133 77.5746 33.2129 76.8019 33.0322C76.0093 32.8515 75.296 32.5302 74.6817 32.1085C74.0476 31.6868 73.5523 31.1045 73.1758 30.4017C72.7993 29.6989 72.6012 28.8555 72.5616 27.8716L72.5417 27.47H75.7319L75.7517 27.8314C75.7715 28.3133 75.8706 28.7149 76.0687 29.0362C76.2669 29.3575 76.5245 29.6186 76.8415 29.8194C77.1783 30.0202 77.5548 30.1607 77.9907 30.2611C78.7635 30.4218 79.5957 30.4418 80.527 30.3214C80.9233 30.2611 81.2799 30.1607 81.597 30.0202C81.8942 29.8796 82.132 29.6989 82.3301 29.4579C82.5084 29.217 82.5877 28.9157 82.5877 28.5342C82.5877 28.0121 82.4094 27.6507 82.0329 27.3896C81.597 27.0884 81.0224 26.8274 80.3487 26.6467C79.6552 26.4459 78.8626 26.2651 78.0304 26.1045C77.1585 25.9439 76.3461 25.7029 75.613 25.3816C74.8402 25.0603 74.1863 24.5985 73.6712 24.0161C73.1362 23.3937 72.8588 22.5503 72.8588 21.486C72.8588 20.6627 73.0371 19.9398 73.4136 19.3374C73.7702 18.7551 74.2458 18.2732 74.8204 17.8916C75.3752 17.5302 76.0093 17.2692 76.7226 17.0884C77.4161 16.9278 78.1096 16.8274 78.7833 16.8274C79.6552 16.8274 80.4675 16.9077 81.1809 17.0483C81.9338 17.2089 82.6075 17.47 83.2019 17.8515C83.7964 18.2531 84.2719 18.7752 84.6286 19.4378C84.9853 20.1005 85.1834 20.9238 85.2428 21.8876L85.2627 22.2892H82.1122L82.0923 21.9479C82.0527 21.5262 81.9536 21.1848 81.7753 20.9238C81.597 20.6427 81.379 20.4418 81.0818 20.2611C80.7846 20.0804 80.4675 19.9599 80.1109 19.8796C79.4174 19.719 78.6842 19.719 77.9511 19.8394C77.6143 19.8997 77.2972 19.98 77.0396 20.1206C76.782 20.241 76.5839 20.4017 76.4254 20.6025C76.2867 20.7832 76.2272 21.0041 76.2272 21.3053C76.2272 21.6266 76.3263 21.8876 76.5443 22.0884C76.8019 22.3294 77.1585 22.5503 77.5548 22.7109C77.9907 22.8916 78.4861 23.0322 79.0409 23.1527C79.6155 23.2732 80.1901 23.4137 80.7648 23.5543C81.379 23.6949 81.9933 23.8555 82.5877 24.0563C83.2019 24.2571 83.7568 24.5382 84.2323 24.8796C84.7277 25.241 85.124 25.6828 85.441 26.2049C85.758 26.7471 85.9165 27.4298 85.9165 28.1929C85.9165 29.1768 85.6986 30.0001 85.3023 30.6627C84.906 31.3053 84.371 31.8475 83.7171 32.2491C83.0831 32.6306 82.3499 32.9117 81.5573 33.0724C80.7846 33.2531 80.0118 33.3133 79.239 33.3133Z" fill="white"/>
<path d="M94.0802 33.012H91.8411C91.1872 33.012 90.6126 32.9719 90.1371 32.8715C89.6219 32.7711 89.2058 32.5903 88.8689 32.3092C88.5321 32.0281 88.2943 31.6265 88.1358 31.1446C87.9971 30.6827 87.9178 30.0803 87.9178 29.3373V20.1205H85.3816V17.1686H87.9178V12.6707H91.108V17.1887H94.0603V20.1405H91.108V29.1164C91.108 29.3775 91.1278 29.5783 91.1674 29.7188C91.1872 29.8193 91.2269 29.8795 91.2863 29.9197C91.3458 29.9598 91.4646 30.0201 91.6826 30.0401C91.9006 30.0602 92.1978 30.0803 92.5743 30.0803H94.0603V33.012H94.0802Z" fill="white"/>
</g>
</g>
<defs>
<clipPath id="clip0_410_237">
<rect width="94" height="50" fill="white" transform="translate(0.0800781)"/>
</clipPath>
<clipPath id="clip1_410_237">
<rect width="94" height="30" fill="white" transform="translate(0.0800781 10)"/>
</clipPath>
</defs>
</svg>
