<svg width="99" height="50" viewBox="0 0 99 50" fill="none" xmlns="http://www.w3.org/2000/svg">
<path d="M38.4599 35.9577C37.2163 31.4811 33.5958 28.5247 29.5967 26.7877C26.6624 25.5126 23.5683 24.9367 20.8845 24.7267C20.8426 24.1269 20.8121 23.5227 20.7955 22.916C20.7815 22.4319 20.7772 21.9494 20.7798 21.4704C23.5142 21.2193 26.2714 20.2964 28.3792 18.3846C30.9495 16.0528 32.8173 11.595 30.727 7.82024C29.8777 6.3823 28.545 5.46709 26.9766 5.24343C25.0608 4.97092 23.2969 5.66418 21.8786 7.24866C20.6803 8.58804 19.756 10.5179 19.1302 12.9841C18.61 15.0365 18.3011 17.3639 18.1972 19.7951C17.6788 19.7633 17.1437 19.7051 16.5904 19.6151C15.8756 19.496 15.1136 19.3083 14.3281 19.0495C13.8454 15.9603 12.97 13.4092 11.7211 11.4648C10.5585 9.65408 9.07739 8.43378 7.54826 8.02847C6.0488 7.63085 4.63924 8.03875 3.77695 9.12019C2.94604 10.1622 2.89716 11.6439 3.61023 13.2189C5.00234 16.2979 8.33117 18.6459 11.8267 20.0461C12.0711 21.9014 12.0239 23.7687 11.6914 25.5562C9.72151 26.115 6.68682 27.0645 3.63904 29.5153C1.78785 31.0038 -0.640252 34.746 1.59322 36.8507C2.22512 37.4145 3.06562 37.7042 4.03442 37.7042C4.47779 37.7042 4.94909 37.6433 5.43872 37.5208C6.84566 37.1677 8.27354 36.3425 9.5679 35.1325C11.3894 33.4298 13.2598 30.5076 14.1186 26.7465C15.4819 26.4946 16.9238 26.3601 18.3979 26.3489C18.6589 28.894 19.1293 31.3877 19.8066 33.6423C21.1481 38.1078 23.2349 41.3821 26.0104 43.3728C28.5144 45.169 30.809 45.3146 31.4522 45.3164H31.4776C34.4965 45.3164 36.9752 43.7869 38.1124 41.221C38.734 39.8182 39.0053 37.8481 38.4617 35.9569L38.4599 35.9577ZM26.5995 7.78767C27.5745 7.9265 28.1505 8.58378 28.4612 9.10993C29.6901 11.2403 29.2834 15.6655 25.4955 18.0958C24.3076 18.8576 22.7339 19.4797 20.8252 19.7188C20.9325 17.4856 21.2196 15.3827 21.67 13.6054C23.1093 7.92564 25.5967 7.64456 26.5995 7.78767ZM7.16687 14.4247C5.76516 12.865 5.44137 11.2017 5.83847 10.7038C6.10555 10.3687 6.59606 10.4382 6.86487 10.5093C7.74376 10.7424 8.70557 11.5899 9.50508 12.8342C10.3255 14.1127 10.9766 15.7974 11.4243 17.7796C9.9179 16.9492 8.44199 15.842 7.16772 14.4238L7.16687 14.4247ZM7.76209 33.2704C5.74506 35.1556 3.82056 35.3656 3.35538 34.9491C2.5367 34.2653 3.61896 32.2995 4.96042 31.0638C6.76451 29.4013 8.80335 28.2847 11.2088 27.4955C11.1625 27.6429 11.1145 27.7903 11.063 27.9359C10.3185 30.0817 9.14636 31.9764 7.76209 33.2695V33.2704ZM14.4407 24.9375C14.6039 23.6778 14.651 22.341 14.5489 20.9399C15.0918 21.0796 15.6286 21.1953 16.1505 21.2853C16.7955 21.3958 17.4684 21.4729 18.1579 21.5124C18.1544 22.5458 18.1858 23.5896 18.2539 24.6325C16.9508 24.6436 15.6705 24.7439 14.4416 24.9375H14.4407ZM35.7097 40.1962C34.9914 41.8175 33.4483 42.7466 31.4758 42.7466H31.4583C30.8247 42.7447 25.1813 42.4531 22.3167 32.9165C21.7233 30.9395 21.2921 28.7509 21.0399 26.462C23.5849 26.708 26.5079 27.3789 29.0477 28.6703C32.387 30.3688 35.1188 33.0853 35.9907 36.795C36.2413 38.0135 36.1487 39.2047 35.7097 40.1962Z" fill="white"/>
<path d="M47.916 9.29858V21.4671H45.996V15.8113H39.3626V21.4671H37.4426V9.29858H39.3626V14.0117H45.996V9.29858H47.916ZM50.3251 13.2405H52.1579V21.4671H50.3251V13.2405ZM51.2327 11.6123C51.5573 11.6123 51.8392 11.5 52.0707 11.2798C52.3029 11.0587 52.4196 10.7836 52.4196 10.464C52.4196 10.1444 52.3029 9.86842 52.0714 9.64049C51.8403 9.41342 51.5584 9.29858 51.2327 9.29858C50.9074 9.29858 50.628 9.41425 50.4021 9.64136C50.1768 9.86842 50.0631 10.1452 50.0631 10.464C50.0631 10.7828 50.1776 11.057 50.4028 11.279C50.628 11.5 50.9074 11.6123 51.2327 11.6123ZM58.6691 14.783C57.7788 14.783 57.0159 15.1506 56.3998 15.8764V21.4671H54.5667V13.2405H56.3472V13.9029C56.9983 13.3493 57.7961 13.0691 58.7214 13.0691C59.9771 13.0691 61.0046 13.5584 61.7753 14.5242C62.32 15.1994 62.5964 16.1806 62.5964 17.4395V21.4671H60.7636V17.3538C60.7636 16.532 60.6057 15.9218 60.294 15.5388C59.8935 15.0375 59.347 14.783 58.6691 14.783ZM66.3388 21.0951C66.9542 21.4559 67.663 21.6385 68.4432 21.6385C69.3596 21.6385 70.1627 21.3771 70.8347 20.8603V21.1243C70.8347 22.0284 70.6864 22.7105 70.3949 23.1518C70.0066 23.7397 69.3615 24.0379 68.4782 24.0379C67.4415 24.0379 66.5545 23.5649 65.8424 22.6325L65.7839 22.5562L64.438 23.7834L64.4766 23.8434C64.7975 24.3447 65.3161 24.7929 66.0179 25.1751C66.7194 25.5572 67.5714 25.7518 68.5481 25.7518C69.3622 25.7518 70.0913 25.5718 70.7125 25.217C71.3349 24.8623 71.8243 24.3575 72.1692 23.7165C72.5 23.0781 72.6675 22.1775 72.6675 21.0386V13.2405H70.887V13.8823C70.1818 13.3425 69.3493 13.0691 68.4083 13.0691C67.6516 13.0691 66.9612 13.2456 66.3573 13.5953C65.7069 13.9672 65.1792 14.4907 64.7898 15.1515C64.3997 15.813 64.2024 16.5534 64.2024 17.3538C64.2024 18.1542 64.3971 18.892 64.781 19.5475C65.1652 20.2031 65.6896 20.7241 66.3388 21.0951ZM66.7529 15.5354C67.2276 15.0358 67.8437 14.783 68.5831 14.783C69.5054 14.783 70.2632 15.1506 70.8347 15.8747V18.8337C70.2753 19.5578 69.5466 19.9246 68.6703 19.9246C67.9181 19.9246 67.2843 19.6709 66.7867 19.1705C66.2877 18.67 66.0345 18.059 66.0345 17.3538C66.0345 16.6485 66.2763 16.0367 66.7529 15.5354ZM80.7008 21.2014C80.0976 21.4911 79.3918 21.6385 78.6027 21.6385V21.6393C77.3849 21.6393 76.3482 21.2271 75.5208 20.4147C74.6935 19.6024 74.2736 18.5818 74.2736 17.3546C74.2736 16.1275 74.6604 15.0957 75.4229 14.2885C76.1866 13.4796 77.1976 13.0699 78.3583 13.0699C79.5191 13.0699 80.4914 13.483 81.2507 14.2979C82.0074 15.1103 82.3905 16.1386 82.3905 17.3546C82.3905 17.4814 82.3846 17.5997 82.3721 17.7068L82.3636 17.7831H76.0611C76.124 18.4035 76.3901 18.9357 76.8553 19.3659C77.3422 19.8166 77.9358 20.0454 78.6193 20.0454C79.486 20.0454 80.2566 19.6863 80.911 18.9768L80.9713 18.9117L82.1748 20.036L82.1277 20.0968C81.784 20.5399 81.304 20.9118 80.7008 21.2014ZM78.4106 14.663C77.8976 14.663 77.428 14.8215 77.015 15.1334H77.0158C76.6326 15.4231 76.3666 15.795 76.2234 16.2398H80.4635C80.3402 15.8036 80.0925 15.4343 79.7259 15.1403C79.3307 14.8241 78.8879 14.663 78.4106 14.663ZM56.4705 37.3204V25.1519H54.5501V29.865H47.9171V25.1519H45.9967V37.3204H47.9171V31.6646H54.5501V37.3204H56.4705ZM66.2108 33.2071C66.2108 33.3339 66.2045 33.4522 66.1924 33.5593V33.5602L66.1835 33.6364H59.8814C59.944 34.2568 60.2104 34.789 60.6756 35.2192C61.1625 35.6699 61.7561 35.8987 62.4396 35.8987C63.3059 35.8987 64.0766 35.5397 64.7313 34.8301L64.7917 34.765L65.9951 35.8893L65.948 35.9502C65.6043 36.3932 65.1232 36.7651 64.5212 37.0548C63.918 37.3444 63.2117 37.4918 62.4226 37.4918C61.2052 37.4918 60.1685 37.0796 59.3411 36.2672C58.5134 35.4548 58.0939 34.4351 58.0939 33.2071C58.0939 31.9791 58.4803 30.9482 59.2432 30.141C60.0069 29.332 61.0175 28.9224 62.1783 28.9224C63.3394 28.9224 64.3114 29.3355 65.071 30.1504C65.8277 30.9628 66.2108 31.9911 66.2108 33.2071ZM60.8353 30.9868C60.4522 31.2764 60.1869 31.6475 60.0426 32.0931L60.0437 32.0939H64.2838C64.1605 31.6578 63.9128 31.2884 63.5462 30.9945C63.1506 30.6774 62.7082 30.5163 62.2309 30.5163C61.7175 30.5163 61.2479 30.6749 60.8353 30.9868ZM74.1698 29.7357C73.4646 29.1958 72.6318 28.9224 71.6911 28.9224C70.9333 28.9224 70.244 29.0998 69.6401 29.4486C68.9898 29.8205 68.4616 30.3441 68.0723 31.0048C67.6822 31.6663 67.4849 32.4076 67.4849 33.2071C67.4849 34.0066 67.6796 34.7453 68.0638 35.4008C68.4477 36.0564 68.9721 36.5774 69.6217 36.9485C70.237 37.3093 70.9455 37.4918 71.7257 37.4918C72.6745 37.4918 73.4959 37.2201 74.1698 36.6837V37.3204H75.9503V29.0938H74.1698V29.7357ZM74.1172 34.6862C73.5578 35.4103 72.8298 35.777 71.9528 35.777C71.2005 35.777 70.5668 35.5234 70.0685 35.023C69.569 34.5225 69.3162 33.9107 69.3162 33.2063C69.3162 32.5019 69.558 31.8891 70.0342 31.3878C70.5094 30.8882 71.1254 30.6354 71.8648 30.6354C72.7882 30.6354 73.5449 31.0031 74.1164 31.7272V34.6862H74.1172ZM78.2542 24.9805H80.0873V37.3204H78.2542V24.9805ZM81.6408 30.722H83.7356V34.3211C83.7356 35.2869 83.966 36.0273 84.4205 36.5209C85.0053 37.1653 85.8084 37.4918 86.8076 37.4918C87.3261 37.4918 87.7696 37.4327 88.1266 37.3161L88.2017 37.2913L87.8333 35.6528L87.7442 35.6776C87.5087 35.7436 87.2109 35.777 86.8602 35.777C86.367 35.777 86.0075 35.6434 85.7911 35.3777C85.6435 35.2123 85.5684 34.885 85.5684 34.406V30.7211H88.1866V29.0929H85.5684V26.8649H83.7356V29.0929H81.6408V30.7211V30.722ZM93.8947 30.6363C93.0056 30.6363 92.2415 31.0039 91.6254 31.7297V37.3204H89.7926V24.9805H91.6254V29.7022C92.3037 29.1846 93.0839 28.9224 93.947 28.9224C95.2031 28.9224 96.2302 29.4117 97.0009 30.3775C97.5456 31.0528 97.8223 32.034 97.8223 33.2928V37.3204H95.9895V33.2071C95.9895 32.3853 95.8316 31.7752 95.5199 31.3921C95.1191 30.8908 94.573 30.6363 93.8947 30.6363Z" fill="white"/>
</svg>
