<svg width="32" height="32" viewBox="0 0 32 32" fill="none" xmlns="http://www.w3.org/2000/svg">
<path d="M28.5 9.447L24.5 11.7501V7.00012C24.5 5.897 23.6031 5.00012 22.5 5.00012H4C2.89688 5.00012 2 5.897 2 7.00012V25.0001C2 26.1032 2.89688 27.0001 4 27.0001H22.5C23.6031 27.0001 24.5 26.1032 24.5 25.0001V20.2501L28.5 22.5532C29.1656 22.9376 30 22.4564 30 21.6907V10.3126C30 9.54387 29.1656 9.06262 28.5 9.447ZM22.25 24.7501H4.25V7.25012H22.25V24.7501ZM27.75 19.5314L24.5 17.6626V14.3407L27.75 12.4689V19.5314ZM6.5 11.2501H10C10.1375 11.2501 10.25 11.1376 10.25 11.0001V9.50012C10.25 9.36262 10.1375 9.25012 10 9.25012H6.5C6.3625 9.25012 6.25 9.36262 6.25 9.50012V11.0001C6.25 11.1376 6.3625 11.2501 6.5 11.2501Z" fill="#6A7FDB"/>
</svg>
