<svg width="100" height="50" viewBox="0 0 100 50" fill="none" xmlns="http://www.w3.org/2000/svg">
<g clip-path="url(#clip0_1006_454)">
<path d="M69.5687 29.1673C69.0038 28.8966 68.5038 28.504 68.1034 28.0171L66.7161 29.161C67.2832 29.8507 67.9958 30.4023 68.8011 30.7749C69.6064 31.1473 70.484 31.3315 71.3688 31.3135C73.5921 31.3135 75.4096 30.0036 75.4096 27.9064C75.4096 26.2213 74.4645 25.428 72.126 24.8929L70.9144 24.6162C69.8058 24.3456 69.3999 24.1426 69.3999 23.4907C69.3999 22.8388 70.1814 22.2607 71.2173 22.2607C71.7172 22.2373 72.2159 22.3287 72.6763 22.5277C73.1367 22.7268 73.5471 23.0286 73.8769 23.4108L75.3005 22.3038C74.8072 21.7026 74.182 21.2271 73.475 20.9152C72.7681 20.6034 71.999 20.4639 71.2294 20.508C69.0061 20.508 67.3461 21.8487 67.3461 23.6322C67.3461 25.2004 68.1882 26.0122 70.4176 26.5104L71.5081 26.7625C72.6834 27.027 73.3801 27.2115 73.3801 28.0909C73.3801 28.9704 72.5259 29.5854 71.3748 29.5854C70.7501 29.5809 70.1338 29.4382 69.5687 29.1673Z" fill="white"/>
<path d="M59.0039 24.6838L57.6044 20.6802H55.4114L59.2341 31.1352H61.3545L65.1954 20.6802H63.075L61.6756 24.6961L61.4612 25.3246L61.4609 25.3254L61.4597 25.3288C60.9805 26.7324 60.6331 27.75 60.3367 28.669C59.9914 27.5928 59.6097 26.412 59.0039 24.6838Z" fill="white"/>
<path d="M87.1504 23.8722L85.0724 24.2966C84.7089 23.0666 83.9638 22.2917 82.8309 22.2917C81.2618 22.2917 80.3167 23.6631 80.3167 25.9202C80.3167 28.1772 81.3042 29.5548 82.7885 29.5548C84.0849 29.5548 84.927 28.7861 85.3026 26.9534L87.1504 27.2732C86.7142 29.9915 85.1269 31.3629 82.7764 31.3629C79.9654 31.3629 78.0752 29.1366 78.0752 25.9448C78.0752 22.7529 79.9835 20.5328 82.8309 20.5328C83.8179 20.5062 84.7844 20.8229 85.5701 21.4302C86.3556 22.0376 86.9132 22.8992 87.1504 23.8722Z" fill="white"/>
<path fill-rule="evenodd" clip-rule="evenodd" d="M94.5352 31.3382C97.3583 31.3382 99.2303 29.0935 99.2303 25.9201C99.2303 22.7467 97.3402 20.5081 94.5352 20.5081C91.7303 20.5081 89.8098 22.7467 89.8098 25.9201C89.8098 29.0935 91.7121 31.3382 94.5352 31.3382ZM94.5352 29.5547C92.9783 29.5547 92.0513 28.1525 92.0513 25.9201C92.0513 23.7061 92.9964 22.2916 94.5352 22.2916C96.074 22.2916 96.9585 23.6876 96.9585 25.9201C96.9585 28.1525 96.0922 29.5547 94.5352 29.5547Z" fill="white"/>
<path fill-rule="evenodd" clip-rule="evenodd" d="M34.8995 39.816L32.5586 37.1242C33.319 36.4039 34.0116 35.6117 34.626 34.7575L37.532 36.8011C36.7534 37.8928 35.8726 38.9032 34.8995 39.816ZM5.32513 36.8083L8.23656 34.7722C8.85591 35.6314 9.55429 36.4282 10.3213 37.1506L7.97342 39.8356C6.99412 38.92 6.10791 37.905 5.32513 36.8083ZM7.98377 10.1538L10.3284 12.8423C9.55967 13.5655 8.86046 14.3622 8.23987 15.2224L5.33134 13.1825C6.11536 12.0854 7.00322 11.0699 7.98377 10.1538ZM37.5899 13.2807L34.6756 15.3127C34.0646 14.4542 33.3753 13.6575 32.6177 12.933L34.9694 10.2517C35.9388 11.1694 36.8162 12.1845 37.5899 13.2807ZM36.8325 30.5137C37.1754 29.5293 37.4306 28.5028 37.5855 27.444L41.0955 27.8842C40.9039 29.2348 40.5809 30.5428 40.1389 31.794L36.8325 30.5137ZM36.5432 31.2837L39.8473 32.5626C39.3455 33.8179 38.7244 35.0107 37.9954 36.1254L35.0882 34.0804C35.6562 33.2017 36.1452 32.2665 36.5432 31.2837ZM33.8238 34.4764L31.0385 32.2118C31.9355 30.9829 32.6099 29.5775 32.9996 28.0564L36.4774 28.8715C35.9632 30.9308 35.0493 32.8288 33.8238 34.4764ZM28.5255 39.0107L26.9836 35.7441C28.3414 35.0166 29.5453 34.0325 30.5325 32.8552L33.3181 35.1199C31.996 36.7184 30.3675 38.0447 28.5255 39.0107ZM29.389 39.4749C30.3004 38.9557 31.1582 38.3513 31.9516 37.6714L34.2908 40.3615C33.2843 41.2318 32.1925 42.0028 31.0281 42.6585L29.389 39.4749ZM25.7544 40.9903C26.7697 40.7068 27.7452 40.327 28.6716 39.8596L30.3096 43.0411C29.1329 43.64 27.8913 44.1252 26.5963 44.4796L25.7544 40.9903ZM21.8649 41.5744C22.9273 41.5455 23.9641 41.4148 24.967 41.1889L25.8082 44.6761C24.5334 44.9689 23.2136 45.1357 21.8598 45.1651L21.8649 41.5744ZM17.9464 41.2031C18.9513 41.4253 19.9902 41.5518 21.054 41.5758L21.0486 45.1667C19.694 45.1411 18.3721 44.9773 17.0957 44.6884L17.9464 41.2031ZM14.2282 39.8843C15.1587 40.3501 16.1388 40.7273 17.1587 41.0078L16.3073 44.4948C15.0081 44.1427 13.7619 43.6594 12.5811 43.0612L14.2282 39.8843ZM13.51 39.5022L11.8621 42.6799C10.6916 42.0252 9.59442 41.2523 8.58244 40.3799L10.9291 37.6966C11.728 38.3782 12.5919 38.9839 13.51 39.5022ZM12.292 32.8229C13.2754 34.0039 14.4756 34.9927 15.831 35.7242L14.2783 38.9851C12.4401 38.0133 10.8153 36.6814 9.49885 35.0784L12.292 32.8229ZM6.36235 28.8178L9.84142 28.0156C10.2262 29.5381 10.8968 30.9455 11.7893 32.1769L8.99451 34.4337C7.77525 32.7817 6.86918 30.8791 6.36235 28.8178ZM6.30691 31.2778C6.70782 32.2685 7.20016 33.2114 7.77401 34.096L4.86092 36.1325C4.12738 35.0116 3.50306 33.8107 2.99913 32.5479L6.30691 31.2778ZM5.26266 27.4117C5.41656 28.4806 5.67225 29.5154 6.01772 30.5083L2.70828 31.7788C2.26435 30.5192 1.94164 29.2021 1.75173 27.8417L5.26266 27.4117ZM6.01896 19.488C5.67349 20.4813 5.41739 21.5165 5.26307 22.5854L1.75256 22.1503C1.94329 20.7895 2.26641 19.4719 2.71118 18.2124L6.01896 19.488ZM6.30857 18.7185L3.00244 17.4434C3.50719 16.18 4.13234 14.9792 4.86713 13.8574L7.77732 15.8986C7.20306 16.7835 6.70948 17.7269 6.30857 18.7185ZM9.08595 15.4479L11.8733 17.7067C10.9717 18.9205 10.2911 20.3111 9.88776 21.8164L6.40497 21.0067C6.93289 18.9629 7.85675 17.0813 9.08595 15.4479ZM14.3618 10.9703L15.9096 14.2346C14.5646 14.9477 13.3697 15.9125 12.385 17.0675L9.59608 14.8074C10.9155 13.2316 12.534 11.9229 14.3618 10.9703ZM13.5216 10.4907C12.6018 11.0094 11.7367 11.6146 10.9362 12.2971L8.59319 9.61036C9.60684 8.73802 10.7053 7.9648 11.8778 7.31002L13.5216 10.4907ZM17.1757 8.98666C16.1545 9.26638 15.1723 9.64312 14.2402 10.1089L12.5977 6.93034C13.7801 6.33226 15.0284 5.84926 16.3291 5.49856L17.1757 8.98666ZM21.0767 8.42302C20.0114 8.44612 18.9708 8.57086 17.9643 8.7922L17.1182 5.3062C18.3962 5.01808 19.7201 4.85638 21.0767 4.83244V8.42302ZM25.0386 8.82748C24.0208 8.59354 22.9675 8.4562 21.8881 8.42596V4.83496C23.2621 4.8673 24.6017 5.04118 25.8942 5.34358L25.0386 8.82748ZM28.7411 10.1761C27.8155 9.70318 26.8404 9.31846 25.8252 9.0295L26.6811 5.54434C27.9761 5.90512 29.2173 6.3961 30.3923 7.00216L28.7411 10.1761ZM29.4564 10.5642L31.1085 7.38856C32.2711 8.05006 33.3604 8.82664 34.3646 9.70276L32.0137 12.3832C31.2223 11.6978 30.3666 11.0883 29.4564 10.5642ZM30.4944 17.0998C29.5131 15.9406 28.322 14.9717 26.9795 14.2535L28.5379 10.9955C30.3625 11.9544 31.9773 13.2681 33.2917 14.849L30.4944 17.0998ZM36.4613 21.0595L32.9761 21.8572C32.5776 20.3497 31.9015 18.9562 31.0046 17.7395L33.7994 15.4912C35.0231 17.1284 35.9412 19.0134 36.4613 21.0595ZM36.5751 18.7987C36.182 17.8125 35.6984 16.8738 35.1337 15.9923L38.0496 13.9595C38.7732 15.0788 39.3893 16.2749 39.8849 17.5332L36.5751 18.7987ZM27.8081 10.636L26.2492 13.8952C24.8901 13.2841 23.3989 12.9242 21.8318 12.8704V9.2479C23.9572 9.30376 25.9765 9.79432 27.8081 10.636ZM21.0204 9.2479V12.8704C19.4677 12.9233 17.9898 13.277 16.6406 13.878L15.0929 10.6137C16.9116 9.7855 18.9141 9.30334 21.0204 9.2479ZM5.89898 25C5.89898 23.9068 6.00986 22.8396 6.21962 21.8085L9.70034 22.6174C9.5485 23.3881 9.46782 24.1847 9.46782 25C9.46782 25.7548 9.5394 26.4931 9.67014 27.2101L6.18735 28.013C5.99993 27.0374 5.89898 26.0306 5.89898 25ZM15.0073 39.3463L16.5604 36.0847C17.9253 36.7049 19.4239 37.072 20.9993 37.1287L20.9931 40.7509C18.8637 40.6912 16.8413 40.1951 15.0073 39.3463ZM21.8044 40.7521L21.8106 37.1296C23.3874 37.0783 24.8872 36.7171 26.2537 36.1023L27.7953 39.3694C25.9592 40.2112 23.9347 40.7 21.8044 40.7521ZM21.4263 36.3157C15.2795 36.3157 10.2791 31.2395 10.2791 25C10.2791 18.7601 15.2795 13.6835 21.4263 13.6835C27.5727 13.6835 32.5731 18.7601 32.5731 25C32.5731 31.2395 27.5727 36.3157 21.4263 36.3157ZM36.9528 25C36.9528 26.05 36.8493 27.0753 36.6553 28.0681L33.1747 27.2521C33.3103 26.5216 33.3843 25.7698 33.3843 25C33.3843 24.199 33.3054 23.4171 33.1593 22.6594L36.6433 21.8622C36.8456 22.8765 36.9528 23.9257 36.9528 25ZM36.8601 19.5698L40.1716 18.3039C40.6078 19.5577 40.9238 20.8672 41.1084 22.2196L37.5966 22.6447C37.4472 21.5842 37.1982 20.5564 36.8601 19.5698ZM1.55107 25C1.55107 24.3142 1.58541 23.6362 1.65161 22.9676L5.16502 23.4028C5.11537 23.9285 5.08806 24.4612 5.08806 25C5.08806 25.5376 5.11537 26.0694 5.16502 26.5939L1.65078 27.0244C1.58541 26.3582 1.55107 25.6834 1.55107 25ZM41.3015 25C41.3015 25.6981 41.2664 26.3872 41.1976 27.0673L37.6843 26.6266C37.736 26.0911 37.7641 25.549 37.7641 25C37.7641 24.4813 37.7372 23.9694 37.6913 23.4624L41.2059 23.0374C41.268 23.6833 41.3015 24.3376 41.3015 25ZM21.4263 4C10.0193 4 0.739746 13.4206 0.739746 25C0.739746 36.5794 10.0193 46 21.4263 46C32.8324 46 42.1129 36.5794 42.1129 25C42.1129 13.4206 32.8324 4 21.4263 4Z" fill="white"/>
</g>
<defs>
<clipPath id="clip0_1006_454">
<rect width="99" height="42" fill="white" transform="translate(0.739746 4)"/>
</clipPath>
</defs>
</svg>
