<svg width="111" height="50" viewBox="0 0 111 50" fill="none" xmlns="http://www.w3.org/2000/svg">
<g clip-path="url(#clip0_1005_334)">
<g clip-path="url(#clip1_1005_334)">
<path fill-rule="evenodd" clip-rule="evenodd" d="M16.9956 14.0674C17.2428 13.8223 17.5057 13.5966 17.7847 13.3906L14.2053 11.6098C13.9068 11.4614 13.5907 11.3867 13.2563 11.3867C12.922 11.3867 12.6059 11.4614 12.3065 11.608L1.59851 16.8892C1.42213 16.9757 1.26136 17.085 1.11529 17.2161C0.969225 17.3472 0.844287 17.4957 0.740478 17.6614C0.636669 17.8271 0.556745 18.0038 0.502544 18.1913C0.447424 18.3789 0.419864 18.571 0.418945 18.7659V31.3261C0.418945 31.5237 0.446505 31.7177 0.501625 31.9071C0.556745 32.0974 0.636669 32.2759 0.742315 32.4434C0.847961 32.6109 0.974737 32.7612 1.12264 32.8932C1.27055 33.0252 1.43315 33.1354 1.61229 33.2219L5.96124 35.3463L12.2807 38.3985C12.5729 38.5405 12.8815 38.6115 13.2067 38.6115C13.5319 38.6115 13.8406 38.5405 14.1328 38.3985L24.8802 33.2684C25.0584 33.1828 25.2219 33.0744 25.3698 32.9424C25.5177 32.8104 25.6445 32.661 25.7502 32.4944C25.8558 32.3278 25.9357 32.1493 25.9909 31.9599C26.0451 31.7705 26.0726 31.5765 26.0726 31.3799V25.074C25.6858 25.3287 25.2779 25.5439 24.8489 25.7195C24.4117 25.8986 23.9619 26.0343 23.4971 26.1266C23.0334 26.2179 22.5651 26.2635 22.0911 26.2635C21.6183 26.2635 21.15 26.2179 20.6852 26.1266C20.2216 26.0354 19.7706 25.8997 19.3334 25.7195C18.8962 25.5405 18.4809 25.3204 18.0874 25.0593C17.6939 24.7981 17.3303 24.5028 16.9956 24.1709C16.6608 23.8391 16.3628 23.4787 16.0993 23.0876C15.837 22.6976 15.6149 22.2859 15.4332 21.8526C15.2525 21.4192 15.1156 20.9722 15.0236 20.5127C14.9315 20.052 14.8855 19.5878 14.8855 19.1191C14.8855 18.6505 14.9315 18.1852 15.0236 17.7256C15.1156 17.2649 15.2525 16.819 15.4332 16.3857C15.6138 15.9524 15.8358 15.5407 16.0993 15.1507C16.3616 14.7607 16.6608 14.3992 16.9956 14.0674ZM2.81299 28.9943L3.93284 29.537H3.93468V26.0341C3.93468 25.2492 4.3885 25.1317 4.63929 25.1317C5.06739 25.1709 6.0623 25.648 6.0623 27.1704V30.6278L7.1895 31.1705C7.1895 31.1705 7.15 28.0919 7.1895 27.4645C7.229 26.8372 7.51838 26.5431 7.88769 26.5822C8.11919 26.6341 8.33416 26.7234 8.53259 26.8508C8.73102 26.9792 8.90097 27.1367 9.04245 27.3252C9.18392 27.5137 9.28865 27.7204 9.35479 27.9462C9.42094 28.1711 9.44574 28.4015 9.4292 28.6355V32.2823L10.6676 32.8906V28.9688C10.6676 26.0341 8.48022 25.23 7.90698 25.1517C7.67548 25.1044 7.44673 25.1117 7.21982 25.1754C6.99291 25.2391 6.79356 25.3511 6.62177 25.5114C6.42793 25.078 6.14314 24.7156 5.76557 24.4251C5.388 24.1346 4.9645 23.9498 4.49322 23.8706C3.35959 23.7267 2.81299 24.7265 2.81299 25.6871V28.9943Z" fill="white"/>
<path d="M27.8448 19.1192C27.8448 19.4934 27.8081 19.865 27.7346 20.2319C27.6611 20.5998 27.5518 20.9558 27.4075 21.3018C27.2633 21.6478 27.086 21.9765 26.8756 22.2879C26.6662 22.5994 26.4273 22.888 26.16 23.153C25.8927 23.418 25.6024 23.6547 25.2882 23.8623C24.974 24.0708 24.6424 24.2466 24.2933 24.3895C23.9442 24.5325 23.585 24.6408 23.2138 24.7146C22.8436 24.7874 22.4697 24.8239 22.0912 24.8239C21.7137 24.8239 21.3398 24.7874 20.9686 24.7146C20.5984 24.6417 20.2383 24.5334 19.8892 24.3895C19.5401 24.2466 19.2085 24.0708 18.8943 23.8623C18.5801 23.6538 18.2898 23.418 18.0225 23.153C17.7551 22.888 17.5172 22.6003 17.3068 22.2879C17.0974 21.9765 16.9201 21.6478 16.7749 21.3018C16.6307 20.9558 16.5214 20.5989 16.4479 20.2319C16.3744 19.864 16.3376 19.4934 16.3376 19.1192C16.3376 18.745 16.3744 18.3735 16.4479 18.0065C16.5214 17.6386 16.6307 17.2826 16.7749 16.9366C16.9192 16.5906 17.0965 16.2619 17.3068 15.9505C17.5163 15.639 17.7551 15.3504 18.0225 15.0854C18.2898 14.8205 18.5801 14.5837 18.8943 14.3761C19.2085 14.1676 19.5401 13.9918 19.8892 13.8489C20.2383 13.7059 20.5975 13.5976 20.9686 13.5238C21.3389 13.451 21.7127 13.4146 22.0912 13.4146C22.4697 13.4146 22.8427 13.451 23.2138 13.5238C23.5841 13.5967 23.9442 13.705 24.2933 13.8489C24.6424 13.9918 24.974 14.1676 25.2882 14.3761C25.6024 14.5846 25.8927 14.8205 26.16 15.0854C26.4273 15.3504 26.6653 15.6381 26.8756 15.9505C27.0851 16.2619 27.2624 16.5906 27.4075 16.9366C27.5518 17.2826 27.6611 17.6395 27.7346 18.0065C27.8081 18.3735 27.8448 18.7441 27.8448 19.1192Z" fill="white"/>
<path d="M109.921 20.5769H107.298V31.714H109.921V20.5769Z" fill="white"/>
<path d="M79.1685 29.5698C76.9673 29.5698 75.6766 28.2168 75.6766 26.3018C75.6766 24.3869 76.6715 22.8836 78.971 22.8836C80.1873 22.8936 81.3402 23.1659 82.4306 23.7004V21.2692C81.3099 20.7993 80.1413 20.5617 78.925 20.5571C75.3533 20.5571 73.0869 22.9947 73.0869 26.3018C73.0869 29.609 75.5645 31.7916 79.1097 31.7916C80.3462 31.7843 81.5368 31.5494 82.6814 31.0859V28.713C81.5689 29.2366 80.3976 29.5216 79.1685 29.5698Z" fill="white"/>
<path d="M44.9706 20.577C44.627 20.5679 44.2871 20.5997 43.9518 20.6726C43.6156 20.7454 43.294 20.8574 42.9854 21.0086C42.6767 21.1597 42.3919 21.3446 42.1292 21.5649C41.8664 21.7853 41.634 22.0329 41.4328 22.3088C41.2215 22.0348 40.9808 21.788 40.7107 21.5695C40.4407 21.3509 40.1494 21.167 39.8353 21.0158C39.522 20.8656 39.1949 20.7527 38.8541 20.6789C38.5142 20.6043 38.1697 20.5706 37.8215 20.577C34.9617 20.577 32.9912 22.714 32.9912 25.5568V31.7195H35.5745V25.3018C35.5598 25.148 35.5616 24.995 35.58 24.8411C35.5984 24.6881 35.6324 24.5379 35.6829 24.3922C35.7334 24.2465 35.7977 24.1072 35.8777 23.9743C35.9576 23.8422 36.0504 23.7193 36.1569 23.6064C36.2635 23.4935 36.3802 23.3924 36.5079 23.3041C36.6356 23.2158 36.7706 23.1411 36.9139 23.081C37.0572 23.0209 37.2051 22.9763 37.3585 22.9471C37.511 22.918 37.6654 22.9053 37.8215 22.9089C37.9796 22.9043 38.1357 22.9153 38.2919 22.9426C38.4472 22.9699 38.5987 23.0136 38.7448 23.0728C38.8909 23.132 39.0296 23.2048 39.161 23.2922C39.2923 23.3797 39.4127 23.4798 39.522 23.5927C39.6322 23.7056 39.7287 23.8277 39.8123 23.9606C39.8959 24.0935 39.9657 24.2329 40.0199 24.3804C40.0741 24.5279 40.1127 24.6781 40.1357 24.8338C40.1586 24.9886 40.1641 25.1443 40.154 25.3009V31.7195H42.6978V25.3018C42.685 25.1471 42.6895 24.9932 42.7088 24.8402C42.7281 24.6872 42.7649 24.537 42.8163 24.3904C42.8678 24.2447 42.9348 24.1054 43.0157 23.9724C43.0965 23.8404 43.1911 23.7175 43.2977 23.6046C43.4052 23.4917 43.5228 23.3915 43.6505 23.3032C43.7791 23.2148 43.915 23.1411 44.0593 23.081C44.2035 23.0209 44.3523 22.9763 44.5057 22.9481C44.6592 22.9189 44.8135 22.9062 44.9697 22.9098C45.1277 22.9053 45.2857 22.9162 45.4409 22.9444C45.5971 22.9717 45.7487 23.0154 45.8957 23.0737C46.0427 23.1329 46.1823 23.2057 46.3137 23.2932C46.445 23.3806 46.5663 23.4807 46.6775 23.5927C46.7886 23.7047 46.886 23.8277 46.9714 23.9606C47.0569 24.0935 47.1276 24.2329 47.1836 24.3804C47.2397 24.5279 47.2801 24.679 47.304 24.8338C47.3288 24.9895 47.3361 25.1452 47.3279 25.3028V31.7195H49.9185V25.5568C49.9305 25.2299 49.9093 24.9048 49.8542 24.5816C49.7991 24.2583 49.7118 23.9442 49.5924 23.6392C49.473 23.3341 49.3232 23.0437 49.1441 22.7687C48.9649 22.4937 48.7592 22.2396 48.5277 22.0065C48.2961 21.7734 48.0426 21.5658 47.7679 21.3837C47.4932 21.2016 47.2029 21.0495 46.897 20.9266C46.5911 20.8037 46.276 20.7126 45.9508 20.6534C45.6274 20.5952 45.3004 20.5688 44.9706 20.577Z" fill="white"/>
<path d="M110.059 17.9164C110.059 18.1067 110.022 18.2906 109.948 18.4663C109.875 18.6421 109.77 18.7978 109.634 18.9325C109.498 19.0673 109.341 19.1711 109.164 19.244C108.987 19.3168 108.801 19.3532 108.609 19.3532C108.417 19.3532 108.231 19.3168 108.054 19.244C107.877 19.1711 107.72 19.0673 107.584 18.9325C107.448 18.7978 107.343 18.6421 107.27 18.4663C107.196 18.2906 107.159 18.1067 107.159 17.9164C107.159 17.726 107.196 17.5421 107.27 17.3664C107.343 17.1906 107.448 17.0349 107.584 16.9002C107.72 16.7654 107.877 16.6616 108.054 16.5888C108.231 16.5159 108.417 16.4795 108.609 16.4795C108.801 16.4795 108.987 16.5159 109.164 16.5888C109.341 16.6616 109.498 16.7654 109.634 16.9002C109.77 17.0349 109.875 17.1906 109.948 17.3664C110.022 17.5421 110.059 17.726 110.059 17.9164Z" fill="white"/>
<path d="M90.4489 29.5372C88.5574 29.5372 87.3787 28.2296 87.3787 26.1845C87.3787 24.2696 88.697 22.8254 90.4489 22.8254C92.3202 22.8254 93.4732 24.133 93.4732 26.1845C93.4465 27.8117 92.4259 29.5372 90.4223 29.5372H90.4489ZM90.4489 20.5773C90.2615 20.57 90.0741 20.5727 89.8867 20.5845C89.6993 20.5964 89.5128 20.6173 89.3282 20.6483C89.1426 20.6792 88.9598 20.7193 88.7788 20.7685C88.5978 20.8176 88.4196 20.8768 88.245 20.9442C88.0705 21.0116 87.8987 21.0881 87.7324 21.1728C87.5652 21.2574 87.4035 21.3512 87.2455 21.4523C87.0884 21.5534 86.9359 21.6626 86.7899 21.7801C86.6438 21.8967 86.5042 22.0214 86.371 22.1525C86.2378 22.2836 86.1119 22.4211 85.9925 22.565C85.8731 22.7089 85.7619 22.8582 85.6581 23.0139C85.5543 23.1696 85.4597 23.329 85.3724 23.4947C85.2851 23.6595 85.207 23.8289 85.1372 24.0019C85.0674 24.1749 85.0077 24.3506 84.9562 24.53C84.9048 24.7094 84.8634 24.8906 84.8304 25.0736C84.7982 25.2566 84.7743 25.4415 84.7615 25.6272C84.7477 25.813 84.744 25.9987 84.7495 26.1854C84.7495 29.4534 86.9966 31.7862 90.2119 31.7862C90.5454 31.799 90.8743 31.7653 91.1976 31.6852C91.521 31.605 91.8269 31.4812 92.1154 31.3146C92.4038 31.1479 92.6629 30.9449 92.8926 30.7045C93.1222 30.465 93.3142 30.1973 93.4667 29.9032V31.7198H96.05V26.1845C96.05 22.779 93.8627 20.5773 90.4489 20.5773Z" fill="white"/>
<path d="M70.4642 22.9098C69.0476 22.9098 68.2172 24.0799 68.2172 25.6288V31.7204H65.6274V25.5577C65.6274 22.715 67.6044 20.5779 70.4642 20.5779H71.393V22.9044L70.4642 22.9098Z" fill="white"/>
<path d="M103.693 22.9098C102.283 22.9098 101.446 24.0799 101.446 25.6288V31.7204H98.8628V25.5577C98.8628 22.715 100.84 20.5779 103.693 20.5779H104.629V22.9044L103.693 22.9098Z" fill="white"/>
<path d="M54.9527 25.0796C54.9812 24.9157 55.0244 24.7555 55.0813 24.5989C55.1383 24.4423 55.209 24.292 55.2926 24.1481C55.3762 24.0043 55.4718 23.8677 55.5802 23.7402C55.6876 23.6127 55.8062 23.4953 55.9348 23.3878C56.0634 23.2804 56.2003 23.1857 56.3454 23.1019C56.4906 23.0191 56.6421 22.9489 56.8001 22.8916C56.9582 22.8342 57.1189 22.7914 57.2843 22.7623C57.4496 22.7331 57.6159 22.7186 57.784 22.7186C57.9522 22.7186 58.1184 22.7331 58.2838 22.7623C58.4491 22.7914 58.6108 22.8342 58.7679 22.8916C58.9259 22.9489 59.0766 23.0191 59.2227 23.1019C59.3678 23.1848 59.5047 23.2804 59.6333 23.3878C59.7619 23.4953 59.8795 23.6118 59.9879 23.7402C60.0954 23.8677 60.1909 24.0034 60.2755 24.1481C60.359 24.292 60.4298 24.4423 60.4867 24.5989C60.5437 24.7555 60.5869 24.9157 60.6154 25.0796H54.9527ZM57.8989 20.5696C57.5286 20.5678 57.1612 20.6024 56.7983 20.6735C56.4345 20.7445 56.0827 20.851 55.7409 20.9931C55.3992 21.1351 55.0749 21.309 54.769 21.5148C54.4621 21.7215 54.1801 21.9555 53.9211 22.2187C53.662 22.4818 53.4323 22.7677 53.2311 23.0764C53.03 23.3851 52.8628 23.7102 52.7277 24.0525C52.5927 24.3949 52.4934 24.7473 52.4301 25.1088C52.3667 25.4712 52.34 25.8354 52.3511 26.2024C52.3511 29.7053 54.8875 31.7841 58.3738 31.7841C59.7785 31.7759 61.1427 31.5382 62.4655 31.072V28.8302C61.195 29.332 59.8777 29.6124 58.5116 29.6734C56.5742 29.6734 55.2173 28.8175 54.9729 27.1047H62.8275C62.8826 26.695 62.9093 26.2834 62.9065 25.8691C62.9194 25.5313 62.8992 25.1962 62.845 24.862C62.7908 24.5288 62.7044 24.2037 62.585 23.8868C62.4655 23.5699 62.3167 23.2685 62.1367 22.9808C61.9575 22.694 61.7508 22.4272 61.5184 22.1804C61.2851 21.9337 61.0306 21.7124 60.7532 21.5166C60.4757 21.3199 60.1817 21.1533 59.8712 21.0149C59.5607 20.8765 59.2392 20.77 58.9066 20.6944C58.575 20.6206 58.2388 20.5788 57.8989 20.5696Z" fill="white"/>
</g>
</g>
<defs>
<clipPath id="clip0_1005_334">
<rect width="110.372" height="50" fill="white" transform="translate(0.0537109)"/>
</clipPath>
<clipPath id="clip1_1005_334">
<rect width="110.005" height="27.3168" fill="white" transform="translate(0.237061 11.3413)"/>
</clipPath>
</defs>
</svg>
