<svg width="80" height="50" viewBox="0 0 80 50" fill="none" xmlns="http://www.w3.org/2000/svg">
<g clip-path="url(#clip0_1006_422)">
<path fill-rule="evenodd" clip-rule="evenodd" d="M21.67 20.7553C23.6471 20.7553 25.0993 21.4088 26.0275 22.716C26.955 24.0232 27.4192 25.5687 27.4192 27.3514V28.3902H18.9124C19.0685 29.2212 19.4497 29.8837 20.057 30.3772C20.6641 30.8706 21.4618 31.117 22.4504 31.117C23.0227 31.117 23.5387 31.0437 23.9983 30.8966C24.4576 30.7497 24.9909 30.5373 25.5982 30.2603L26.5868 32.7015C25.9968 33.1516 25.2814 33.4806 24.4405 33.6881C23.5991 33.8958 22.9097 34 22.3724 34C20.1871 34 18.4655 33.4024 17.2084 32.2081C15.9507 31.0134 15.3223 29.412 15.3223 27.4033C15.3223 25.3953 15.8903 23.7851 17.0263 22.5729C18.162 21.3612 19.7099 20.7553 21.67 20.7553ZM51.119 20.7553C53.0962 20.7553 54.5484 21.4088 55.4765 22.716C56.4041 24.0232 56.868 25.5687 56.868 27.3514V28.3902H48.3615C48.5176 29.2212 48.8985 29.8837 49.5061 30.3772C50.1128 30.8706 50.9106 31.117 51.8995 31.117C52.4715 31.117 52.9875 31.0437 53.4471 30.8966C53.9064 30.7497 54.44 30.5373 55.0473 30.2603L56.0356 32.7015C55.4459 33.1516 54.7305 33.4806 53.8896 33.6881C53.0479 33.8958 52.3588 34 51.8211 34C49.6362 34 47.9146 33.4024 46.6572 32.2081C45.3998 31.0134 44.7714 29.412 44.7714 27.4033C44.7714 25.3953 45.3391 23.7851 46.4751 22.5729C47.6111 21.3612 49.1587 20.7553 51.119 20.7553ZM64.0369 20.8944C67.2816 20.8944 69.3787 22.5668 69.3787 25.0926V33.6881H65.958V31.8171H65.8878C65.1729 33.1035 63.8378 33.8869 62.1858 33.8869C59.6673 33.8869 57.9688 32.3082 57.9688 30.0979V30.0748C57.9688 27.7943 59.7376 26.4609 62.8538 26.2621L65.958 26.0751V25.3035C65.958 24.1923 65.2316 23.5023 63.8962 23.5023C62.6194 23.5023 61.8462 24.0988 61.6823 24.9056L61.6586 25.0109H58.531L58.5429 24.8707C58.7302 22.555 60.7215 20.8944 64.0369 20.8944ZM80 30.2255V33.6882H76.5314V30.2255H80ZM6.60777 16.0285C8.32475 16.0285 9.72059 16.405 10.7962 17.1581C11.8712 17.9116 12.4091 19.1798 12.4091 20.9628C12.4091 21.621 12.257 22.2139 11.9538 22.7417C11.6503 23.2701 11.2555 23.7245 10.7701 24.1051C11.5676 24.5207 12.2226 25.0836 12.7343 25.7932C13.2456 26.5033 13.5017 27.4033 13.5017 28.4941C13.5017 30.1218 12.9334 31.3944 11.7977 32.312C10.6615 33.2296 9.14827 33.6881 7.25814 33.6881H0V16.0285H6.60777ZM35.6139 16.0285C37.539 16.0285 39.1863 16.47 40.5565 17.353C41.9269 18.236 42.6122 19.6038 42.6122 21.4563C42.6122 22.547 42.3298 23.4863 41.7664 24.274C41.2025 25.0618 40.4787 25.6724 39.5942 26.1049L43.939 33.6882H40.3489L36.6025 26.936C36.4114 26.9533 36.2123 26.9663 36.0041 26.9749C35.796 26.9839 35.5879 26.9879 35.3798 26.9879H33.4287V33.6882H30.0728V16.0285H35.6139ZM74.8262 16V33.6882H71.2408V16H74.8262ZM65.958 28.2038L63.3692 28.3671C62.0454 28.4491 61.3542 29.0103 61.3542 29.8994V29.9227C61.3542 30.8464 62.1156 31.3961 63.2987 31.3961C64.8336 31.3961 65.958 30.4139 65.958 29.1041V28.2038ZM7.23213 25.949H3.35592V30.9093H6.99799C7.89955 30.9093 8.62392 30.7018 9.17023 30.286C9.71655 29.8705 9.9897 29.2821 9.9897 28.5201C9.9897 27.689 9.73794 27.0527 9.23527 26.6113C8.73203 26.1701 8.0646 25.949 7.23213 25.949ZM21.5919 23.6377C20.8979 23.6377 20.3172 23.85 19.8489 24.2739C19.3807 24.6984 19.0769 25.3173 18.9384 26.1308H24.2194C24.0457 25.283 23.7335 24.6551 23.2829 24.2482C22.8317 23.8414 22.2683 23.6377 21.5919 23.6377ZM51.0407 23.6377C50.347 23.6377 49.766 23.85 49.298 24.2739C48.8297 24.6984 48.5259 25.3173 48.3872 26.1308H53.6682C53.4948 25.283 53.1826 24.6551 52.732 24.2482C52.2805 23.8414 51.7171 23.6377 51.0407 23.6377ZM35.5099 18.8333H33.4287V24.2351H35.5619C36.5675 24.2351 37.4 24.0319 38.0593 23.6248C38.7184 23.2182 39.0479 22.547 39.0479 21.6121C39.0479 20.6252 38.7357 19.9154 38.1114 19.4826C37.487 19.05 36.6195 18.8333 35.5099 18.8333ZM6.11349 18.8332H3.35592V23.2222H5.85334C6.78988 23.2222 7.52234 23.045 8.0516 22.6898C8.58056 22.3351 8.84505 21.7768 8.84505 21.0147C8.84505 20.184 8.60195 19.6126 8.11663 19.3007C7.63073 18.989 6.96302 18.8332 6.11349 18.8332Z" fill="white"/>
</g>
<defs>
<clipPath id="clip0_1006_422">
<rect width="80" height="18" fill="white" transform="translate(0 16)"/>
</clipPath>
</defs>
</svg>
