<svg width="201" height="150" viewBox="0 0 201 150" fill="none" xmlns="http://www.w3.org/2000/svg">
<g clip-path="url(#clip0_1717_6778)">
<rect y="0.630005" width="201" height="148.74" rx="4.84337" fill="white"/>
<path d="M31.4818 49.2454C31.4818 46.4701 33.7315 44.2204 36.5068 44.2204H131.8C134.575 44.2204 136.825 46.4701 136.825 49.2454V122.744C136.825 125.519 134.575 127.769 131.8 127.769H36.5068C33.7315 127.769 31.4818 125.519 31.4818 122.744V49.2454Z" fill="#F0F0F0"/>
<path d="M1.21082 4.2626C1.21082 2.92514 2.29504 1.84091 3.6325 1.84091H197.367C198.705 1.84091 199.789 2.92514 199.789 4.2626V35.7445H1.21082V4.2626Z" fill="#595959"/>
<rect opacity="0.5" x="40.5871" y="53.4747" width="32.045" height="4.90632" rx="2.45316" fill="#6A7FDB"/>
<rect x="40.5871" y="66.3162" width="78.88" height="4.90632" rx="2.45316" fill="#D9D9D9"/>
<rect x="40.5871" y="78.6653" width="78.88" height="4.90632" rx="2.45316" fill="#D9D9D9"/>
<rect x="161.671" y="44.9656" width="17.748" height="4.90632" rx="2.45316" fill="#D9D9D9"/>
<rect x="161.671" y="57.3144" width="24.65" height="4.90632" rx="2.45316" fill="#D9D9D9"/>
<path d="M23.6358 13.7367C23.6301 13.731 22.4798 14.8681 20.1906 17.1536L18.5843 15.5473L22.0068 12.1248C20.2057 11.0407 17.8919 11.3188 16.3915 12.8191C15.818 13.3923 15.4053 14.1062 15.1948 14.8892C14.9843 15.6722 14.9833 16.4968 15.1921 17.2803L15.2261 17.4071L9.86245 22.7688C9.74515 22.8861 9.74515 23.0791 9.86245 23.1964L12.5377 25.8716C12.655 25.9889 12.8479 25.9889 12.9652 25.8716L18.3251 20.5118L18.4519 20.5458C20.0354 20.9677 21.7363 20.5288 22.9169 19.3482C24.4191 17.8479 24.6972 15.5341 23.6358 13.7367V13.7367Z" fill="white"/>
<path d="M24.4742 59.1762L19.5609 54.2629C20.3233 53.2771 20.7358 52.072 20.7358 50.8044C20.7358 49.287 20.1436 47.8643 19.0727 46.7916C18.0019 45.7188 16.5754 45.1286 15.0599 45.1286C13.5445 45.1286 12.118 45.7207 11.0471 46.7916C9.97438 47.8624 9.38409 49.287 9.38409 50.8044C9.38409 52.3198 9.97627 53.7464 11.0471 54.8172C12.118 55.8899 13.5426 56.4802 15.0599 56.4802C16.3275 56.4802 17.5308 56.0678 18.5165 55.3072L23.4299 60.2187C23.4443 60.2331 23.4614 60.2445 23.4802 60.2523C23.499 60.2601 23.5192 60.2642 23.5396 60.2642C23.56 60.2642 23.5802 60.2601 23.599 60.2523C23.6178 60.2445 23.6349 60.2331 23.6493 60.2187L24.4742 59.3957C24.4886 59.3813 24.5001 59.3642 24.5079 59.3454C24.5157 59.3265 24.5197 59.3063 24.5197 59.286C24.5197 59.2656 24.5157 59.2454 24.5079 59.2266C24.5001 59.2077 24.4886 59.1906 24.4742 59.1762V59.1762ZM18.0568 53.8012C17.2546 54.6015 16.1913 55.0423 15.0599 55.0423C13.9285 55.0423 12.8653 54.6015 12.0631 53.8012C11.2628 52.999 10.822 51.9358 10.822 50.8044C10.822 49.673 11.2628 48.6078 12.0631 47.8075C12.8653 47.0073 13.9285 46.5664 15.0599 46.5664C16.1913 46.5664 17.2565 47.0054 18.0568 47.8075C18.8571 48.6097 19.2979 49.673 19.2979 50.8044C19.2979 51.9358 18.8571 53.0009 18.0568 53.8012Z" fill="#D9D9D9"/>
<rect opacity="0.4" x="32.0237" y="21.8263" width="76.9051" height="4.78347" rx="2.39174" fill="#F0F0F0"/>
<rect opacity="0.4" x="32.0236" y="11.7279" width="57.1981" height="4.78347" rx="2.39174" fill="#F0F0F0"/>
<rect x="0.839334" y="1.46934" width="199.321" height="147.061" rx="3.88545" stroke="#BFBFBF" stroke-width="1.67867"/>
</g>
<defs>
<clipPath id="clip0_1717_6778">
<rect y="0.630005" width="201" height="148.74" rx="4.84337" fill="white"/>
</clipPath>
</defs>
</svg>
