<svg width="119" height="50" viewBox="0 0 119 50" fill="none" xmlns="http://www.w3.org/2000/svg">
<g clip-path="url(#clip0_1311_330)">
<g clip-path="url(#clip1_1311_330)">
<path d="M11.9107 12.7612C9.90263 13.051 7.47017 14.1275 5.78298 15.4628C0.61789 19.5514 -0.758777 27.1489 2.61561 32.9144C4.54087 36.2059 7.90491 38.5349 11.6933 39.1973C13.0182 39.4251 15.5128 39.4044 16.7963 39.1559C20.6779 38.4003 23.7418 36.0921 25.6153 32.5107C26.2984 31.2168 26.8988 29.3951 26.9919 28.3807C27.0126 28.0702 26.9919 28.0184 26.816 28.0495C26.4847 28.1116 26.3916 28.2668 26.0086 29.4365C25.5532 30.8028 25.0977 31.7137 24.3318 32.7798C22.4582 35.4089 19.736 37.1789 16.6514 37.7586C15.254 38.0173 12.6663 37.9138 11.3414 37.5412C7.38736 36.444 4.2407 33.4216 3.02964 29.571C2.61561 28.2461 2.5121 27.3352 2.57421 25.5652C2.64666 23.2777 3.15385 21.6009 4.3235 19.7066C4.97561 18.6612 6.72491 16.8188 7.70824 16.1666C11.8072 13.434 16.9102 13.3823 20.9988 16.0528C22.51 17.0465 24.1558 18.8475 25.0046 20.4519C25.1805 20.7831 25.3047 21.0833 25.284 21.0937C25.253 21.1351 19.7256 23.1535 16.6928 24.2507L15.5749 24.6544L15.4817 24.4163C15.43 24.2921 15.2437 22.5531 15.0677 20.5658C14.8917 18.568 14.7261 16.8602 14.6951 16.7566C14.664 16.6635 14.5502 16.5807 14.4467 16.5807C14.2293 16.5807 14.2189 16.6324 13.9809 19.2719C13.5875 23.4847 13.484 24.4991 13.4219 24.5716C13.3805 24.613 11.7761 24.2093 9.84052 23.671C6.75596 22.8119 6.30052 22.7084 6.16596 22.843C6.0728 22.9361 6.0521 23.0293 6.11421 23.0914C6.17631 23.1431 7.49087 23.8263 9.0435 24.6026C10.5858 25.3789 11.8589 26.0621 11.8589 26.1138C11.8589 26.1656 10.5754 26.8488 9.01245 27.6251C7.00438 28.6291 6.16596 29.1052 6.16596 29.2191C6.16596 29.3123 6.22807 29.4158 6.30052 29.4468C6.36263 29.4675 7.91526 29.0845 9.73701 28.5773C11.5588 28.0702 13.1528 27.6561 13.2667 27.6561C13.4633 27.6561 13.4944 27.7286 13.5565 28.4531C13.6289 29.333 13.8463 31.5791 14.0844 34.0012C14.1672 34.8396 14.2396 35.5538 14.2396 35.5849C14.2396 35.6159 14.3432 35.6263 14.4674 35.6056C14.6951 35.5745 14.7054 35.5021 15.0884 31.6412C15.2954 29.4779 15.4714 27.6975 15.4714 27.6768C15.5128 27.5526 15.813 27.6251 20.9367 29.0638C21.8579 29.3226 22.6653 29.5089 22.7274 29.4675C23.0275 29.2812 22.5825 28.981 19.9844 27.6561C18.4525 26.8695 17.1896 26.1656 17.1896 26.1035C17.1896 26.0414 19.177 25.0166 21.6095 23.8366C24.0419 22.6566 26.1018 21.6319 26.1742 21.5595C26.3088 21.4559 26.3088 21.3731 26.1949 21.0005C25.9361 20.1207 25.3979 19.0028 24.8493 18.1851C22.9965 15.3903 20.0258 13.4547 16.6203 12.813C15.6888 12.6266 12.9872 12.6059 11.9107 12.7612Z" fill="white"/>
<path d="M94.459 18.4851C94.0656 19.1269 92.7821 20.2344 91.954 20.6381C91.3019 20.959 90.2772 21.2695 89.1075 21.5076C88.973 21.5283 88.8695 21.6214 88.8695 21.7043C88.8695 21.8285 89.0351 21.8595 89.6872 21.8595C90.1426 21.8595 90.536 21.9009 90.567 21.9527C90.5981 22.0044 90.536 22.315 90.4325 22.6462C90.329 22.9878 90.1219 23.702 89.9563 24.2402C89.8011 24.7785 89.6354 25.3581 89.5837 25.5341C88.59 28.7636 88.5175 29.9022 89.2628 30.6888C89.7804 31.2478 90.2772 31.4237 91.2605 31.4341C92.0783 31.4341 92.2025 31.403 92.9167 31.0511C93.9518 30.5336 95.494 29.0327 95.494 28.5462C95.494 28.4013 95.3905 28.4323 94.9868 28.7325C93.869 29.5606 92.9477 29.7469 92.4509 29.25C91.9954 28.7843 92.0368 28.5462 93.2168 24.6025C93.4549 23.8055 93.7137 22.905 93.7965 22.5944C93.8793 22.2943 93.9725 21.9941 94.0035 21.9527C94.0346 21.9009 94.7281 21.8595 95.5354 21.8595C96.9949 21.8595 97.026 21.8595 97.0881 21.6214C97.2433 21.0211 97.2744 21.0314 95.7011 21.0314C94.904 21.0314 94.2519 21.0004 94.2519 20.9486C94.2519 20.9072 94.4383 20.2965 94.666 19.5823C94.8937 18.8681 95.08 18.2574 95.08 18.2057C95.08 18.1643 94.9868 18.1332 94.8833 18.1332C94.7695 18.1332 94.5935 18.2885 94.459 18.4851Z" fill="white"/>
<path d="M38.5021 20.8244C37.2393 21.0108 35.6659 21.7664 34.7551 22.6255C33.8131 23.5053 33.0679 24.9441 32.8712 26.2379C32.4882 28.8153 33.7924 30.8337 36.1524 31.3306C38.5538 31.8378 40.8621 30.8544 42.4044 28.66C42.6838 28.2564 42.9116 27.8941 42.9116 27.8423C42.9116 27.656 42.6631 27.7802 42.1559 28.2253C41.8558 28.4841 41.2761 28.8671 40.8621 29.0741C40.1996 29.4053 39.9823 29.4571 39.1749 29.4985C38.3468 29.5399 38.2019 29.5192 37.7154 29.2708C36.7735 28.805 36.3595 27.9665 36.3491 26.5692C36.3491 24.5715 37.5291 22.1804 38.8126 21.549C39.0507 21.4351 39.3716 21.342 39.5165 21.342C39.827 21.342 40.2721 21.6732 40.4688 22.0458C40.7068 22.5013 40.7275 24.3851 40.5102 24.6853C40.4273 24.7888 39.7131 25.0476 38.7195 25.3374C36.0489 26.1034 36.1938 26.1965 40.0754 26.2069C41.7316 26.2069 43.0979 26.1655 43.2531 26.1137C43.4705 26.0309 43.543 25.9067 43.6361 25.4099C43.8017 24.6336 43.7086 23.4536 43.4498 22.8636C42.7459 21.2799 40.8103 20.4829 38.5021 20.8244Z" fill="white"/>
<path d="M63.6858 20.8244C62.5679 21.1142 61.6467 21.8802 60.2079 23.7537C59.7421 24.3644 59.3074 24.8406 59.2556 24.7992C59.1417 24.7267 59.0589 24.8716 60.4253 22.8221C61.036 21.8906 61.5432 21.1142 61.5432 21.0832C61.5432 21.0521 60.7565 21.0314 59.7939 21.0314C58.2102 21.0314 58.0342 21.0521 57.9824 21.2074C57.8582 21.6525 55.5396 31.0407 55.5396 31.1028C55.5396 31.1442 56.2642 31.1753 57.144 31.1753H58.7381L58.8416 30.782C58.9037 30.5749 59.2039 29.3742 59.5144 28.1114C60.1458 25.5755 60.3424 25.0062 60.8703 24.1885C61.5224 23.1637 62.5679 22.6669 63.2717 23.0395C63.6444 23.2258 63.7168 23.3811 63.7168 23.9607C63.7168 24.4783 63.3339 25.3374 62.7749 26.0723C62.3712 26.6209 62.3816 26.8383 62.806 26.6106C64.0584 25.9481 65.787 24.4265 66.2114 23.6088C66.5633 22.9256 66.553 22.0148 66.1803 21.5283C66.0251 21.3316 65.7456 21.0935 65.5489 21.0004C65.1039 20.783 64.193 20.7002 63.6858 20.8244Z" fill="white"/>
<path d="M72.101 20.7936C71.304 20.8868 70.3931 21.1559 69.6375 21.5182C68.53 22.0564 67.3086 23.2675 66.791 24.344C65.7352 26.5177 65.9319 28.8363 67.2775 30.1819C69.2028 32.1071 73.25 31.807 75.5375 29.5712C76.614 28.5257 77.2868 27.0973 77.4317 25.5343C77.5145 24.6545 77.2972 23.4849 76.9245 22.8535C76.3035 21.7873 75.1338 21.0421 73.7882 20.835C73.0533 20.7212 72.7945 20.7212 72.101 20.7936ZM73.5812 21.5906C74.1712 21.9529 74.3782 22.9673 74.1816 24.4992C74.0056 25.8138 73.4052 28.0496 73.0016 28.9294C72.3805 30.275 71.4179 30.9996 70.507 30.8236C69.3373 30.5856 69.0475 29.3435 69.5651 26.7868C70.2379 23.4538 71.0038 21.9322 72.2149 21.4768C72.5875 21.3422 73.2603 21.394 73.5812 21.5906Z" fill="white"/>
<path d="M82.6796 20.8246C80.361 21.1455 79.0465 22.3048 79.0154 24.0541C79.0051 24.5303 79.0672 24.8201 79.2224 25.1306C79.6365 25.9483 80.2472 26.352 83.1661 27.739C83.4766 27.8839 83.901 28.1738 84.1288 28.3808C84.4703 28.7224 84.5221 28.8155 84.5221 29.2399C84.5221 29.6436 84.46 29.7885 84.1598 30.1197C83.7354 30.5959 83.2282 30.7718 82.2552 30.7718C81.4065 30.7718 80.9407 30.5959 80.5473 30.1301C80.2886 29.8299 80.2575 29.7264 80.2989 29.2089C80.33 28.8052 80.4231 28.5153 80.6198 28.2255C80.7751 27.9978 80.8993 27.7804 80.8993 27.739C80.8993 27.6873 80.2265 27.6562 79.3984 27.6562H77.9079L77.7837 28.091C77.4214 29.4676 78.3323 30.7201 80.0712 31.248C80.8786 31.4964 83.1868 31.486 84.1081 31.2376C86.1161 30.689 87.3168 29.4573 87.3168 27.946C87.3168 26.559 86.5198 25.8759 83.28 24.4785C81.9033 23.8782 81.4893 22.8845 82.2552 22.015C82.6175 21.601 83.0937 21.425 83.7975 21.425C85.0293 21.4353 85.8263 22.3773 85.5468 23.4641C85.4847 23.6918 85.4123 23.9817 85.3812 24.1162L85.3295 24.3543L86.7061 24.3232L88.0931 24.2922L88.1242 23.8575C88.207 22.6878 87.0063 21.3732 85.4847 20.9799C84.7498 20.7832 83.4663 20.7211 82.6796 20.8246Z" fill="white"/>
<path d="M101.86 20.8351C99.5412 21.1353 98.1025 22.2015 97.9161 23.7541L97.8437 24.3441H99.5205H101.187V23.5885C101.197 22.1704 101.725 21.5286 102.967 21.4665C103.795 21.4148 104.189 21.5493 104.561 22.0048C104.82 22.305 104.831 22.3671 104.779 23.1537C104.737 23.7955 104.499 24.8409 104.344 25.0376C104.334 25.0583 103.361 25.2136 102.17 25.3792C99.624 25.7518 99.2618 25.8346 98.444 26.2176C96.8707 26.9525 96.1151 28.205 96.4256 29.5713C96.643 30.5443 97.2951 31.155 98.3612 31.393C99.0961 31.5586 100.193 31.4137 100.98 31.0411C101.746 30.6788 102.895 29.6955 103.454 28.9088C103.713 28.5672 103.971 28.2774 104.054 28.2774C104.127 28.2774 104.189 28.3085 104.189 28.3395C104.189 28.3706 103.837 28.9813 103.412 29.6955C102.988 30.3993 102.636 31.0204 102.636 31.0825C102.636 31.1343 103.33 31.1757 104.323 31.1757H106L106.601 28.8157C107.522 25.2446 107.625 24.7685 107.625 23.9818C107.656 21.6322 105.379 20.39 101.86 20.8351ZM104.044 26.1244C103.94 26.6523 103.195 28.1325 102.781 28.6397C101.632 30.0578 99.386 29.6748 99.6758 28.1222C99.7793 27.6046 100.369 26.9939 101.125 26.6213C101.767 26.3108 103.412 25.8139 103.868 25.8036C104.085 25.7932 104.106 25.8243 104.044 26.1244Z" fill="white"/>
<path d="M115.492 20.9282C115.192 21.0317 114.788 21.2181 114.591 21.3423C114.136 21.6217 112.997 22.8535 112.211 23.9093C111.869 24.3751 111.528 24.7477 111.445 24.7581C111.238 24.7581 111.321 24.6028 112.469 22.8949C113.049 22.0358 113.546 21.2595 113.577 21.1766C113.618 21.0524 113.36 21.0317 111.879 21.0317H110.141L108.909 25.9691C108.226 28.6914 107.656 30.9789 107.625 31.0514C107.594 31.1549 107.925 31.1756 109.219 31.1549L110.865 31.1238L111.548 28.3809C112.314 25.3377 112.635 24.4993 113.349 23.7333C114.136 22.8949 115.14 22.6672 115.637 23.2158C116.061 23.6919 115.74 24.9547 114.923 26.0312C114.239 26.9214 114.446 26.9524 115.658 26.1451C116.827 25.3584 117.955 24.2819 118.297 23.5988C119.239 21.7356 117.603 20.1623 115.492 20.9282Z" fill="white"/>
<path d="M45.0645 24.6752C43.9984 29.0018 44.0088 28.9604 44.1537 29.685C44.4331 31.0409 45.7477 31.693 47.528 31.3929C48.8944 31.1548 50.1882 30.275 51.2958 28.8466C51.7098 28.3083 51.9168 28.153 51.9168 28.3808C51.9168 28.4325 51.5649 29.0536 51.1405 29.7471C50.7161 30.4406 50.3642 31.0513 50.3642 31.0927C50.3642 31.1341 51.1302 31.1755 52.0514 31.1755H53.7489L54.9703 26.2278C55.6431 23.5159 56.2124 21.2283 56.2435 21.1559C56.2745 21.0523 55.9433 21.0316 54.6495 21.0523L53.014 21.0834L52.9312 21.3939C52.8795 21.5595 52.5689 22.8638 52.2273 24.2818C51.5338 27.1387 51.244 27.8736 50.4988 28.6706C49.8984 29.3123 49.2566 29.6125 48.5321 29.6229C48.1077 29.6229 47.9317 29.5711 47.704 29.3745C47.4452 29.1571 47.4142 29.0536 47.4349 28.5671C47.4349 28.2669 47.8179 26.5176 48.2837 24.6855C48.7495 22.843 49.1221 21.2801 49.1221 21.1869C49.1221 21.0523 48.884 21.0316 47.5384 21.0316H45.9651L45.0645 24.6752Z" fill="white"/>
</g>
</g>
<defs>
<clipPath id="clip0_1311_330">
<rect width="118" height="50" fill="white" transform="translate(0.679993)"/>
</clipPath>
<clipPath id="clip1_1311_330">
<rect width="118" height="26.9123" fill="white" transform="translate(0.679993 12.5439)"/>
</clipPath>
</defs>
</svg>
