<svg width="60" height="50" viewBox="0 0 60 50" fill="none" xmlns="http://www.w3.org/2000/svg">
<g clip-path="url(#clip0_1316_177)">
<g clip-path="url(#clip1_1316_177)">
<path d="M33.9816 33.1463V39.7225H30.6962V35.1663L26.9522 35.6163C26.13 35.7139 25.7685 35.9925 25.7685 36.5039C25.7685 37.2539 26.4552 37.5701 27.9278 37.5701C28.8254 37.5701 29.82 37.432 30.698 37.1939L28.9977 39.682C28.3106 39.8401 27.6412 39.9182 26.935 39.9182C23.9553 39.9182 22.255 38.6944 22.255 36.522C22.255 34.6063 23.5916 33.6001 26.6294 33.2439L30.6423 32.762C30.4253 31.5563 29.545 31.032 27.7945 31.032C26.1513 31.032 24.3367 31.4663 22.7135 32.2763L23.2297 29.3334C24.7386 28.6815 26.4584 28.3458 28.1959 28.3458C32.0174 28.3458 33.9849 29.9858 33.9849 33.1434L33.9811 33.1458L33.9816 33.1463ZM4.42771 24.912L0.836609 39.722H4.42771L6.20979 32.2801L9.29916 36.1082H13.0436L16.1329 32.2801L17.915 39.722H21.5061L17.915 24.9101L11.1704 33.1901L4.42585 24.9101L4.42771 24.912ZM17.915 10.1001L11.1704 18.3801L4.42771 10.1001L0.836609 24.912H4.42771L6.20979 17.4701L9.29916 21.2982H13.0436L16.1329 17.4701L17.915 24.912H21.5061L17.915 10.1001ZM42.616 33.0082L39.7125 32.5739C38.9868 32.4563 38.7007 32.2182 38.7007 31.8039C38.7007 31.1325 39.4068 30.8363 40.8595 30.8363C42.5412 30.8363 44.0502 31.192 45.6367 31.962L45.2362 29.0601C43.9554 28.5863 42.485 28.3501 40.9566 28.3501C37.385 28.3501 35.4348 29.6339 35.4348 31.9439C35.4348 33.742 36.5047 34.7482 38.7778 35.1039L41.7208 35.5582C42.4655 35.6763 42.7712 35.9725 42.7712 36.4463C42.7712 37.1177 42.0846 37.4339 40.6895 37.4339C38.8554 37.4339 36.8684 36.9801 35.2448 36.1701L35.57 39.072C36.965 39.6063 38.7801 39.922 40.4804 39.922C44.1486 39.922 46.0585 38.5982 46.0585 36.2482C46.0585 34.372 44.9886 33.3639 42.6207 33.0101L42.616 33.0082ZM47.336 26.2334V39.7215H50.621V26.2339L47.336 26.2334ZM54.4597 33.6596L59.0278 28.5434H54.9396L50.621 33.8358L55.2258 39.7196H59.372L54.4597 33.6577V33.6596ZM46.8775 21.712C46.8775 23.8834 48.5778 25.1072 51.5576 25.1072C52.2637 25.1072 52.9331 25.0277 53.6202 24.8715L55.3206 22.3834C54.4425 22.6196 53.4479 22.7596 52.5503 22.7596C51.0795 22.7596 50.391 22.4434 50.391 21.6934C50.391 21.1796 50.7548 20.9034 51.5752 20.8058L55.3187 20.3558V24.9115H58.6041V18.3353C58.6041 15.1758 56.6362 13.5377 52.8151 13.5377C51.0758 13.5377 49.3578 13.8734 47.8485 14.5258L47.3319 17.4677C48.9555 16.6577 50.7701 16.2234 52.4128 16.2234C54.1638 16.2234 55.0441 16.7472 55.2606 17.9534L51.2482 18.4358C48.2104 18.7915 46.8733 19.7977 46.8733 21.7134L46.8775 21.712ZM37.6888 21.0015C37.6888 23.7277 39.2173 25.1096 42.2356 25.1096C43.4388 25.1096 44.4339 24.9115 45.3876 24.4572L45.8072 21.4758C44.8901 22.0472 43.9535 22.3434 43.0174 22.3434C41.6033 22.3434 40.9724 21.7515 40.9724 20.4277V16.4777H45.9581V13.7334H40.9719V11.4039L34.7244 14.8201V16.4782H37.6847V21.0001L37.6884 21.002L37.6888 21.0015ZM34.4601 19.7577V20.4296H25.5804C25.9808 21.7977 27.1706 22.4234 29.283 22.4234C30.9647 22.4234 32.5317 22.0677 33.9249 21.3777L33.5245 24.2615C32.2437 24.8139 30.6205 25.1115 28.9582 25.1115C24.5449 25.1115 22.1384 23.0972 22.1384 19.3658C22.1384 15.6334 24.5839 13.5396 28.3664 13.5396C32.1489 13.5396 34.461 15.8115 34.461 19.7596L34.4587 19.7577H34.4601ZM25.5376 18.1382H31.1524C30.8565 16.8282 29.8832 16.1439 28.3278 16.1439C26.772 16.1439 25.8494 16.8101 25.5376 18.1382Z" fill="white"/>
</g>
</g>
<defs>
<clipPath id="clip0_1316_177">
<rect width="59" height="50" fill="white" transform="translate(0.73999)"/>
</clipPath>
<clipPath id="clip1_1316_177">
<rect width="59" height="30" fill="white" transform="translate(0.73999 10)"/>
</clipPath>
</defs>
</svg>
