<svg width="74" height="50" viewBox="0 0 74 50" fill="none" xmlns="http://www.w3.org/2000/svg">
<g clip-path="url(#clip0_1320_39)">
<g clip-path="url(#clip1_1320_39)">
<path d="M23.2055 20.9168C19.3816 20.9168 16.2531 23.9168 16.2531 27.5835C16.2531 31.2502 19.3816 34.2502 23.2055 34.2502C27.0293 34.2502 30.1578 31.2502 30.1578 27.5835C30.1578 23.9168 27.0293 20.9168 23.2055 20.9168ZM26.5947 27.5002C26.5947 29.3335 25.1174 30.8335 23.2924 30.8335C21.4674 30.8335 19.99 29.3335 19.99 27.5002C19.99 25.6668 21.4674 24.1668 23.2924 24.1668C25.1174 24.1668 26.5947 25.6668 26.5947 27.5002ZM47.5388 21.1668C47.4519 21.0835 47.365 21.0835 47.2781 21.0835H44.4971C44.3233 21.0835 44.1495 21.2502 44.1495 21.4168V33.5002C44.1495 33.5835 44.1495 33.6668 44.2364 33.7502C44.3233 33.8335 44.4102 33.8335 44.4971 33.8335H47.2781C47.4519 33.8335 47.6257 33.6668 47.6257 33.5002V21.4168C47.6257 21.3335 47.6257 21.2502 47.5388 21.1668ZM45.8876 19.5002C46.9304 19.5002 47.7995 18.6668 47.7995 17.6668C47.8864 16.6668 46.9304 15.8335 45.8876 15.8335C44.8447 15.8335 43.9757 16.6668 43.9757 17.6668C43.9757 18.7502 44.8447 19.5002 45.8876 19.5002ZM42.1507 16.0835H31.9828C31.809 16.0835 31.6352 16.2502 31.6352 16.4168V33.5002C31.6352 33.5835 31.6352 33.6668 31.7221 33.7502C31.809 33.8335 31.8959 33.8335 31.9828 33.8335H34.7638C34.9376 33.8335 35.1114 33.6668 35.1114 33.5002V26.5835H41.3685C41.4554 26.5835 41.5424 26.5835 41.6293 26.5002C41.7162 26.4168 41.7162 26.3335 41.7162 26.2502V23.7502C41.7162 23.5835 41.5424 23.4168 41.3685 23.4168H35.1114V19.2502H42.1507C42.2376 19.2502 42.3245 19.2502 42.4114 19.1668C42.4983 19.0835 42.4983 19.0002 42.4983 18.9168V16.4168C42.4983 16.2502 42.3245 16.0835 42.1507 16.0835ZM9.73521 23.5002C6.95426 22.3335 6.08521 21.8335 6.08521 20.8335C6.08521 19.5002 7.38879 19.0835 8.60545 19.0835C9.90902 19.0835 11.2995 19.7502 11.2995 21.5835C11.2995 21.7502 11.3864 21.8335 11.5602 21.8335H14.6019C14.6888 21.7502 14.7757 21.6668 14.7757 21.5835C14.7757 18.2502 12.2555 15.8335 8.60545 15.8335C4.95545 15.8335 2.60902 17.8335 2.60902 20.8335C2.60902 24.4168 5.38998 25.5002 8.08402 26.5002L8.25783 26.5835C10.7781 27.5002 11.6471 27.9168 11.6471 29.0835C11.6471 30.6668 9.90902 30.9168 8.95307 30.9168C7.12807 30.9168 5.73759 29.6668 5.73759 28.0002V27.8335C5.73759 27.6668 5.65069 27.5835 5.47688 27.5835H2.43521C2.34831 27.5835 2.1745 27.6668 2.1745 27.8335V28.0835C2.1745 31.7502 4.95545 34.2502 8.86617 34.2502C12.6031 34.2502 15.1233 32.1668 15.1233 29.1668C15.2102 26.0835 13.559 25.0002 9.73521 23.5002ZM74.3054 33.3335C74.3054 33.8335 73.9578 34.1668 73.4364 34.1668C72.915 34.1668 72.5674 33.8335 72.5674 33.3335C72.5674 32.8335 72.915 32.5002 73.4364 32.5002C73.9578 32.5002 74.3054 32.8335 74.3054 33.3335ZM72.7412 33.3335C72.7412 33.7502 73.0019 34.0002 73.4364 34.0002C73.8709 34.0002 74.1316 33.7502 74.1316 33.3335C74.1316 32.9168 73.8709 32.6668 73.4364 32.6668C73.0019 32.6668 72.7412 32.9168 72.7412 33.3335ZM73.784 33.1668C73.784 33.2502 73.6971 33.3335 73.6102 33.4168L73.784 33.7502H73.5233L73.3495 33.4168H73.2626V33.7502H73.0888V32.9168H73.4364C73.6102 32.9168 73.784 33.0002 73.784 33.1668ZM73.3495 33.0835V33.3335H73.4364C73.5233 33.3335 73.6102 33.2502 73.6102 33.2502C73.6102 33.1668 73.5233 33.1668 73.4364 33.1668H73.3495V33.0835ZM69.7864 16.5835C71.0031 16.5835 71.959 17.5002 71.959 18.6668C71.959 19.8335 71.0031 20.7502 69.7864 20.7502C68.5697 20.7502 67.6138 19.8335 67.6138 18.6668C67.6138 17.5002 68.5697 16.5835 69.7864 16.5835ZM69.7864 15.8335C68.1352 15.8335 66.7447 17.1668 66.7447 18.7502C66.7447 20.3335 68.1352 21.6668 69.7864 21.6668C71.4376 21.6668 72.8281 20.3335 72.8281 18.7502C72.8281 17.1668 71.4376 15.8335 69.7864 15.8335Z" fill="white"/>
<path d="M71.2344 27.5544C72.7102 26.7849 73.2559 25.0138 72.4534 23.5987C71.6509 22.1836 69.8039 21.6603 68.3282 22.4298C66.8524 23.1994 66.3067 24.9704 67.1092 26.3855C67.9117 27.8007 69.7587 28.324 71.2344 27.5544Z" fill="white"/>
<path d="M71.2302 33.8054C72.7059 33.0358 73.2517 31.2648 72.4491 29.8497C71.6466 28.4346 69.7997 27.9112 68.3239 28.6808C66.8481 29.4504 66.3024 31.2214 67.1049 32.6365C67.9075 34.0516 69.7544 34.575 71.2302 33.8054Z" fill="white"/>
<path d="M63.2686 22.9168C63.8769 22.9168 64.3984 23.1668 64.8329 23.5002C65.2674 23.9168 65.4412 24.4168 65.4412 25.0002C65.4412 26.1668 64.4853 27.0835 63.2686 27.0835C62.6603 27.0835 62.1388 26.8335 61.7043 26.5002C61.2698 26.0835 61.096 25.5835 61.096 25.0002C61.0091 23.8335 62.0519 22.9168 63.2686 22.9168ZM63.2686 22.0835C61.6174 22.0835 60.2269 23.4168 60.2269 25.0002C60.2269 26.5835 61.6174 27.9168 63.2686 27.9168C64.9198 27.9168 66.3103 26.5835 66.3103 25.0002C66.3103 23.4168 64.9198 22.0835 63.2686 22.0835Z" fill="white"/>
<path d="M59.5115 26.1581C60.1919 24.6853 59.4983 22.9625 57.9623 22.3101C56.4264 21.6577 54.6298 22.3228 53.9494 23.7956C53.2691 25.2685 53.9627 26.9913 55.4986 27.6436C57.0345 28.296 58.8312 27.6309 59.5115 26.1581Z" fill="white"/>
<path d="M66.0425 19.9106C66.7228 18.4378 66.0293 16.715 64.4933 16.0626C62.9574 15.4102 61.1607 16.0753 60.4804 17.5481C59.8001 19.0209 60.4937 20.7437 62.0296 21.3961C63.5655 22.0485 65.3622 21.3834 66.0425 19.9106Z" fill="white"/>
<path d="M59.5195 19.9032C60.1998 18.4304 59.5062 16.7076 57.9703 16.0552C56.4344 15.4029 54.6377 16.0679 53.9574 17.5408C53.277 19.0136 53.9706 20.7364 55.5065 21.3888C57.0425 22.0411 58.8391 21.3761 59.5195 19.9032Z" fill="white"/>
<path d="M66.0266 32.4208C66.7069 30.948 66.0133 29.2252 64.4774 28.5728C62.9415 27.9204 61.1448 28.5855 60.4645 30.0583C59.7841 31.5311 60.4777 33.254 62.0137 33.9063C63.5496 34.5587 65.3462 33.8936 66.0266 32.4208Z" fill="white"/>
<path d="M56.7507 29.1668C57.359 29.1668 57.8805 29.4168 58.315 29.7502C58.7495 30.1668 58.9233 30.6668 58.9233 31.2502C58.9233 32.4168 57.9674 33.3335 56.7507 33.3335C55.534 33.3335 54.5781 32.4168 54.5781 31.2502C54.4912 30.0835 55.534 29.1668 56.7507 29.1668ZM56.7507 28.3335C55.0995 28.3335 53.709 29.6668 53.709 31.2502C53.709 32.8335 55.0995 34.1668 56.7507 34.1668C58.4019 34.1668 59.7924 32.8335 59.7924 31.2502C59.7924 29.6668 58.4019 28.3335 56.7507 28.3335Z" fill="white"/>
</g>
</g>
<defs>
<clipPath id="clip0_1320_39">
<rect width="73" height="50" fill="white" transform="translate(0.73999)"/>
</clipPath>
<clipPath id="clip1_1320_39">
<rect width="73" height="20" fill="white" transform="translate(1.73999 15)"/>
</clipPath>
</defs>
</svg>
