<svg width="98" height="51" viewBox="0 0 98 51" fill="none" xmlns="http://www.w3.org/2000/svg">
<g clip-path="url(#clip0_1360_464)">
<g clip-path="url(#clip1_1360_464)">
<mask id="mask0_1360_464" style="mask-type:luminance" maskUnits="userSpaceOnUse" x="0" y="10" width="98" height="31">
<path d="M97.75 10.9043H0.25V40.6509H97.75V10.9043Z" fill="white"/>
</mask>
<g mask="url(#mask0_1360_464)">
<path fill-rule="evenodd" clip-rule="evenodd" d="M14.9407 23.0043C14.5863 23.0043 14.2523 23.1524 13.9768 23.4311C13.0979 24.319 12.9259 26.3525 12.9348 27.9028C12.9544 31.1492 13.9925 32.5705 14.686 32.7337L14.7414 32.7465L14.8568 32.7537C16.1787 32.7537 16.516 29.2192 16.588 28.1365C16.7273 26.0289 16.7239 23.2055 15.095 23.0137C15.0421 23.0077 14.9914 23.0043 14.9407 23.0043ZM15.0306 18.1743C12.9697 18.1743 11.0877 18.9638 9.73182 20.3983C8.07904 22.1434 7.28972 24.7455 7.44861 27.9242C7.63686 31.6976 9.02345 34.8195 11.3523 36.7135L11.5844 36.9027C12.4675 36.5812 13.3834 35.8337 14.0006 34.9843L14.289 34.587L13.8945 34.2954C12.9885 33.6259 12.2788 32.6305 11.7859 31.3363C11.219 29.8491 10.7107 25.165 12.2997 22.8429C12.9518 21.8895 13.8954 21.386 15.0272 21.386L15.1128 21.3873C17.2615 21.4323 18.326 23.1392 18.2732 26.4614C18.231 29.1717 17.9379 30.8607 17.1937 32.6917L16.9139 33.3789C16.9139 33.3789 17.322 33.5 18.378 33.2102C20.7162 32.5244 22.4452 29.4753 22.3984 26.1189C22.3566 23.0857 20.3498 18.2467 15.1405 18.1751L15.0306 18.1743ZM15.7675 35.5816C15.2998 36.3145 14.7507 36.9562 14.1526 37.4597L13.5026 38.0059C13.5026 38.0059 13.9273 38.2256 14.3383 38.3322C15.3223 38.6353 16.2327 38.7501 17.2482 38.7501C17.7632 38.7501 18.2859 38.7111 18.8022 38.6344C23.0935 37.9944 27.7069 33.429 27.9995 26.8968C28.1691 23.1007 26.9371 19.588 24.5303 17.0043C22.1602 14.4583 18.887 13.0138 15.3159 12.9376L15.0314 12.9342C7.90263 12.9342 2.19915 18.5652 2.04793 25.7541C1.96869 29.486 3.1346 32.8694 5.24704 35.0374C5.87709 35.6847 6.73541 36.3038 7.35609 36.6064C8.58588 37.1887 9.29431 37.2105 9.29431 37.2105C9.29431 37.2105 8.69323 36.606 8.21784 35.9801C6.7188 33.9316 5.81147 31.1111 5.65643 28.015C5.4251 23.3627 7.03745 20.6287 8.43084 19.1547C10.1301 17.36 12.4738 16.3707 15.0306 16.3707L15.1699 16.3715C18.7515 16.4212 20.8993 18.304 22.0694 19.8752C23.3696 21.6185 24.164 23.9432 24.1938 26.0936C24.2513 30.2999 22.0166 34.0202 18.8802 34.9411C18.1871 35.1453 17.5148 35.2485 16.881 35.2485C16.7046 35.2485 16.53 35.2403 16.3588 35.2245L16.0376 35.1941L15.7675 35.5816ZM17.2389 40.5541C15.1452 40.5541 13.1294 40.0009 11.4102 38.9538L11.2517 38.857L11.069 38.89C10.824 38.9341 10.574 38.9658 10.3201 38.9851C10.157 38.997 9.98913 39.0039 9.82343 39.0039C7.74422 39.0039 5.66372 38.0432 3.96532 36.2986C1.51721 33.7864 0.164716 29.9304 0.254173 25.7164C0.426695 17.5381 6.91354 11.1313 15.0229 11.1313C15.1324 11.1313 15.2427 11.1326 15.3535 11.1348C19.4118 11.2217 23.137 12.8686 25.8411 15.7721C28.5806 18.7125 29.9838 22.6922 29.7921 26.9777C29.4454 34.7201 24.0065 39.6808 19.0655 40.4175C18.4538 40.5078 17.8395 40.5541 17.2389 40.5541Z" fill="white"/>
<path fill-rule="evenodd" clip-rule="evenodd" d="M39.2157 19.7734V30.1968H43.0555V32.8258H36.4324V19.7734H39.2157Z" fill="white"/>
<path fill-rule="evenodd" clip-rule="evenodd" d="M45.9866 22.5331C45.1147 22.5331 44.4097 21.8057 44.4097 20.9482C44.4097 20.0902 45.1147 19.3633 45.9866 19.3633C46.8586 19.3633 47.5636 20.0902 47.5636 20.9482C47.5636 21.8057 46.8586 22.5331 45.9866 22.5331ZM44.6325 32.8258H47.3413V23.6145H44.6325V32.8258Z" fill="white"/>
<path fill-rule="evenodd" clip-rule="evenodd" d="M49.3021 23.6144V23.2043C49.3021 20.7242 50.7679 19.3071 53.0691 19.3071C53.6812 19.3071 54.219 19.4189 54.5715 19.6055V21.9178C54.2934 21.7688 53.9591 21.6755 53.5325 21.6755C52.6605 21.6755 51.9922 22.1228 51.9922 23.2227V23.6144H54.3674V25.8517H51.9922V32.8258H49.3021V23.6144Z" fill="white"/>
<path fill-rule="evenodd" clip-rule="evenodd" d="M64.0156 30.6256C63.2549 32.136 61.7704 33.0685 59.7663 33.0685C56.9093 33.0685 54.9058 31.0735 54.9058 28.2201C54.9058 25.442 56.9463 23.3721 59.6554 23.3721C62.4197 23.3721 64.3306 25.4044 64.3306 28.2945C64.3306 28.6118 64.3124 28.8545 64.2936 28.9663H57.5591C57.6513 30.0477 58.6349 30.8303 59.7663 30.8303C60.7686 30.8303 61.3065 30.4018 61.7329 29.712L64.0156 30.6256ZM61.6783 27.1947C61.5663 26.2062 60.7317 25.4976 59.6367 25.4976C58.5604 25.4976 57.6883 26.3183 57.5774 27.1947H61.6783Z" fill="white"/>
<path fill-rule="evenodd" clip-rule="evenodd" d="M71.3714 23.6518C71.3714 22.8684 70.7404 22.2532 69.8313 22.2532C68.8482 22.2532 68.1984 22.9989 68.1796 24.0615H65.5455C65.5638 21.3952 67.3268 19.7915 69.8682 19.7915C72.3175 19.7915 74.0988 21.3019 74.0805 23.3346C74.0805 24.4905 73.5421 25.4041 72.5404 26.0009C73.8571 26.56 74.6179 27.6046 74.6179 29.0217C74.6179 31.4084 72.6518 33.0682 69.9427 33.0682C67.1414 33.0682 65.3039 31.3716 65.267 28.537H67.9573C68.013 29.6741 68.8113 30.5509 69.9802 30.5509C71.0741 30.5509 71.8541 29.898 71.8541 28.8727C71.8541 27.8842 71.0189 27.2317 69.7943 27.2317H69.2007V25.1245H69.7568C70.6477 25.1245 71.3714 24.4532 71.3714 23.6518Z" fill="white"/>
<path fill-rule="evenodd" clip-rule="evenodd" d="M80.2996 33.0685C77.5354 33.0685 75.4568 31.0734 75.4568 28.3879C75.4568 27.232 75.9025 25.9266 76.7371 24.6213L79.6873 20.0156H82.8411L79.9841 24.1735C80.2809 24.0433 80.6521 24.0061 80.912 24.0061C83.3607 24.0061 85.1425 25.9454 85.1425 28.3506C85.1425 31.0357 83.0457 33.0685 80.2996 33.0685ZM80.2996 26.3184C79.0937 26.3184 78.1471 27.2508 78.1471 28.4255C78.1471 29.6187 79.075 30.57 80.2809 30.57C81.4873 30.57 82.4521 29.6187 82.4521 28.444C82.4521 27.2508 81.4873 26.3184 80.2996 26.3184Z" fill="white"/>
<path fill-rule="evenodd" clip-rule="evenodd" d="M91.3566 19.7915C94.9566 19.7915 96.8118 22.9428 96.8118 26.4299C96.8118 29.9165 94.9566 33.0682 91.3566 33.0682C87.7571 33.0682 85.902 29.9165 85.902 26.4299C85.902 22.9428 87.7571 19.7915 91.3566 19.7915ZM91.3566 22.3837C89.4827 22.3837 88.6663 24.3787 88.6663 26.4298C88.6663 28.4813 89.4827 30.4764 91.3566 30.4764C93.2311 30.4764 94.047 28.4813 94.047 26.4298C94.047 24.3787 93.2311 22.3837 91.3566 22.3837Z" fill="white"/>
</g>
</g>
</g>
<defs>
<clipPath id="clip0_1360_464">
<rect width="97.5" height="50" fill="white" transform="translate(0.25 0.904297)"/>
</clipPath>
<clipPath id="clip1_1360_464">
<rect width="97.5" height="30" fill="white" transform="translate(0.25 10.9043)"/>
</clipPath>
</defs>
</svg>
