<svg width="112" height="51" viewBox="0 0 112 51" fill="none" xmlns="http://www.w3.org/2000/svg">
<g clip-path="url(#clip0_1360_494)">
<g clip-path="url(#clip1_1360_494)">
<path d="M11.1837 25.7476C11.1945 25.7453 11.2039 25.7389 11.21 25.7297C11.216 25.7205 11.2182 25.7093 11.216 25.6985L8.88304 14.8657C8.88032 14.8533 8.88009 14.8403 8.88237 14.8278C8.88464 14.8152 8.88939 14.8032 8.89631 14.7925C8.90324 14.7818 8.91221 14.7726 8.92272 14.7654C8.93322 14.7582 8.94505 14.7532 8.95751 14.7506L16.0962 13.2638C16.2223 13.2374 16.2989 13.2871 16.326 13.4128L18.6241 24.04C18.6247 24.0431 18.6263 24.0459 18.6287 24.0479C18.6311 24.05 18.6341 24.0511 18.6373 24.0513C18.6405 24.0514 18.6436 24.0504 18.6463 24.0486C18.649 24.0468 18.651 24.0441 18.6521 24.0411C18.6584 24.0217 18.663 23.999 18.6658 23.973C19.1161 19.7656 19.5635 15.5576 20.0079 11.3492C20.0149 11.2841 20.0271 11.2413 20.0443 11.2209C20.0728 11.187 20.1084 11.1723 20.151 11.1765L27.4778 11.945C27.491 11.9464 27.5039 11.9503 27.5156 11.9567C27.5273 11.963 27.5376 11.9716 27.546 11.982C27.5544 11.9923 27.5607 12.0042 27.5645 12.017C27.5682 12.0298 27.5695 12.0432 27.5681 12.0564C26.9142 18.2152 26.2603 24.3807 25.6065 30.5529C25.5639 30.9571 25.4593 31.3445 25.2927 31.7149C23.9586 34.685 22.6144 37.6462 21.2602 40.5987C21.2489 40.6232 21.2297 40.6431 21.2057 40.6553C21.1818 40.6675 21.1544 40.6712 21.1281 40.6658L2.47264 36.7705C2.45819 36.7675 2.4449 36.7604 2.4344 36.7498C2.4239 36.7393 2.41663 36.726 2.41349 36.7114L0.556446 28.0573C0.553813 28.0451 0.553625 28.0324 0.555894 28.0201C0.558162 28.0078 0.562842 27.996 0.569664 27.9855C0.576485 27.975 0.585315 27.966 0.595646 27.9589C0.605977 27.9518 0.617604 27.9468 0.629861 27.9443L11.1837 25.7476ZM14.4922 29.2901C14.7241 27.9485 12.417 27.3585 12.0874 28.7175C11.8318 29.7717 12.3959 30.3295 13.4438 30.2893C14.0089 30.2672 14.4019 29.8114 14.4922 29.2901ZM19.7452 30.149C19.8438 29.8812 19.8319 29.5852 19.7122 29.3262C19.5925 29.0672 19.3748 28.8663 19.107 28.7678L18.8641 28.6784C18.5964 28.5799 18.3004 28.5918 18.0414 28.7115C17.7823 28.8311 17.5815 29.0488 17.4829 29.3166L17.3983 29.5466C17.2998 29.8144 17.3117 30.1104 17.4314 30.3694C17.5511 30.6284 17.7687 30.8293 18.0365 30.9278L18.2794 31.0172C18.5472 31.1157 18.8432 31.1038 19.1022 30.9841C19.3612 30.8645 19.5621 30.6468 19.6606 30.379L19.7452 30.149Z" fill="white"/>
<path d="M61.626 22.5903C62.467 22.5903 63.1487 21.9086 63.1487 21.0676C63.1487 20.2267 62.467 19.5449 61.626 19.5449C60.785 19.5449 60.1033 20.2267 60.1033 21.0676C60.1033 21.9086 60.785 22.5903 61.626 22.5903Z" fill="white"/>
<path d="M37.1141 33.3936C32.2323 32.4123 32.4663 24.2019 37.4284 23.7149C38.7023 23.5899 39.7951 23.995 40.7067 24.9302C40.7133 24.9371 40.7218 24.9419 40.7311 24.9439C40.7405 24.9458 40.7502 24.945 40.759 24.9414C40.7678 24.9378 40.7753 24.9317 40.7806 24.9237C40.7859 24.9158 40.7887 24.9065 40.7886 24.897V19.7774C40.7886 19.7634 40.7942 19.75 40.8041 19.7401C40.814 19.7302 40.8274 19.7246 40.8414 19.7246H43.1532C43.167 19.7246 43.1801 19.7301 43.1898 19.7398C43.1995 19.7495 43.205 19.7626 43.205 19.7764C43.205 23.3574 43.2052 26.9449 43.2055 30.5389C43.2055 31.3982 43.4025 32.276 43.5985 33.1216C43.6238 33.2308 43.5805 33.2853 43.4685 33.2853H41.2048C41.1754 33.2853 41.1469 33.2752 41.1241 33.2566C41.1013 33.2381 41.0856 33.2122 41.0796 33.1834L40.8752 32.1852C40.8732 32.1753 40.8685 32.1661 40.8617 32.1587C40.8549 32.1512 40.8462 32.1457 40.8365 32.1428C40.8269 32.1398 40.8166 32.1395 40.8068 32.1418C40.797 32.1442 40.788 32.1491 40.7807 32.1561C39.7978 33.1195 38.5238 33.6772 37.1141 33.3936ZM40.8229 28.6097C40.8273 27.9767 40.573 27.3678 40.116 26.917C39.6589 26.4662 39.0365 26.2104 38.3857 26.2058C38.0635 26.2036 37.744 26.2631 37.4454 26.381C37.1469 26.4988 36.8751 26.6727 36.6457 26.8928C36.4163 27.1128 36.2338 27.3747 36.1084 27.6634C35.9831 27.9521 35.9174 28.262 35.9153 28.5754C35.9108 29.2084 36.1651 29.8173 36.6222 30.2681C37.0792 30.7189 37.7016 30.9748 38.3524 30.9793C38.6746 30.9816 38.9942 30.922 39.2927 30.8042C39.5913 30.6863 39.863 30.5124 40.0924 30.2924C40.3218 30.0723 40.5044 29.8105 40.6297 29.5218C40.7551 29.233 40.8207 28.9231 40.8229 28.6097Z" fill="white"/>
<path d="M58.1829 19.7241H55.917C55.8756 19.7241 55.842 19.7577 55.842 19.7991V33.2093C55.842 33.2507 55.8756 33.2843 55.917 33.2843H58.1829C58.2243 33.2843 58.2579 33.2507 58.2579 33.2093V19.7991C58.2579 19.7577 58.2243 19.7241 58.1829 19.7241Z" fill="white"/>
<path d="M53.5883 32.4089C50.0543 34.428 45.0087 33.5803 44.8276 28.6747C44.7267 25.942 46.6888 23.6143 49.5024 23.6618C52.8087 23.7178 54.7888 26.403 54.1714 29.5895C54.1687 29.6038 54.1611 29.6166 54.1499 29.6259C54.1387 29.6351 54.1247 29.6402 54.1101 29.6402L47.5228 29.6418C47.5044 29.6418 47.4862 29.647 47.4705 29.6566C47.4547 29.6662 47.4419 29.6799 47.4334 29.6962C47.4249 29.7126 47.421 29.7309 47.4223 29.7493C47.4235 29.7676 47.4298 29.7852 47.4404 29.8002C48.6568 31.5268 51.0346 31.1566 52.645 30.3342C52.6577 30.3277 52.6716 30.3239 52.6858 30.323C52.7 30.322 52.7143 30.324 52.7277 30.3287C52.7411 30.3335 52.7535 30.3409 52.764 30.3506C52.7744 30.3602 52.7828 30.3719 52.7887 30.3849L53.6327 32.2736C53.6433 32.2977 53.6447 32.3248 53.6365 32.3498C53.6283 32.3748 53.6111 32.3958 53.5883 32.4089ZM47.2725 27.7182C47.3131 27.7208 47.3765 27.7446 47.414 27.7441C48.5299 27.7328 49.6457 27.7272 50.7615 27.7272C51.0008 27.7266 51.4133 27.7552 51.7376 27.7314C51.751 27.7304 51.7639 27.7263 51.7755 27.7195C51.787 27.7126 51.7968 27.7032 51.8041 27.692C51.8114 27.6807 51.816 27.668 51.8176 27.6546C51.8192 27.6413 51.8176 27.6278 51.8131 27.6152C51.5864 26.9786 51.1679 26.5381 50.5577 26.2937C49.2948 25.7877 47.5783 26.1395 47.2175 27.6427C47.2063 27.6891 47.2246 27.7143 47.2725 27.7182Z" fill="white"/>
<path d="M82.5135 32.4406C79.8959 33.9596 75.5121 34.0583 74.1695 30.6601C72.7038 26.9502 75.2897 22.9958 79.4622 23.7897C82.2526 24.3205 83.5614 26.9444 83.1177 29.589C83.1089 29.6411 83.0781 29.6671 83.0253 29.6671L76.4184 29.6798C76.405 29.6799 76.3918 29.6831 76.38 29.6893C76.3681 29.6955 76.3579 29.7045 76.3502 29.7155C76.3426 29.7265 76.3377 29.7391 76.3359 29.7524C76.3342 29.7657 76.3357 29.7792 76.3402 29.7918C76.3504 29.8196 76.3688 29.8509 76.3952 29.8858C77.6776 31.5638 79.9503 31.1798 81.5918 30.3881C81.6028 30.3827 81.6148 30.3796 81.627 30.379C81.6392 30.3783 81.6514 30.3802 81.663 30.3844C81.6745 30.3885 81.6851 30.395 81.6941 30.4034C81.7031 30.4117 81.7103 30.4218 81.7154 30.433L82.5568 32.3059C82.5828 32.364 82.5684 32.4089 82.5135 32.4406ZM80.7626 27.6907C80.5857 25.5295 76.2689 25.6414 76.2103 27.6928C76.2101 27.6986 76.211 27.7043 76.2131 27.7096C76.2151 27.715 76.2182 27.7199 76.2221 27.724C76.2261 27.7281 76.2308 27.7313 76.2361 27.7335C76.2413 27.7357 76.2469 27.7368 76.2526 27.7367L80.733 27.7224C80.7371 27.7224 80.7412 27.7216 80.745 27.72C80.7487 27.7184 80.7521 27.716 80.7549 27.713C80.7577 27.71 80.7598 27.7065 80.7611 27.7027C80.7625 27.6988 80.763 27.6948 80.7626 27.6907Z" fill="white"/>
<path d="M84.8692 33.285C84.8504 33.285 84.8324 33.2776 84.8191 33.2643C84.8058 33.251 84.7984 33.233 84.7984 33.2142C84.7987 30.9625 84.7975 28.7019 84.7947 26.4326C84.7936 25.6044 84.6024 24.7921 84.4281 23.9665C84.426 23.9566 84.4261 23.9463 84.4285 23.9365C84.4309 23.9266 84.4355 23.9174 84.4419 23.9095C84.4483 23.9016 84.4565 23.8952 84.4657 23.8908C84.4749 23.8865 84.485 23.8842 84.4952 23.8841H86.8176C86.8707 23.8841 86.9028 23.91 86.9137 23.9618L87.126 24.9632C87.1273 24.9689 87.1301 24.9741 87.1342 24.9783C87.1383 24.9824 87.1434 24.9854 87.1491 24.9868C87.1548 24.9881 87.1607 24.9879 87.1663 24.9861C87.1718 24.9842 87.1767 24.9809 87.1804 24.9764C88.3255 23.6005 89.863 23.3723 91.438 24.1324C91.4485 24.1373 91.4566 24.1462 91.4607 24.157C91.4647 24.1679 91.4643 24.1799 91.4597 24.1905L90.3848 26.6058C90.379 26.6188 90.3706 26.6306 90.3601 26.6404C90.3496 26.6502 90.3373 26.6577 90.3239 26.6627C90.3105 26.6677 90.2962 26.6699 90.2819 26.6693C90.2676 26.6687 90.2536 26.6652 90.2406 26.6591C89.4241 26.2767 87.7123 26.0956 87.295 27.2153C87.2429 27.3558 87.2167 27.6139 87.2163 27.9896C87.2142 29.7357 87.2139 31.4736 87.2153 33.2032C87.2153 33.2249 87.2067 33.2457 87.1913 33.261C87.176 33.2764 87.1551 33.285 87.1334 33.285H84.8692Z" fill="white"/>
<path d="M97.9894 33.066C95.6749 34.0352 92.8999 33.2281 91.7924 30.8598C90.2058 27.4674 92.3834 23.5246 96.2992 23.7021C99.219 23.8341 100.983 26.1855 100.839 28.9711C100.743 30.8302 99.7086 32.3461 97.9894 33.066ZM98.5219 28.547C98.5109 27.9145 98.2423 27.3124 97.7753 26.8732C97.3082 26.434 96.681 26.1936 96.0316 26.2049C95.3821 26.2162 94.7636 26.4784 94.3122 26.9336C93.8608 27.3889 93.6134 28 93.6244 28.6325C93.6355 29.265 93.9041 29.8671 94.3711 30.3063C94.8381 30.7455 95.4654 30.9859 96.1148 30.9746C96.7643 30.9633 97.3827 30.7011 97.8341 30.2459C98.2856 29.7906 98.533 29.1795 98.5219 28.547Z" fill="white"/>
<path d="M104.965 33.1238C101.898 32.0036 101.08 27.6969 103.137 25.3328C104.956 23.2429 108.498 23.0966 110.352 25.2267C112.322 27.4899 111.929 31.4142 109.134 32.8893C107.853 33.5659 106.324 33.6198 104.965 33.1238ZM109.251 28.6125C109.256 27.9795 109.004 27.3702 108.548 26.9186C108.092 26.467 107.471 26.2101 106.821 26.2044C106.499 26.2016 106.18 26.2605 105.882 26.3779C105.583 26.4952 105.312 26.6687 105.082 26.8883C104.853 27.108 104.67 27.3695 104.544 27.658C104.419 27.9465 104.352 28.2563 104.35 28.5697C104.344 29.2027 104.597 29.812 105.053 30.2636C105.508 30.7152 106.13 30.9721 106.779 30.9778C107.101 30.9806 107.421 30.9217 107.719 30.8043C108.017 30.687 108.289 30.5135 108.518 30.2939C108.748 30.0742 108.931 29.8127 109.056 29.5242C109.182 29.2357 109.248 28.9259 109.251 28.6125Z" fill="white"/>
<path d="M62.7616 23.8833H60.5285C60.4778 23.8833 60.4366 23.9244 60.4366 23.9752V33.1928C60.4366 33.2436 60.4778 33.2847 60.5285 33.2847H62.7616C62.8124 33.2847 62.8535 33.2436 62.8535 33.1928V23.9752C62.8535 23.9244 62.8124 23.8833 62.7616 23.8833Z" fill="white"/>
<path d="M66.6653 33.2519L64.1507 23.9424C64.1488 23.9356 64.1485 23.9284 64.1499 23.9214C64.1512 23.9145 64.1542 23.908 64.1585 23.9023C64.1628 23.8967 64.1683 23.8922 64.1747 23.889C64.181 23.8859 64.188 23.8843 64.1951 23.8843H66.7107C66.7209 23.8843 66.7309 23.8878 66.7389 23.8941C66.7469 23.9004 66.7526 23.9092 66.7551 23.9191L68.5561 31.313C68.5586 31.323 68.5643 31.3318 68.5724 31.3382C68.5805 31.3445 68.5905 31.348 68.6008 31.348C68.6111 31.348 68.621 31.3445 68.6291 31.3382C68.6372 31.3318 68.643 31.323 68.6454 31.313L70.4486 23.9191C70.451 23.9092 70.4567 23.9004 70.4648 23.8941C70.4728 23.8878 70.4827 23.8843 70.4929 23.8843H73.0329C73.04 23.8843 73.047 23.8859 73.0533 23.889C73.0597 23.8922 73.0652 23.8967 73.0695 23.9023C73.0738 23.908 73.0767 23.9145 73.0781 23.9214C73.0794 23.9284 73.0791 23.9356 73.0773 23.9424L70.5701 33.2519C70.5674 33.2616 70.5616 33.2702 70.5536 33.2763C70.5456 33.2824 70.5358 33.2857 70.5257 33.2857H66.7097C66.6996 33.2857 66.6898 33.2824 66.6818 33.2763C66.6738 33.2702 66.668 33.2616 66.6653 33.2519Z" fill="white"/>
</g>
</g>
<defs>
<clipPath id="clip0_1360_494">
<rect width="111.655" height="50" fill="white" transform="translate(0.172485 0.904297)"/>
</clipPath>
<clipPath id="clip1_1360_494">
<rect width="111.655" height="30" fill="white" transform="translate(0.172485 10.9043)"/>
</clipPath>
</defs>
</svg>
