<svg width="69" height="51" viewBox="0 0 69 51" fill="none" xmlns="http://www.w3.org/2000/svg">
<g clip-path="url(#clip0_1360_402)">
<g clip-path="url(#clip1_1360_402)">
<path d="M68.2191 36.6871C68.2809 36.6379 68.3303 36.5749 68.3634 36.5031C68.3984 36.4042 68.4138 36.2994 68.4087 36.1947V26.0965C68.4135 25.9899 68.3981 25.8833 68.3634 25.7824C68.3316 25.7122 68.2818 25.6517 68.2191 25.6069C68.0663 25.4899 67.7115 25.4314 67.1549 25.4314C66.5983 25.4314 66.238 25.4899 66.0738 25.6069C66.0111 25.6517 65.9613 25.7122 65.9295 25.7824C65.8976 25.8839 65.8852 25.9904 65.8927 26.0965V36.2003C65.8837 36.2898 65.8948 36.3802 65.9252 36.4649C65.9555 36.5496 66.0044 36.6265 66.0681 36.6899C66.221 36.8069 66.5813 36.8654 67.1493 36.8654C67.7172 36.8654 68.0738 36.806 68.2191 36.6871ZM60.6851 36.7437C61.2107 36.573 61.6933 36.2911 62.1002 35.9173C62.4698 35.5752 62.753 35.1504 62.9266 34.6777C63.1039 34.1732 63.192 33.6416 63.187 33.1069V26.0965C63.1979 26.006 63.1877 25.9143 63.1573 25.8283C63.1268 25.7424 63.077 25.6647 63.0115 25.6013C62.8455 25.4843 62.4908 25.4258 61.9474 25.4258C61.404 25.4258 61.0436 25.4843 60.8663 25.6013C60.8008 25.6437 60.7495 25.7048 60.7191 25.7767C60.6813 25.8791 60.6622 25.9874 60.6625 26.0965V33.0758C60.6606 33.3647 60.6119 33.6515 60.5181 33.9248C60.4044 34.2346 60.1794 34.4909 59.887 34.6437C59.49 34.8494 59.0459 34.947 58.5993 34.9267C58.2791 34.9335 57.9599 34.8886 57.654 34.7937C57.4149 34.7186 57.1961 34.5899 57.0144 34.4173C56.8464 34.2534 56.7202 34.0515 56.6464 33.8286C56.5668 33.5848 56.5276 33.3295 56.5304 33.073V26.0965C56.5413 26.006 56.5311 25.9143 56.5007 25.8283C56.4702 25.7424 56.4204 25.6647 56.3549 25.6013C56.1889 25.4843 55.8342 25.4258 55.2908 25.4258C54.7474 25.4258 54.387 25.4843 54.2097 25.6013C54.1442 25.6437 54.0929 25.7048 54.0625 25.7767C54.0324 25.8805 54.0209 25.9888 54.0285 26.0965V33.1041C54.0236 33.6388 54.1117 34.1703 54.2889 34.6748C54.4577 35.1505 54.7371 35.5792 55.104 35.9258C55.512 36.2956 55.9945 36.5735 56.5191 36.7409C57.8776 37.1371 59.321 37.1371 60.6795 36.7409L60.6851 36.7437ZM48.3398 36.6871C48.4007 36.6383 48.4484 36.5751 48.4785 36.5031C48.5111 36.4037 48.5254 36.2992 48.521 36.1947V27.5767H51.0398C51.1926 27.5809 51.3451 27.5628 51.4927 27.523C51.5508 27.5036 51.6046 27.4729 51.6507 27.4326C51.6969 27.3922 51.7346 27.3431 51.7615 27.288C51.852 27.0919 51.9112 26.8827 51.937 26.6682C51.9733 26.4587 51.9941 26.2468 51.9993 26.0343C52.0028 25.9322 51.9913 25.8302 51.9653 25.7314C51.9434 25.6589 51.8962 25.5967 51.8323 25.556C51.778 25.5249 51.7186 25.5038 51.6568 25.4937C51.5472 25.478 51.4364 25.4713 51.3257 25.4739H43.4832C43.3305 25.4697 43.1779 25.4878 43.0304 25.5277C42.9697 25.5455 42.9133 25.5755 42.8646 25.6159C42.816 25.6563 42.7761 25.7062 42.7474 25.7626C42.66 25.9331 42.6008 26.1166 42.5719 26.306C42.5302 26.5366 42.5094 26.7706 42.5096 27.005C42.5101 27.1115 42.5263 27.2174 42.5578 27.3192C42.5802 27.3931 42.6297 27.4558 42.6964 27.4946C42.855 27.5631 43.0281 27.5913 43.2002 27.5767H46.0049V36.189C45.9937 36.2808 46.0051 36.3739 46.0382 36.4602C46.0712 36.5466 46.1249 36.6235 46.1946 36.6843C46.3474 36.8013 46.7078 36.8597 47.2757 36.8597C47.8436 36.8597 48.1974 36.8031 48.337 36.6899L48.3398 36.6871Z" fill="white"/>
<path d="M2.38602 19.293H11.2134C12.0851 19.293 12.7304 19.576 12.9851 20.7958C13.2681 22.1628 13.1605 23.1137 11.6153 23.2213L8.84168 23.4194C10.8851 36.2967 22.8002 40.4967 29.2898 26.6203C30.3653 24.325 30.7049 23.9062 31.8907 24.1977C33.4841 24.5939 33.7021 25.4203 32.9379 27.7269C27.337 44.8326 8.48224 46.5477 4.78319 23.7109L2.53885 23.8722C0.707717 24.0024 0.634132 22.4571 0.634132 21.6081C0.628472 19.9015 1.2596 19.293 2.38602 19.293Z" fill="white"/>
<path d="M34.4635 17.5693C36.2704 17.5693 37.7352 16.1045 37.7352 14.2976C37.7352 12.4907 36.2704 11.0259 34.4635 11.0259C32.6566 11.0259 31.1918 12.4907 31.1918 14.2976C31.1918 16.1045 32.6566 17.5693 34.4635 17.5693Z" fill="white"/>
</g>
</g>
<defs>
<clipPath id="clip0_1360_402">
<rect width="67.9245" height="50" fill="white" transform="translate(0.557739 0.904297)"/>
</clipPath>
<clipPath id="clip1_1360_402">
<rect width="67.9245" height="30" fill="white" transform="translate(0.557739 10.9043)"/>
</clipPath>
</defs>
</svg>
