<svg width="131" height="51" viewBox="0 0 131 51" fill="none" xmlns="http://www.w3.org/2000/svg">
<g clip-path="url(#clip0_1360_96)">
<g clip-path="url(#clip1_1360_96)">
<path d="M14.9801 33.4041C15.2801 33.4041 15.5658 33.3326 15.8373 33.1755L18.9658 31.3755C19.5944 31.0184 20.323 30.8612 21.0515 30.9469C24.8515 31.3898 27.5087 32.1041 28.2944 32.3326C28.4515 32.3755 28.6373 32.3184 28.7373 32.1898C28.8658 32.0326 29.023 31.7755 29.1515 31.4041C29.2658 31.0469 29.2801 30.7469 29.2658 30.5326C29.2515 30.3612 29.1373 30.2041 28.9658 30.1612C27.7373 29.8041 22.2944 28.3326 14.9801 28.3326C7.66582 28.3326 2.22296 29.8041 0.994391 30.1612C0.822962 30.2041 0.708676 30.3612 0.694391 30.5326C0.680105 30.7326 0.694391 31.0326 0.808677 31.4041C0.922962 31.7755 1.09439 32.0326 1.22296 32.1898C1.32296 32.3184 1.50868 32.3755 1.66582 32.3326C2.45153 32.1041 5.12296 31.3898 8.90868 30.9469C9.63725 30.8612 10.3658 31.0184 10.9944 31.3755L14.123 33.1755C14.3944 33.3326 14.6944 33.4041 14.9801 33.4041ZM9.76582 23.2755C9.93725 23.5755 10.2087 23.7755 10.523 23.8612C10.8373 23.9469 11.1658 23.9041 11.4658 23.7326C11.7658 23.5612 11.9658 23.2898 12.0515 22.9755C12.1373 22.6612 12.0944 22.3326 11.923 22.0326L9.10868 17.1612C9.02297 17.0041 8.83725 16.9469 8.66582 16.9612C8.43725 16.9755 8.12297 17.0898 7.75154 17.3041C7.38011 17.5183 7.12297 17.7326 6.99439 17.9183C6.89439 18.0612 6.86582 18.2469 6.95154 18.4041L9.76582 23.2755ZM7.19439 26.7612C7.49439 26.9326 7.83725 26.9612 8.13725 26.8898C8.45154 26.8041 8.72297 26.6041 8.89439 26.3041C9.06582 26.0041 9.09439 25.6612 9.02297 25.3612C8.95154 25.0612 8.73725 24.7755 8.43725 24.6041L3.56582 21.7898C3.40868 21.7041 3.22296 21.7326 3.08011 21.8326C2.89439 21.9612 2.68011 22.2184 2.46582 22.5898C2.25153 22.9612 2.13725 23.2755 2.12296 23.5041C2.10868 23.6898 2.18011 23.8612 2.32296 23.9469L7.19439 26.7612ZM16.223 21.5469C16.223 21.8898 16.0801 22.2041 15.8658 22.4326C15.6373 22.6612 15.3373 22.7898 14.9801 22.7898C14.6373 22.7898 14.323 22.6469 14.0944 22.4326C13.8658 22.2041 13.7373 21.9041 13.7373 21.5469V15.9326C13.7373 15.7469 13.8515 15.6041 14.023 15.5326C14.223 15.4326 14.5515 15.3755 14.9801 15.3755C15.4087 15.3755 15.7373 15.4326 15.9373 15.5326C16.0944 15.6183 16.223 15.7469 16.223 15.9326V21.5469ZM20.1944 23.2755C20.023 23.5755 19.7515 23.7755 19.4373 23.8612C19.123 23.9469 18.7944 23.9041 18.4944 23.7326C18.1944 23.5612 17.9944 23.2898 17.9087 22.9755C17.823 22.6612 17.8658 22.3326 18.0373 22.0326L20.8515 17.1612C20.9373 17.0041 21.123 16.9469 21.2944 16.9612C21.523 16.9755 21.8373 17.0898 22.2087 17.3041C22.5801 17.5183 22.8373 17.7326 22.9658 17.9183C23.0658 18.0612 23.0944 18.2469 23.0087 18.4041L20.1944 23.2755ZM22.7658 26.7612C22.4658 26.9326 22.123 26.9612 21.823 26.8898C21.5087 26.8041 21.2373 26.6041 21.0658 26.3041C20.8944 26.0041 20.8658 25.6612 20.9373 25.3612C21.023 25.0469 21.223 24.7755 21.523 24.6041L26.3944 21.7898C26.5515 21.7041 26.7373 21.7326 26.8801 21.8326C27.0658 21.9612 27.2801 22.2184 27.4944 22.5898C27.7087 22.9612 27.823 23.2755 27.8373 23.5041C27.8515 23.6898 27.7801 23.8612 27.6373 23.9469L22.7658 26.7612ZM53.8373 22.8898H56.1801C56.2658 22.8898 56.3373 22.9469 56.3801 23.0184L58.7087 28.9898L60.9658 23.0184C60.9944 22.9326 61.0801 22.8898 61.1658 22.8898H63.4658C63.623 22.8898 63.723 23.0469 63.6516 23.1755L57.9373 36.2898C57.9087 36.3612 57.823 36.4184 57.7516 36.4184H55.723C55.5801 36.4184 55.4658 36.2612 55.5373 36.1326L57.4944 31.5469L53.6658 23.1755C53.5801 23.0469 53.6801 22.8898 53.8373 22.8898ZM88.423 24.2184V23.1041C88.423 22.9898 88.523 22.8898 88.6373 22.8898H90.7087C90.823 22.8898 90.923 22.9898 90.923 23.1041V32.0041C90.923 32.1184 90.823 32.2184 90.7087 32.2184H88.6373C88.523 32.2184 88.423 32.1184 88.423 32.0041V30.8326C87.9801 31.5184 87.0087 32.4184 85.423 32.4184C82.3944 32.4184 80.823 30.1041 80.823 27.5184C80.823 24.1469 83.1659 22.7041 85.3516 22.7041C86.7944 22.6898 87.7944 23.3755 88.423 24.2184ZM83.323 27.5326C83.323 29.1326 84.3087 30.3612 85.8944 30.3612C87.4801 30.3612 88.4944 29.2898 88.4944 27.6469C88.4944 26.0041 87.5087 24.7469 85.823 24.7469C84.2373 24.7469 83.323 25.9755 83.323 27.5326ZM92.7944 32.0041V23.1041C92.7944 22.9898 92.8944 22.8898 93.0087 22.8898H95.0801C95.1944 22.8898 95.2944 22.9898 95.2944 23.1041V24.3184C95.7801 23.4755 96.6944 22.7041 98.2516 22.7041C99.8516 22.7041 101.637 23.4898 101.637 27.1041V32.0041C101.637 32.1184 101.537 32.2184 101.423 32.2184H99.3516C99.2373 32.2184 99.1373 32.1184 99.1373 32.0041V27.1469C99.1373 26.2755 98.923 24.7755 97.3802 24.7755C95.8373 24.7755 95.2944 26.1326 95.2944 27.3898V32.0041C95.2944 32.1184 95.1944 32.2184 95.0801 32.2184H93.0087C92.8801 32.2041 92.7944 32.1184 92.7944 32.0041ZM103.409 32.0041V23.1041C103.409 22.9898 103.509 22.8898 103.623 22.8898H105.694C105.809 22.8898 105.909 22.9898 105.909 23.1041V24.3184C106.394 23.4755 107.309 22.7041 108.866 22.7041C110.466 22.7041 112.252 23.4898 112.252 27.1041V32.0041C112.252 32.1184 112.152 32.2184 112.037 32.2184H109.966C109.852 32.2184 109.752 32.1184 109.752 32.0041V27.1469C109.752 26.2755 109.537 24.7755 107.994 24.7755C106.452 24.7755 105.909 26.1326 105.909 27.3898V32.0041C105.909 32.1184 105.809 32.2184 105.694 32.2184H103.623C103.509 32.2041 103.409 32.1184 103.409 32.0041ZM125.166 22.8898H127.18C127.294 22.8898 127.394 22.9898 127.394 23.1041V24.9469C127.794 23.1184 129.366 22.4898 130.509 22.7612C130.609 22.7755 130.666 22.8612 130.666 22.9612V24.9898C130.666 25.1184 130.552 25.2184 130.409 25.1898C128.294 24.7755 127.437 25.9184 127.437 27.5184V32.0041C127.437 32.1184 127.337 32.2184 127.223 32.2184H125.152C125.037 32.2184 124.937 32.1184 124.937 32.0041V23.1041C124.952 22.9898 125.052 22.8898 125.166 22.8898ZM40.1087 24.9184C39.4658 24.7041 39.123 24.5755 38.6087 24.4041C38.0801 24.2184 37.1801 23.7041 37.1801 22.8755C37.1801 22.0469 37.7516 21.5184 38.9087 21.5184C39.9658 21.5184 40.5516 22.0326 40.9373 22.8612C40.9944 22.9755 41.123 23.0184 41.2373 22.9612L42.9373 21.9755C43.023 21.9184 43.0658 21.8041 43.023 21.7041C42.5087 20.5755 41.3087 19.2183 38.9373 19.2183C36.2944 19.2183 34.6373 20.7898 34.6373 22.8612C34.6373 24.9184 35.9944 25.9898 37.8373 26.6184C38.5087 26.8469 38.7801 26.9469 39.3516 27.1326C40.4373 27.5041 40.9373 27.9898 40.9373 28.6612C40.9373 29.3326 40.5087 30.1326 38.823 30.1326C37.2801 30.1326 36.7373 29.3184 36.423 28.5469C36.3801 28.4326 36.2373 28.3755 36.123 28.4469L34.3373 29.4755C34.2516 29.5326 34.2087 29.6326 34.2516 29.7326C34.9373 31.4184 36.8087 32.4184 38.9087 32.4184C41.3801 32.4184 43.4658 31.1612 43.4658 28.6184C43.4658 26.0755 40.7516 25.1326 40.1087 24.9184ZM53.7516 29.7755C53.6944 29.6755 53.5516 29.6326 53.4516 29.7041C52.6516 30.2898 51.7087 30.3041 50.9944 29.2041C50.3944 28.2755 49.6658 27.1326 49.6658 27.1326L52.8087 23.2326C52.923 23.0898 52.823 22.8898 52.6516 22.8898H50.1944C50.123 22.8898 50.0658 22.9184 50.023 22.9755L47.3087 26.7041V19.2041C47.3087 19.0898 47.2087 18.9898 47.0944 18.9898H45.023C44.9087 18.9898 44.8087 19.0898 44.8087 19.2041V32.0041C44.8087 32.1184 44.9087 32.2184 45.023 32.2184H47.1087C47.223 32.2184 47.323 32.1184 47.323 32.0041V27.8469C47.323 27.8469 48.7087 30.0326 49.2373 30.8469C49.9516 31.9612 50.9516 32.4184 52.0373 32.4184C53.0658 32.4184 53.723 32.1469 54.5087 31.3755C54.5801 31.3041 54.5944 31.2041 54.5516 31.1184L53.7516 29.7755ZM68.623 26.8326C67.9659 26.5898 67.7373 26.5041 67.2373 26.3184C66.7373 26.1326 66.2944 25.8612 66.2944 25.4612C66.2944 25.0612 66.6659 24.6184 67.423 24.6184C68.0801 24.6184 68.4801 24.8755 68.7087 25.3326C68.7659 25.4469 68.8944 25.4755 68.9944 25.4184L70.4516 24.5755C70.5516 24.5184 70.5801 24.3898 70.523 24.2898C70.123 23.5898 69.3373 22.7041 67.4373 22.7041C65.1087 22.7041 63.9087 24.0469 63.9087 25.5326C63.9087 27.0184 65.123 27.7184 66.2373 28.1612C67.4944 28.6755 67.5801 28.7041 67.7373 28.7612C68.123 28.9184 68.5944 29.1612 68.5944 29.6041C68.5944 30.0469 68.0801 30.4469 67.2944 30.4469C66.5658 30.4469 65.7373 30.1469 65.3944 29.3041C65.3516 29.1898 65.2087 29.1326 65.0944 29.2041L63.623 30.0469C63.5373 30.1041 63.4944 30.2041 63.5373 30.3041C63.9658 31.4184 65.2373 32.4041 67.2944 32.4041C69.523 32.4041 71.0087 31.2184 71.0087 29.5469C71.0087 27.8755 69.8659 27.2898 68.623 26.8326ZM76.9944 24.9184C77.923 24.9184 78.6087 25.2041 79.2516 25.6612C79.3516 25.7326 79.4944 25.7041 79.5516 25.6041L80.4087 24.1184C80.4659 24.0184 80.4373 23.9041 80.3373 23.8469C79.4516 23.2469 78.3516 22.6898 76.8659 22.6898C75.3944 22.6898 74.0373 23.0898 73.0659 24.0755C72.0944 25.0469 71.6516 26.2041 71.6516 27.5755C71.6516 29.2326 72.3373 30.2898 73.0801 31.0326C73.823 31.7755 75.1659 32.4041 76.8801 32.4041C78.423 32.4041 79.5659 31.7612 80.3516 31.2469C80.4373 31.1898 80.4659 31.0612 80.4087 30.9755L79.5659 29.5041C79.5087 29.4041 79.3659 29.3612 79.2659 29.4326C78.7087 29.8326 77.9087 30.1755 77.0087 30.1755C75.9944 30.1755 74.1516 29.6041 74.1516 27.5469C74.1516 25.4898 75.9801 24.9184 76.9944 24.9184ZM119.023 30.3469C118.194 30.3469 117.409 30.1469 116.837 29.6898C116.266 29.2326 115.994 28.7612 115.994 28.2041H123.394C123.509 28.2041 123.609 28.1041 123.609 27.9898C123.566 25.7898 122.852 24.7612 122.166 24.0612C121.452 23.3469 120.237 22.6898 118.637 22.6898C117.037 22.6898 115.809 23.2755 114.966 24.1041C114.137 24.9326 113.509 25.9898 113.509 27.5898C113.509 29.1898 114.152 30.2469 114.937 31.0326C115.723 31.8184 117.009 32.4041 118.852 32.4041C120.594 32.4041 122.066 31.7898 123.123 30.5755C123.209 30.4755 123.18 30.3184 123.066 30.2612L121.594 29.4041C121.523 29.3612 121.423 29.3612 121.352 29.4326C120.623 30.1184 119.694 30.3469 119.023 30.3469ZM118.623 24.6898C119.809 24.6898 120.894 25.4041 121.066 26.6898H116.08C116.409 25.3041 117.437 24.6898 118.623 24.6898Z" fill="white"/>
</g>
</g>
<defs>
<clipPath id="clip0_1360_96">
<rect width="130" height="50" fill="white" transform="translate(0.680054 0.904297)"/>
</clipPath>
<clipPath id="clip1_1360_96">
<rect width="130" height="21.2857" fill="white" transform="translate(0.680054 15.2612)"/>
</clipPath>
</defs>
</svg>
