<svg width="692" height="71" viewBox="0 0 692 71" fill="none" xmlns="http://www.w3.org/2000/svg">
<path d="M313.545 56.1125L328.602 14.1849H337.998L352.999 56.1125H344.762L337.404 34.1076C335.904 29.4083 334.376 24.5402 332.281 17.3928H334.376C332.253 24.5402 330.724 29.4083 329.196 34.1076L321.583 56.1125H313.545ZM322.489 46.1231V39.9887H344.083V46.1231H322.489ZM367.137 68.2688C359.241 68.2688 354.458 64.667 353.637 58.8702H360.656C361.335 61.4311 363.769 62.8097 367.137 62.8097C371.58 62.8097 374.156 60.3336 374.156 55.8032V51.2727H374.128C372.232 54.7618 369.034 56.3375 365.099 56.3375C357.316 56.3375 352.165 50.0626 352.165 41.1143C352.165 32.1097 357.401 25.8065 365.071 25.8065C368.949 25.8065 372.203 27.4105 374.156 30.8153H374.185V26.3975H381.26V55.3527C381.26 64.5542 375.232 68.2688 367.137 68.2688ZM366.797 50.4565C371.468 50.4565 374.496 46.7703 374.496 41.058C374.496 35.3457 371.468 31.6314 366.797 31.6314C362.383 31.6314 359.411 34.9799 359.411 41.058C359.411 47.108 362.383 50.4565 366.797 50.4565ZM399.05 56.7879C390.078 56.7879 384.446 50.3158 384.446 41.3113C384.446 32.2504 390.361 25.7221 398.738 25.7221C407.371 25.7221 413.059 32.0816 413.059 41.1987V43.1122H387.276V38.216H409.493L406.295 39.5385C406.295 34.5297 403.408 31.3781 398.852 31.3781C394.323 31.3781 391.436 34.5297 391.436 39.5385V42.6338C391.436 47.7552 394.238 51.2161 399.191 51.2161C402.785 51.2161 405.22 49.4998 406.012 46.9391H412.692C411.588 52.764 406.041 56.7879 399.05 56.7879ZM423.349 39.3134V56.1125H416.189V26.3975H423.236V33.9669H421.821C423.745 28.6767 427.198 25.8065 432.406 25.8065C438.661 25.8065 443.048 29.943 443.048 37.5687V56.1125H435.916V38.6943C435.916 34.3327 433.708 32.0534 429.887 32.0534C426.123 32.0534 423.349 34.2483 423.349 39.3134ZM463.469 26.3975V32.1097H444.988V26.3975H463.469ZM450.224 18.2933H457.384V47.6145C457.384 49.7249 458.092 50.4284 460.413 50.4284C461.318 50.4284 462.705 50.4284 463.469 50.4284V56.1125C462.479 56.1125 460.724 56.1125 459.167 56.1125C453.054 56.1125 450.224 53.7209 450.224 48.6275V18.2933ZM477.935 56.1125V14.1849H494.067C503.323 14.1849 509.126 19.3626 509.126 27.6074C509.126 35.8522 503.181 41.0299 493.926 41.0299H482.011V34.6985H493.643C498.653 34.6985 501.766 31.969 501.766 27.6074C501.766 23.2458 498.653 20.5444 493.643 20.5444H485.435V56.1125H477.935ZM521.085 56.1125C514.689 56.1125 512.085 53.9742 512.085 48.5431V14.1849H519.244V47.8396C519.244 49.9219 519.895 50.5128 521.959 50.5128C522.3 50.5128 522.809 50.5128 523.149 50.5128V56.1125C522.442 56.1125 521.761 56.1125 521.085 56.1125ZM534.488 56.6191C528.513 56.6191 524.156 53.6082 524.156 47.6989C524.156 40.9455 529.734 39.2571 535.901 38.6099C541.423 38.019 543.319 37.9345 543.319 35.8804V35.6552C543.319 33.1227 541.281 31.3218 537.854 31.3218C534.401 31.3218 532.083 33.1227 531.854 35.6552H525.005C525.346 29.746 530.186 25.8065 538.026 25.8065C545.806 25.8065 550.392 29.6616 550.392 35.8522V56.1125H543.375V51.9198H543.258C541.845 54.5646 539.328 56.6191 534.488 56.6191ZM536.242 51.3571C540.884 51.3571 543.375 48.5712 543.375 45.1382V41.9022C542.47 42.4931 539.725 42.9433 536.781 43.3654C533.725 43.8157 531.117 44.9413 531.117 47.6426C531.117 49.9501 533.1 51.3571 536.242 51.3571ZM570.76 26.3975V32.1097H552.278V26.3975H570.76ZM557.51 18.2933H564.674V47.6145C564.674 49.7249 565.381 50.4284 567.7 50.4284C568.605 50.4284 569.993 50.4284 570.76 50.4284V56.1125C569.769 56.1125 568.015 56.1125 566.454 56.1125C560.342 56.1125 557.51 53.7209 557.51 48.6275V18.2933ZM588.149 26.3975V32.1097H569.499V26.3975H588.149ZM574.879 56.1125V22.064C574.879 16.9708 578.077 14.1849 583.99 14.1849C585.744 14.1849 587.56 14.1849 588.149 14.1849V19.8973C587.697 19.8973 586.197 19.8973 585.404 19.8973C582.943 19.8973 582.038 20.8259 582.038 23.2458V56.1125H574.879ZM603.677 56.7879C594.876 56.7879 588.932 50.541 588.932 41.3113C588.932 32.0534 594.876 25.7221 603.677 25.7221C612.479 25.7221 618.423 32.0534 618.423 41.3113C618.423 50.541 612.479 56.7879 603.677 56.7879ZM603.677 50.8784C608.264 50.8784 611.208 47.2205 611.208 41.3113C611.208 35.3457 608.264 31.6595 603.677 31.6595C599.122 31.6595 596.178 35.3457 596.178 41.3113C596.178 47.2486 599.091 50.8784 603.677 50.8784ZM621.636 56.1125V26.3975H628.515V31.3499H628.627C629.705 27.9451 631.993 26.116 635.872 26.116C636.808 26.116 637.627 26.2004 638.191 26.2286V32.5318C637.657 32.4755 636.213 32.3067 634.825 32.3067C631.429 32.3067 628.795 34.6422 628.795 39.2852V56.1125H621.636ZM640.84 56.1125V26.3975H647.775V32.8976H647.236C648.823 28.1702 652.585 25.8065 656.749 25.8065C661.331 25.8065 665.012 28.7048 665.749 32.8976H664.844C666.003 28.6486 669.939 25.8065 674.891 25.8065C680.519 25.8065 684.882 29.5209 684.882 36.4994V56.1125H677.718V37.5125C677.718 33.6011 675.227 31.8283 672.201 31.8283C668.576 31.8283 666.344 34.3327 666.344 37.8783V56.1125H659.378V37.2029C659.378 33.9669 657.146 31.8283 653.973 31.8283C650.75 31.8283 648.004 34.1358 648.004 38.3848V56.1125H640.84Z" fill="white"/>
<path d="M96.0637 27.3606H103.877C102.573 19.1017 95.3845 13.3491 86.0214 13.3491C74.9433 13.3491 66.6367 21.4443 66.6367 35.0056C66.6367 48.567 74.5731 56.5801 86.2476 56.5801C96.7252 56.5801 104.226 49.8832 104.226 39.0328V33.9793H87.0535V39.9364H96.8076C96.6841 45.9345 92.6546 49.7366 86.2888 49.7366C79.1995 49.7366 74.3433 44.458 74.3433 34.9238C74.3433 25.3896 79.2819 20.1929 86.121 20.1929C91.2243 20.1929 94.695 22.9038 96.0602 27.364L96.0637 27.3606Z" fill="white"/>
<path d="M109.389 56.0012H116.869V24.4421H109.389V56.0012ZM113.151 19.4466C115.528 19.4466 117.469 17.6393 117.469 15.4194C117.469 13.1995 115.528 11.3718 113.151 11.3718C110.774 11.3718 108.812 13.1791 108.812 15.4194C108.812 17.6597 110.754 19.4466 113.151 19.4466Z" fill="white"/>
<path d="M139.271 24.4414H133.008V16.8816H125.528V24.4414H121.021V30.194H125.528V47.7415C125.487 53.6782 129.825 56.5971 135.447 56.4333C137.577 56.3721 139.041 55.9596 139.847 55.6937L138.588 49.8795C138.174 49.9818 137.326 50.166 136.397 50.166C134.517 50.166 133.008 49.5078 133.008 46.5105V30.1974H139.271V24.4448V24.4414Z" fill="white"/>
<path d="M145.061 56.0004H171.366V49.61H152.726V13.9216H145.061V56.0004Z" fill="white"/>
<path d="M185.693 56.6389C190.673 56.6389 193.65 54.3165 195.012 51.6671H195.259V56.0014H202.451V34.8801C202.451 26.5393 195.612 24.0331 189.555 24.0331C182.881 24.0331 177.757 26.9929 176.101 32.7454L183.087 33.7309C183.831 31.5724 185.937 29.7242 189.596 29.7242C193.256 29.7242 194.971 31.4906 194.971 34.5936V34.7164C194.971 36.8544 192.717 36.9567 187.117 37.55C180.957 38.2082 175.068 40.0359 175.068 47.1456C175.068 53.3514 179.637 56.6389 185.69 56.6389H185.693ZM188.152 51.1727C185.031 51.1727 182.799 49.7542 182.799 47.0228C182.799 44.2915 185.299 42.9752 188.646 42.5013C190.608 42.2353 194.535 41.7409 195.505 40.96V44.6802C195.505 48.1925 192.652 51.1727 188.149 51.1727H188.152Z" fill="white"/>
<path d="M207.973 56.0015H215.329V51.0297H215.765C216.945 53.3313 219.404 56.557 224.857 56.557C232.337 56.557 237.938 50.6611 237.938 40.2645C237.938 29.8676 232.173 24.0332 224.836 24.0332C219.236 24.0332 216.9 27.3817 215.765 29.663H215.456V13.9261H207.976V56.0045L207.973 56.0015ZM215.309 40.2236C215.309 34.0993 217.953 30.137 222.769 30.137C227.584 30.137 230.31 34.3483 230.31 40.2236C230.31 46.0989 227.707 50.4568 222.769 50.4568C217.829 50.4568 215.309 46.3478 215.309 40.2236Z" fill="white"/>
<path d="M52.5177 28.336L52.446 28.145L45.1749 9.28467C45.0308 8.9164 44.7667 8.60267 44.4272 8.38783C44.0877 8.17303 43.6898 8.07072 43.2885 8.09119C42.8872 8.11161 42.5031 8.25826 42.1876 8.50718C41.8755 8.75954 41.6491 9.09712 41.5463 9.47899L36.6384 24.4179H16.777L11.8691 9.47899C11.7628 9.09712 11.5364 8.7561 11.2278 8.50718C10.9122 8.25826 10.5281 8.11161 10.1268 8.09119C9.72209 8.07072 9.32769 8.17303 8.98814 8.38783C8.6486 8.60267 8.38797 8.91296 8.24047 9.28467L0.969527 28.145L0.8975 28.3325C-1.25635 33.9214 0.578539 40.2366 5.37668 43.8443C5.38695 43.8512 5.39381 43.858 5.40413 43.8648L5.46927 43.9126L16.5438 52.1543L22.021 56.2768L25.3546 58.7832C26.1572 59.3868 27.2684 59.3868 28.071 58.7832L31.4046 56.2768L36.8819 52.1543L48.0215 43.8614C48.0215 43.8614 48.0421 43.8478 48.0524 43.8376C52.8472 40.2298 54.6822 33.9146 52.5284 28.3291L52.5177 28.336Z" fill="#E24329"/>
<path d="M52.5169 28.3364L52.4447 28.1455C48.8369 28.8821 45.5169 30.3995 42.6703 32.517C42.6257 32.5512 34.0275 39.0164 26.7051 44.52C32.1411 48.6085 36.8741 52.1583 36.8741 52.1583L48.0137 43.8653C48.0137 43.8653 48.0343 43.8517 48.0446 43.8415C52.8393 40.2337 54.6743 33.9186 52.5205 28.3331L52.5169 28.3364Z" fill="#FC6D26"/>
<path d="M16.5371 52.1581L22.0143 56.2806L25.348 58.787C26.1506 59.3905 27.2618 59.3905 28.0643 58.787L31.398 56.2806L36.8753 52.1581C36.8753 52.1581 32.1422 48.6048 26.7062 44.5197C21.2701 48.6082 16.5371 52.1581 16.5371 52.1581Z" fill="#FCA326"/>
<path d="M10.7402 32.5168C7.89704 30.4026 4.57708 28.8818 0.965616 28.1487L0.893594 28.3362C-1.26025 33.9251 0.574629 40.2403 5.37279 43.848C5.38306 43.8548 5.38992 43.8617 5.40019 43.8684L5.46537 43.9162L16.5399 52.1581C16.5399 52.1581 21.2728 48.6049 26.7089 44.5198C19.3865 39.0162 10.7883 32.5509 10.7437 32.5168H10.7402Z" fill="#FC6D26"/>
<path d="M257.102 22.0582C256.172 21.5501 255.023 21.2943 253.651 21.2943H250.523V35.1386H253.545C254.958 35.1386 256.138 34.8795 257.081 34.3646C258.024 33.8497 258.734 33.0791 259.211 32.0526C259.688 31.0263 259.924 29.7407 259.924 28.196C259.924 26.6513 259.688 25.3726 259.211 24.3496C258.737 23.33 258.034 22.5628 257.108 22.0547L257.102 22.0582Z" fill="white"/>
<path d="M290.021 26.4744C289.483 26.0277 288.807 25.8026 288.001 25.8026C287.195 25.8026 286.492 26.0277 285.947 26.4744C285.401 26.9211 284.997 27.5178 284.729 28.2714C284.462 29.025 284.328 29.8605 284.328 30.788C284.328 31.7155 284.462 32.5406 284.729 33.2875C284.997 34.0342 285.405 34.631 285.947 35.0743C286.492 35.5176 287.174 35.7392 288.001 35.7392C288.828 35.7392 289.479 35.5176 290.021 35.0743C290.563 34.631 290.968 34.0342 291.235 33.2875C291.503 32.5406 291.633 31.7052 291.633 30.788C291.633 29.8707 291.503 29.025 291.235 28.2714C290.968 27.5212 290.563 26.9211 290.021 26.4744Z" fill="white"/>
<path d="M303.355 13.9149H244.793C243.846 13.9149 243.078 14.6787 243.078 15.6199V41.1057C243.078 42.0469 243.846 42.8107 244.793 42.8107H303.355C304.302 42.8107 305.07 42.0469 305.07 41.1057V15.6199C305.07 14.6787 304.302 13.9149 303.355 13.9149ZM262.391 33.6107C261.609 35.1213 260.484 36.2773 259.012 37.0854C257.545 37.8936 255.778 38.296 253.72 38.296H246.847V18.133H253.861C255.874 18.133 257.606 18.5354 259.057 19.3401C260.504 20.1448 261.619 21.2974 262.398 22.8012C263.18 24.305 263.567 26.102 263.567 28.1957C263.567 30.2894 263.176 32.1001 262.394 33.6107H262.391ZM278.918 38.296H275.444V35.6089H275.286C274.943 36.4546 274.381 37.1502 273.599 37.6855C272.817 38.2243 271.853 38.4937 270.711 38.4937C269.716 38.4937 268.835 38.2721 268.07 37.8288C267.309 37.3855 266.712 36.741 266.283 35.8885C265.855 35.0395 265.642 34.0097 265.642 32.8025V23.1729H269.226V32.2501C269.226 33.2083 269.49 33.9721 270.018 34.5348C270.547 35.1008 271.243 35.3804 272.1 35.3804C272.628 35.3804 273.139 35.2509 273.633 34.9951C274.127 34.7394 274.535 34.3575 274.858 33.8494C275.177 33.3413 275.338 32.7036 275.338 31.933V23.1695H278.922V38.2925L278.918 38.296ZM294.376 34.8894C293.779 36.059 292.936 36.966 291.845 37.6174C290.754 38.2687 289.468 38.5926 287.983 38.5926C286.498 38.5926 285.208 38.2687 284.121 37.6174C283.031 36.966 282.19 36.059 281.594 34.8894C280.993 33.7232 280.698 32.3558 280.698 30.7941C280.698 29.2323 280.997 27.8615 281.594 26.6885C282.19 25.5121 283.034 24.6016 284.121 23.9504C285.212 23.299 286.498 22.9751 287.983 22.9751C289.468 22.9751 290.757 23.299 291.845 23.9504C292.936 24.6016 293.779 25.5121 294.376 26.6885C294.973 27.8615 295.271 29.2323 295.271 30.7941C295.271 32.3558 294.973 33.7232 294.376 34.8894ZM301.692 22.1329L299.438 22.5557C298.711 22.6955 298.135 23.2786 298.001 24.0322L297.59 26.3475C297.521 26.7567 296.952 26.7567 296.88 26.3475L296.468 24.0322C296.334 23.2854 295.765 22.6921 295.031 22.5557L292.778 22.1329C292.38 22.0647 292.38 21.4782 292.778 21.4031L295.031 20.9803C295.758 20.8405 296.334 20.2574 296.468 19.5038L296.88 17.1884C296.948 16.7792 297.518 16.7792 297.59 17.1884L298.001 19.5038C298.135 20.2506 298.704 20.8439 299.438 20.9803L301.692 21.4031C302.089 21.4713 302.089 22.0578 301.692 22.1329Z" fill="white"/>
</svg>
