<svg width="256" height="178" viewBox="0 0 256 178" fill="none" xmlns="http://www.w3.org/2000/svg">
<g clip-path="url(#clip0_1033_5410)">
<rect width="256" height="178.001" rx="2" fill="#2F2A6B"/>
<path d="M37.9035 45.3295V48.3346H28.2369V45.3295H37.9035ZM30.9755 41.0661H34.7208V56.4913C34.7208 57.6015 35.0908 57.9716 36.3047 57.9716C36.7784 57.9716 37.5038 57.9716 37.9035 57.9716V60.9619C37.3854 60.9619 36.4676 60.9619 35.6534 60.9619C32.4558 60.9619 30.9755 59.7036 30.9755 57.0242V41.0661ZM43.9877 52.1243V60.9619H40.2424V38.9048H43.9877V49.3116H43.1883C44.195 46.5286 46.001 45.0186 48.7248 45.0186C51.9964 45.0186 54.2909 47.1947 54.2909 51.2064V60.9619H50.5604V51.7986C50.5604 49.5041 49.4058 48.305 47.4073 48.305C45.4385 48.305 43.9877 49.4596 43.9877 52.1243ZM64.5349 61.3172C59.8422 61.3172 56.8963 57.9124 56.8963 53.1753C56.8963 48.4086 59.9902 44.9742 64.3721 44.9742C68.8871 44.9742 71.8626 48.3198 71.8626 53.1161V54.1227H58.3767V51.5469H69.9974L68.3246 52.2427C68.3246 49.6077 66.8146 47.9497 64.4313 47.9497C62.0627 47.9497 60.5528 49.6077 60.5528 52.2427V53.8711C60.5528 56.5653 62.0183 58.3861 64.6089 58.3861C66.4889 58.3861 67.762 57.4831 68.1765 56.136H71.6701C71.0928 59.2003 68.1913 61.3172 64.5349 61.3172ZM44.6184 105.783C36.4672 105.783 30.4643 101.866 29.9272 94.6623H37.7941C38.1416 97.9165 40.5112 99.7805 44.4604 99.7805C48.3148 99.7805 50.6844 98.106 50.6844 95.7365C50.6844 93.7461 48.9151 92.5455 46.1033 91.9452L40.4164 90.7763C34.0344 89.4493 30.6855 86.1952 30.6855 81.1402C30.6855 75.0109 35.9932 70.9037 44.1445 70.9037C52.2325 70.9037 57.7614 75.1373 57.951 81.9932H50.4316C50.3684 79.0234 47.9357 76.8434 44.334 76.8434C40.8271 76.8434 38.6471 78.6442 38.6471 80.8874C38.6471 82.8778 40.29 84.11 43.0703 84.7103L49.1047 85.974C55.7078 87.3641 58.7408 90.2708 58.7408 95.1362C58.7408 101.645 52.8644 105.783 44.6184 105.783ZM79.0873 105.72C69.2616 105.72 62.6269 98.7063 62.6269 88.3436C62.6269 77.9492 69.2616 70.8406 79.0873 70.8406C88.9129 70.8406 95.5476 77.9492 95.5476 88.3436C95.5476 98.7063 88.9129 105.72 79.0873 105.72ZM79.0873 99.0855C84.2055 99.0855 87.4912 94.9783 87.4912 88.3436C87.4912 81.6457 84.2055 77.5069 79.0873 77.5069C74.0006 77.5069 70.7149 81.6457 70.7149 88.3436C70.7149 95.0099 73.969 99.0855 79.0873 99.0855ZM112.987 105.657C106.005 105.657 101.077 101.013 101.077 92.4508V71.5988H109.07V91.187C109.07 96.084 111.534 98.6431 115.799 98.6431C119.97 98.6431 123.097 96.1788 123.097 90.4919V71.5988H131.059V104.962H123.224V96.4948H124.772C122.655 102.434 118.801 105.657 112.987 105.657ZM138.168 104.962V71.5988H145.845V77.1593H145.971C147.172 73.3365 149.731 71.2829 154.059 71.2829C155.102 71.2829 156.018 71.3777 156.65 71.4092V78.4863C156.05 78.4231 154.439 78.2335 152.89 78.2335C149.099 78.2335 146.161 80.8558 146.161 86.0688V104.962H138.168ZM175.512 105.72C165.718 105.72 159.178 98.6116 159.178 88.3436C159.178 78.044 165.749 70.8406 175.512 70.8406C183.884 70.8406 189.95 76.1167 190.645 83.5413H182.81C182.241 79.9712 179.714 77.5069 175.606 77.5069C170.362 77.5069 167.266 81.7088 167.266 88.3436C167.266 94.9151 170.362 99.0855 175.606 99.0855C179.745 99.0855 182.02 96.6843 182.747 92.9878H190.645C190.045 100.318 183.947 105.72 175.512 105.72ZM210.739 105.72C200.724 105.72 194.436 98.4536 194.436 88.3436C194.436 78.1703 201.04 70.8406 210.391 70.8406C220.027 70.8406 226.378 77.9808 226.378 88.2172V90.3656H197.596V84.8682H222.397L218.827 86.3531C218.827 80.7294 215.604 77.1909 210.518 77.1909C205.463 77.1909 202.24 80.7294 202.24 86.3531V89.8285C202.24 95.5785 205.368 99.4646 210.897 99.4646C214.909 99.4646 217.626 97.5374 218.511 94.6623H225.967C224.735 101.202 218.542 105.72 210.739 105.72Z" fill="white"/>
<path d="M153.727 125.287H157.743C157.073 121.022 153.378 118.051 148.565 118.051C142.87 118.051 138.6 122.232 138.6 129.236C138.6 136.24 142.679 140.379 148.681 140.379C154.067 140.379 157.923 136.92 157.923 131.316V128.706H149.095V131.783H154.109C154.046 134.881 151.974 136.844 148.702 136.844C145.058 136.844 142.561 134.118 142.561 129.194C142.561 124.269 145.1 121.585 148.616 121.585C151.239 121.585 153.023 122.985 153.725 125.289L153.727 125.287Z" fill="#FC6D26"/>
<path d="M160.577 140.08H164.423V123.78H160.577V140.08ZM162.511 121.2C163.733 121.2 164.731 120.267 164.731 119.12C164.731 117.974 163.733 117.03 162.511 117.03C161.29 117.03 160.281 117.963 160.281 119.12C160.281 120.277 161.279 121.2 162.511 121.2Z" fill="#FC6D26"/>
<path d="M175.939 123.781H172.72V119.876H168.874V123.781H166.558V126.752H168.874V135.815C168.853 138.882 171.084 140.389 173.973 140.305C175.068 140.273 175.821 140.06 176.235 139.923L175.588 136.92C175.375 136.973 174.939 137.068 174.462 137.068C173.496 137.068 172.72 136.728 172.72 135.18V126.754H175.939V123.783V123.781Z" fill="#FC6D26"/>
<path d="M178.914 140.077H192.437V136.777H182.855V118.344H178.914V140.077Z" fill="#FC6D26"/>
<path d="M199.802 140.409C202.362 140.409 203.892 139.21 204.592 137.841H204.719V140.08H208.416V129.171C208.416 124.863 204.901 123.568 201.787 123.568C198.356 123.568 195.722 125.097 194.871 128.068L198.462 128.577C198.845 127.462 199.927 126.508 201.808 126.508C203.689 126.508 204.571 127.42 204.571 129.023V129.086C204.571 130.191 203.413 130.243 200.534 130.55C197.367 130.89 194.34 131.834 194.34 135.506C194.34 138.711 196.688 140.409 199.8 140.409H199.802ZM201.066 137.586C199.462 137.586 198.314 136.853 198.314 135.442C198.314 134.032 199.599 133.352 201.32 133.107C202.328 132.97 204.347 132.714 204.846 132.311V134.233C204.846 136.047 203.379 137.586 201.064 137.586H201.066Z" fill="#FC6D26"/>
<path d="M211.256 140.077H215.038V137.51H215.262C215.868 138.698 217.132 140.364 219.936 140.364C223.781 140.364 226.66 137.319 226.66 131.949C226.66 126.579 223.696 123.566 219.925 123.566C217.046 123.566 215.845 125.296 215.262 126.474H215.103V118.344H211.258V140.077H211.256ZM215.027 131.928C215.027 128.765 216.387 126.719 218.862 126.719C221.337 126.719 222.739 128.894 222.739 131.928C222.739 134.963 221.401 137.214 218.862 137.214C216.323 137.214 215.027 135.091 215.027 131.928Z" fill="#FC6D26"/>
<path d="M131.592 125.79L131.555 125.692L127.817 115.952C127.743 115.762 127.607 115.6 127.433 115.489C127.258 115.378 127.054 115.325 126.847 115.336C126.641 115.346 126.444 115.422 126.282 115.55C126.121 115.681 126.005 115.855 125.952 116.052L123.429 123.768H113.217L110.694 116.052C110.64 115.855 110.523 115.679 110.364 115.55C110.202 115.422 110.005 115.346 109.799 115.334C109.59 115.323 109.388 115.376 109.213 115.487C109.039 115.598 108.905 115.758 108.829 115.95L105.091 125.693L105.054 125.79C103.947 128.677 104.89 131.939 107.357 133.802C107.362 133.805 107.365 133.809 107.371 133.812L107.404 133.837L113.097 138.094L115.913 140.223L117.627 141.518C118.039 141.83 118.61 141.83 119.023 141.518L120.737 140.223L123.552 138.094L129.279 133.811C129.279 133.811 129.289 133.804 129.295 133.798C131.759 131.935 132.703 128.673 131.595 125.788L131.592 125.79Z" fill="#FC6D26"/>
<rect y="174.609" width="47.6499" height="3.39" rx="1.695" fill="#E24329"/>
<rect x="11" y="174.609" width="50.3585" height="3.39202" rx="1.69601" fill="#FDF1DD"/>
<rect y="47.6499" width="47.6499" height="3.39202" rx="1.69601" transform="rotate(-90 0 47.6499)" fill="#5943B6"/>
<rect x="48" y="174.609" width="40.5428" height="3.39202" rx="1.69601" fill="#A989F5"/>
<rect x="80.7568" y="174.609" width="68.6233" height="3.39202" rx="1.69601" fill="#CEB3EF"/>
<rect x="130.35" y="174.609" width="47.6499" height="3.39202" rx="1.69601" fill="#5943B6"/>
<rect x="130.35" y="0.0507812" width="47.6499" height="3.39202" rx="1.69601" fill="#E24329"/>
<rect x="107.631" y="0.0507812" width="41.748" height="3.39202" rx="1.69601" fill="#FDF1DD"/>
<rect x="104.369" y="0.0478516" width="25.962" height="3.39202" rx="1.69601" fill="#A989F5"/>
<rect width="47.6499" height="3.33872" rx="1.66936" transform="matrix(-1.19249e-08 -1 -1 1.19249e-08 256 178)" fill="#E24329"/>
<rect width="21.0045" height="3.39202" rx="1.69601" transform="matrix(-1.19249e-08 -1 -1 1.19249e-08 256 137.949)" fill="#FCA326"/>
<rect width="40.5428" height="3.39202" rx="1.69601" transform="matrix(-1.19249e-08 -1 -1 1.19249e-08 256 120.727)" fill="#A989F5"/>
<rect width="68.6232" height="3.39202" rx="1.69601" transform="matrix(-1.19249e-08 -1 -1 1.19249e-08 256 97.2432)" fill="#6FDAC9"/>
<rect width="47.6499" height="3.39202" rx="1.69601" transform="matrix(-1.19249e-08 -1 -1 1.19249e-08 256 47.6499)" fill="#5943B6"/>
<rect width="47.6499" height="3.39202" rx="1.69601" transform="matrix(-1 5.56363e-08 5.56363e-08 1 125.65 174.609)" fill="#5943B6"/>
<rect width="47.6499" height="3.39202" rx="1.69601" transform="matrix(-1 5.56363e-08 5.56363e-08 1 256 0.0478516)" fill="#5943B6"/>
<rect width="66.4054" height="3.39202" rx="1.69601" transform="matrix(-1 5.56363e-08 5.56363e-08 1 232.104 0.0478516)" fill="#CEB3EF"/>
<rect width="25.962" height="3.39202" rx="1.69601" transform="matrix(-1 5.56363e-08 5.56363e-08 1 188.962 0.0478516)" fill="#A989F5"/>
<rect width="41.748" height="3.39202" rx="1.69601" transform="matrix(-1 5.56363e-08 5.56363e-08 1 168.369 0.0507812)" fill="#FDF1DD"/>
<rect width="47.6499" height="3.39202" rx="1.69601" transform="matrix(-1 5.56363e-08 5.56363e-08 1 136.65 0.0507812)" fill="#E24329"/>
<rect x="31" y="0.0478516" width="66.4054" height="3.39202" rx="1.69601" fill="#CEB3EF"/>
<rect y="0.0478516" width="47.6499" height="3.39202" rx="1.69601" fill="#5943B6"/>
<rect y="97.2432" width="68.6232" height="3.39202" rx="1.69601" transform="rotate(-90 0 97.2432)" fill="#6FDAC9"/>
<rect y="120.727" width="40.5428" height="3.39202" rx="1.69601" transform="rotate(-90 0 120.727)" fill="#A989F5"/>
<rect y="132.004" width="21.0045" height="3.39202" rx="1.69601" transform="rotate(-90 0 132.004)" fill="#FCA326"/>
<rect y="178" width="47.6499" height="3.39" rx="1.695" transform="rotate(-90 0 178)" fill="#E24329"/>
<rect width="68.6233" height="3.39202" rx="1.69601" transform="matrix(-1 5.56363e-08 5.56363e-08 1 175.243 174.609)" fill="#CEB3EF"/>
<rect width="40.5428" height="3.39202" rx="1.69601" transform="matrix(-1 5.56363e-08 5.56363e-08 1 196.543 174.609)" fill="#A989F5"/>
<rect width="50.3585" height="3.39202" rx="1.69601" transform="matrix(-1 5.56363e-08 5.56363e-08 1 233.821 174.609)" fill="#FDF1DD"/>
<rect width="47.6499" height="3.39" rx="1.695" transform="matrix(-1 5.56363e-08 5.56363e-08 1 256 174.609)" fill="#E24329"/>
</g>
<defs>
<clipPath id="clip0_1033_5410">
<rect width="256" height="178.001" rx="2" fill="white"/>
</clipPath>
</defs>
</svg>
